<?xml version="1.0" encoding="utf-8" standalone="no"?>
<!DOCTYPE svg PUBLIC "-//W3C//DTD SVG 1.1//EN"
  "http://www.w3.org/Graphics/SVG/1.1/DTD/svg11.dtd">
<svg xmlns:xlink="http://www.w3.org/1999/xlink" width="432pt" height="432pt" viewBox="0 0 432 432" xmlns="http://www.w3.org/2000/svg" version="1.1">
 <metadata>
  <rdf:RDF xmlns:dc="http://purl.org/dc/elements/1.1/" xmlns:cc="http://creativecommons.org/ns#" xmlns:rdf="http://www.w3.org/1999/02/22-rdf-syntax-ns#">
   <cc:Work>
    <dc:type rdf:resource="http://purl.org/dc/dcmitype/StillImage"/>
    <dc:date>2024-07-30T23:01:21.946687</dc:date>
    <dc:format>image/svg+xml</dc:format>
    <dc:creator>
     <cc:Agent>
      <dc:title>Matplotlib v3.5.1, https://matplotlib.org/</dc:title>
     </cc:Agent>
    </dc:creator>
   </cc:Work>
  </rdf:RDF>
 </metadata>
 <defs>
  <style type="text/css">*{stroke-linejoin: round; stroke-linecap: butt}</style>
 </defs>
 <g id="figure_1">
  <g id="patch_1">
   <path d="M 0 432 
L 432 432 
L 432 0 
L 0 0 
z
" style="fill: #ffffff"/>
  </g>
  <g id="axes_1">
   <g id="patch_2">
    <path d="M 59.583196 378.217688 
L 419.04 378.217688 
L 419.04 27.65625 
L 59.583196 27.65625 
z
" style="fill: #ffffff"/>
   </g>
   <g id="matplotlib.axis_1">
    <g id="xtick_1">
     <g id="text_1">
      <!-- $\mathdefault{10^{3}}$ -->
      <g style="fill: #262626" transform="translate(238.254589 399.061438)scale(0.11 -0.11)">
       <defs>
        <path id="ArialMT-31" d="M 2384 0 
L 1822 0 
L 1822 3584 
Q 1619 3391 1289 3197 
Q 959 3003 697 2906 
L 697 3450 
Q 1169 3672 1522 3987 
Q 1875 4303 2022 4600 
L 2384 4600 
L 2384 0 
z
" transform="scale(0.015625)"/>
        <path id="ArialMT-30" d="M 266 2259 
Q 266 3072 433 3567 
Q 600 4063 929 4331 
Q 1259 4600 1759 4600 
Q 2128 4600 2406 4451 
Q 2684 4303 2865 4023 
Q 3047 3744 3150 3342 
Q 3253 2941 3253 2259 
Q 3253 1453 3087 958 
Q 2922 463 2592 192 
Q 2263 -78 1759 -78 
Q 1097 -78 719 397 
Q 266 969 266 2259 
z
M 844 2259 
Q 844 1131 1108 757 
Q 1372 384 1759 384 
Q 2147 384 2411 759 
Q 2675 1134 2675 2259 
Q 2675 3391 2411 3762 
Q 2147 4134 1753 4134 
Q 1366 4134 1134 3806 
Q 844 3388 844 2259 
z
" transform="scale(0.015625)"/>
        <path id="ArialMT-33" d="M 269 1209 
L 831 1284 
Q 928 806 1161 595 
Q 1394 384 1728 384 
Q 2125 384 2398 659 
Q 2672 934 2672 1341 
Q 2672 1728 2419 1979 
Q 2166 2231 1775 2231 
Q 1616 2231 1378 2169 
L 1441 2663 
Q 1497 2656 1531 2656 
Q 1891 2656 2178 2843 
Q 2466 3031 2466 3422 
Q 2466 3731 2256 3934 
Q 2047 4138 1716 4138 
Q 1388 4138 1169 3931 
Q 950 3725 888 3313 
L 325 3413 
Q 428 3978 793 4289 
Q 1159 4600 1703 4600 
Q 2078 4600 2393 4439 
Q 2709 4278 2876 4000 
Q 3044 3722 3044 3409 
Q 3044 3113 2884 2869 
Q 2725 2625 2413 2481 
Q 2819 2388 3044 2092 
Q 3269 1797 3269 1353 
Q 3269 753 2831 336 
Q 2394 -81 1725 -81 
Q 1122 -81 723 278 
Q 325 638 269 1209 
z
" transform="scale(0.015625)"/>
       </defs>
       <use xlink:href="#ArialMT-31" transform="translate(0 0.99375)"/>
       <use xlink:href="#ArialMT-30" transform="translate(55.615234 0.99375)"/>
       <use xlink:href="#ArialMT-33" transform="translate(112.972813 70.6875)scale(0.7)"/>
      </g>
     </g>
    </g>
    <g id="xtick_2"/>
    <g id="xtick_3"/>
    <g id="xtick_4"/>
    <g id="xtick_5"/>
    <g id="xtick_6"/>
    <g id="xtick_7"/>
    <g id="xtick_8"/>
    <g id="xtick_9"/>
    <g id="xtick_10"/>
    <g id="xtick_11"/>
    <g id="xtick_12"/>
    <g id="xtick_13"/>
    <g id="text_2">
     <!-- LDH -->
     <g style="fill: #262626" transform="translate(227.308786 413.837063)scale(0.12 -0.12)">
      <defs>
       <path id="ArialMT-4c" d="M 469 0 
L 469 4581 
L 1075 4581 
L 1075 541 
L 3331 541 
L 3331 0 
L 469 0 
z
" transform="scale(0.015625)"/>
       <path id="ArialMT-44" d="M 494 0 
L 494 4581 
L 2072 4581 
Q 2606 4581 2888 4516 
Q 3281 4425 3559 4188 
Q 3922 3881 4101 3404 
Q 4281 2928 4281 2316 
Q 4281 1794 4159 1391 
Q 4038 988 3847 723 
Q 3656 459 3429 307 
Q 3203 156 2883 78 
Q 2563 0 2147 0 
L 494 0 
z
M 1100 541 
L 2078 541 
Q 2531 541 2789 625 
Q 3047 709 3200 863 
Q 3416 1078 3536 1442 
Q 3656 1806 3656 2325 
Q 3656 3044 3420 3430 
Q 3184 3816 2847 3947 
Q 2603 4041 2063 4041 
L 1100 4041 
L 1100 541 
z
" transform="scale(0.015625)"/>
       <path id="ArialMT-48" d="M 513 0 
L 513 4581 
L 1119 4581 
L 1119 2700 
L 3500 2700 
L 3500 4581 
L 4106 4581 
L 4106 0 
L 3500 0 
L 3500 2159 
L 1119 2159 
L 1119 0 
L 513 0 
z
" transform="scale(0.015625)"/>
      </defs>
      <use xlink:href="#ArialMT-4c"/>
      <use xlink:href="#ArialMT-44" x="55.615234"/>
      <use xlink:href="#ArialMT-48" x="127.832031"/>
     </g>
    </g>
   </g>
   <g id="matplotlib.axis_2">
    <g id="ytick_1">
     <g id="text_3">
      <!-- $\mathdefault{10^{-5}}$ -->
      <g style="fill: #262626" transform="translate(28.303196 334.720962)scale(0.11 -0.11)">
       <defs>
        <path id="ArialMT-2212" d="M 3381 1997 
L 356 1997 
L 356 2522 
L 3381 2522 
L 3381 1997 
z
" transform="scale(0.015625)"/>
        <path id="ArialMT-35" d="M 266 1200 
L 856 1250 
Q 922 819 1161 601 
Q 1400 384 1738 384 
Q 2144 384 2425 690 
Q 2706 997 2706 1503 
Q 2706 1984 2436 2262 
Q 2166 2541 1728 2541 
Q 1456 2541 1237 2417 
Q 1019 2294 894 2097 
L 366 2166 
L 809 4519 
L 3088 4519 
L 3088 3981 
L 1259 3981 
L 1013 2750 
Q 1425 3038 1878 3038 
Q 2478 3038 2890 2622 
Q 3303 2206 3303 1553 
Q 3303 931 2941 478 
Q 2500 -78 1738 -78 
Q 1113 -78 717 272 
Q 322 622 266 1200 
z
" transform="scale(0.015625)"/>
       </defs>
       <use xlink:href="#ArialMT-31" transform="translate(0 0.879688)"/>
       <use xlink:href="#ArialMT-30" transform="translate(55.615234 0.879688)"/>
       <use xlink:href="#ArialMT-2212" transform="translate(112.972813 70.573438)scale(0.7)"/>
       <use xlink:href="#ArialMT-35" transform="translate(153.851719 70.573438)scale(0.7)"/>
      </g>
     </g>
    </g>
    <g id="ytick_2">
     <g id="text_4">
      <!-- $\mathdefault{10^{-4}}$ -->
      <g style="fill: #262626" transform="translate(28.303196 277.44085)scale(0.11 -0.11)">
       <defs>
        <path id="ArialMT-34" d="M 2069 0 
L 2069 1097 
L 81 1097 
L 81 1613 
L 2172 4581 
L 2631 4581 
L 2631 1613 
L 3250 1613 
L 3250 1097 
L 2631 1097 
L 2631 0 
L 2069 0 
z
M 2069 1613 
L 2069 3678 
L 634 1613 
L 2069 1613 
z
" transform="scale(0.015625)"/>
       </defs>
       <use xlink:href="#ArialMT-31" transform="translate(0 0.201563)"/>
       <use xlink:href="#ArialMT-30" transform="translate(55.615234 0.201563)"/>
       <use xlink:href="#ArialMT-2212" transform="translate(112.972813 69.895313)scale(0.7)"/>
       <use xlink:href="#ArialMT-34" transform="translate(153.851719 69.895313)scale(0.7)"/>
      </g>
     </g>
    </g>
    <g id="ytick_3">
     <g id="text_5">
      <!-- $\mathdefault{10^{-3}}$ -->
      <g style="fill: #262626" transform="translate(28.303196 220.215738)scale(0.11 -0.11)">
       <use xlink:href="#ArialMT-31" transform="translate(0 0.99375)"/>
       <use xlink:href="#ArialMT-30" transform="translate(55.615234 0.99375)"/>
       <use xlink:href="#ArialMT-2212" transform="translate(112.972813 70.6875)scale(0.7)"/>
       <use xlink:href="#ArialMT-33" transform="translate(153.851719 70.6875)scale(0.7)"/>
      </g>
     </g>
    </g>
    <g id="ytick_4">
     <g id="text_6">
      <!-- $\mathdefault{10^{-2}}$ -->
      <g style="fill: #262626" transform="translate(28.303196 162.935627)scale(0.11 -0.11)">
       <defs>
        <path id="ArialMT-32" d="M 3222 541 
L 3222 0 
L 194 0 
Q 188 203 259 391 
Q 375 700 629 1000 
Q 884 1300 1366 1694 
Q 2113 2306 2375 2664 
Q 2638 3022 2638 3341 
Q 2638 3675 2398 3904 
Q 2159 4134 1775 4134 
Q 1369 4134 1125 3890 
Q 881 3647 878 3216 
L 300 3275 
Q 359 3922 746 4261 
Q 1134 4600 1788 4600 
Q 2447 4600 2831 4234 
Q 3216 3869 3216 3328 
Q 3216 3053 3103 2787 
Q 2991 2522 2730 2228 
Q 2469 1934 1863 1422 
Q 1356 997 1212 845 
Q 1069 694 975 541 
L 3222 541 
z
" transform="scale(0.015625)"/>
       </defs>
       <use xlink:href="#ArialMT-31" transform="translate(0 0.99375)"/>
       <use xlink:href="#ArialMT-30" transform="translate(55.615234 0.99375)"/>
       <use xlink:href="#ArialMT-2212" transform="translate(112.972813 70.6875)scale(0.7)"/>
       <use xlink:href="#ArialMT-32" transform="translate(153.851719 70.6875)scale(0.7)"/>
      </g>
     </g>
    </g>
    <g id="ytick_5">
     <g id="text_7">
      <!-- $\mathdefault{10^{-1}}$ -->
      <g style="fill: #262626" transform="translate(28.303196 105.655515)scale(0.11 -0.11)">
       <use xlink:href="#ArialMT-31" transform="translate(0 0.99375)"/>
       <use xlink:href="#ArialMT-30" transform="translate(55.615234 0.99375)"/>
       <use xlink:href="#ArialMT-2212" transform="translate(112.972813 70.6875)scale(0.7)"/>
       <use xlink:href="#ArialMT-31" transform="translate(153.851719 70.6875)scale(0.7)"/>
      </g>
     </g>
    </g>
    <g id="ytick_6">
     <g id="text_8">
      <!-- $\mathdefault{10^{0}}$ -->
      <g style="fill: #262626" transform="translate(32.813196 48.375403)scale(0.11 -0.11)">
       <use xlink:href="#ArialMT-31" transform="translate(0 0.99375)"/>
       <use xlink:href="#ArialMT-30" transform="translate(55.615234 0.99375)"/>
       <use xlink:href="#ArialMT-30" transform="translate(112.972813 70.6875)scale(0.7)"/>
      </g>
     </g>
    </g>
    <g id="ytick_7"/>
    <g id="ytick_8"/>
    <g id="ytick_9"/>
    <g id="ytick_10"/>
    <g id="ytick_11"/>
    <g id="ytick_12"/>
    <g id="ytick_13"/>
    <g id="ytick_14"/>
    <g id="ytick_15"/>
    <g id="ytick_16"/>
    <g id="ytick_17"/>
    <g id="ytick_18"/>
    <g id="ytick_19"/>
    <g id="ytick_20"/>
    <g id="ytick_21"/>
    <g id="ytick_22"/>
    <g id="ytick_23"/>
    <g id="ytick_24"/>
    <g id="ytick_25"/>
    <g id="ytick_26"/>
    <g id="ytick_27"/>
    <g id="ytick_28"/>
    <g id="ytick_29"/>
    <g id="ytick_30"/>
    <g id="ytick_31"/>
    <g id="ytick_32"/>
    <g id="ytick_33"/>
    <g id="ytick_34"/>
    <g id="ytick_35"/>
    <g id="ytick_36"/>
    <g id="ytick_37"/>
    <g id="ytick_38"/>
    <g id="ytick_39"/>
    <g id="ytick_40"/>
    <g id="ytick_41"/>
    <g id="ytick_42"/>
    <g id="ytick_43"/>
    <g id="ytick_44"/>
    <g id="ytick_45"/>
    <g id="ytick_46"/>
    <g id="ytick_47"/>
    <g id="ytick_48"/>
    <g id="ytick_49"/>
    <g id="ytick_50"/>
    <g id="ytick_51"/>
    <g id="ytick_52"/>
    <g id="ytick_53"/>
    <g id="ytick_54"/>
    <g id="text_9">
     <!-- Multi AF -->
     <g style="fill: #262626" transform="translate(21.918196 224.608219)rotate(-90)scale(0.12 -0.12)">
      <defs>
       <path id="ArialMT-4d" d="M 475 0 
L 475 4581 
L 1388 4581 
L 2472 1338 
Q 2622 884 2691 659 
Q 2769 909 2934 1394 
L 4031 4581 
L 4847 4581 
L 4847 0 
L 4263 0 
L 4263 3834 
L 2931 0 
L 2384 0 
L 1059 3900 
L 1059 0 
L 475 0 
z
" transform="scale(0.015625)"/>
       <path id="ArialMT-75" d="M 2597 0 
L 2597 488 
Q 2209 -75 1544 -75 
Q 1250 -75 995 37 
Q 741 150 617 320 
Q 494 491 444 738 
Q 409 903 409 1263 
L 409 3319 
L 972 3319 
L 972 1478 
Q 972 1038 1006 884 
Q 1059 663 1231 536 
Q 1403 409 1656 409 
Q 1909 409 2131 539 
Q 2353 669 2445 892 
Q 2538 1116 2538 1541 
L 2538 3319 
L 3100 3319 
L 3100 0 
L 2597 0 
z
" transform="scale(0.015625)"/>
       <path id="ArialMT-6c" d="M 409 0 
L 409 4581 
L 972 4581 
L 972 0 
L 409 0 
z
" transform="scale(0.015625)"/>
       <path id="ArialMT-74" d="M 1650 503 
L 1731 6 
Q 1494 -44 1306 -44 
Q 1000 -44 831 53 
Q 663 150 594 308 
Q 525 466 525 972 
L 525 2881 
L 113 2881 
L 113 3319 
L 525 3319 
L 525 4141 
L 1084 4478 
L 1084 3319 
L 1650 3319 
L 1650 2881 
L 1084 2881 
L 1084 941 
Q 1084 700 1114 631 
Q 1144 563 1211 522 
Q 1278 481 1403 481 
Q 1497 481 1650 503 
z
" transform="scale(0.015625)"/>
       <path id="ArialMT-69" d="M 425 3934 
L 425 4581 
L 988 4581 
L 988 3934 
L 425 3934 
z
M 425 0 
L 425 3319 
L 988 3319 
L 988 0 
L 425 0 
z
" transform="scale(0.015625)"/>
       <path id="ArialMT-20" transform="scale(0.015625)"/>
       <path id="ArialMT-41" d="M -9 0 
L 1750 4581 
L 2403 4581 
L 4278 0 
L 3588 0 
L 3053 1388 
L 1138 1388 
L 634 0 
L -9 0 
z
M 1313 1881 
L 2866 1881 
L 2388 3150 
Q 2169 3728 2063 4100 
Q 1975 3659 1816 3225 
L 1313 1881 
z
" transform="scale(0.015625)"/>
       <path id="ArialMT-46" d="M 525 0 
L 525 4581 
L 3616 4581 
L 3616 4041 
L 1131 4041 
L 1131 2622 
L 3281 2622 
L 3281 2081 
L 1131 2081 
L 1131 0 
L 525 0 
z
" transform="scale(0.015625)"/>
      </defs>
      <use xlink:href="#ArialMT-4d"/>
      <use xlink:href="#ArialMT-75" x="83.300781"/>
      <use xlink:href="#ArialMT-6c" x="138.916016"/>
      <use xlink:href="#ArialMT-74" x="161.132812"/>
      <use xlink:href="#ArialMT-69" x="188.916016"/>
      <use xlink:href="#ArialMT-20" x="211.132812"/>
      <use xlink:href="#ArialMT-41" x="233.416016"/>
      <use xlink:href="#ArialMT-46" x="300.115234"/>
     </g>
    </g>
   </g>
   <g id="PathCollection_1">
    <defs>
     <path id="mde4517765f" d="M 0 3 
C 0.795609 3 1.55874 2.683901 2.12132 2.12132 
C 2.683901 1.55874 3 0.795609 3 0 
C 3 -0.795609 2.683901 -1.55874 2.12132 -2.12132 
C 1.55874 -2.683901 0.795609 -3 0 -3 
C -0.795609 -3 -1.55874 -2.683901 -2.12132 -2.12132 
C -2.683901 -1.55874 -3 -0.795609 -3 0 
C -3 0.795609 -2.683901 1.55874 -2.12132 2.12132 
C -1.55874 2.683901 -0.795609 3 0 3 
z
" style="stroke: #4c72b0"/>
    </defs>
    <g clip-path="url(#p1f01627c04)">
     <use xlink:href="#mde4517765f" x="75.922142" y="222.260434" style="fill: #4c72b0; stroke: #4c72b0"/>
     <use xlink:href="#mde4517765f" x="80.115233" y="362.975886" style="fill: #4c72b0; stroke: #4c72b0"/>
     <use xlink:href="#mde4517765f" x="84.640711" y="220.942438" style="fill: #4c72b0; stroke: #4c72b0"/>
     <use xlink:href="#mde4517765f" x="85.131718" y="192.000134" style="fill: #4c72b0; stroke: #4c72b0"/>
     <use xlink:href="#mde4517765f" x="89.450494" y="193.882933" style="fill: #4c72b0; stroke: #4c72b0"/>
     <use xlink:href="#mde4517765f" x="89.450494" y="228.590195" style="fill: #4c72b0; stroke: #4c72b0"/>
     <use xlink:href="#mde4517765f" x="89.919581" y="323.576115" style="fill: #4c72b0; stroke: #4c72b0"/>
     <use xlink:href="#mde4517765f" x="91.314408" y="362.975886" style="fill: #4c72b0; stroke: #4c72b0"/>
     <use xlink:href="#mde4517765f" x="91.314408" y="135.407872" style="fill: #4c72b0; stroke: #4c72b0"/>
     <use xlink:href="#mde4517765f" x="92.234111" y="284.42137" style="fill: #4c72b0; stroke: #4c72b0"/>
     <use xlink:href="#mde4517765f" x="92.690961" y="212.240767" style="fill: #4c72b0; stroke: #4c72b0"/>
     <use xlink:href="#mde4517765f" x="93.145834" y="249.704434" style="fill: #4c72b0; stroke: #4c72b0"/>
     <use xlink:href="#mde4517765f" x="93.145834" y="246.749347" style="fill: #4c72b0; stroke: #4c72b0"/>
     <use xlink:href="#mde4517765f" x="93.598746" y="362.975886" style="fill: #4c72b0; stroke: #4c72b0"/>
     <use xlink:href="#mde4517765f" x="94.049714" y="192.207663" style="fill: #4c72b0; stroke: #4c72b0"/>
     <use xlink:href="#mde4517765f" x="94.498755" y="200.813223" style="fill: #4c72b0; stroke: #4c72b0"/>
     <use xlink:href="#mde4517765f" x="94.945885" y="186.668731" style="fill: #4c72b0; stroke: #4c72b0"/>
     <use xlink:href="#mde4517765f" x="96.275971" y="322.537564" style="fill: #4c72b0; stroke: #4c72b0"/>
     <use xlink:href="#mde4517765f" x="97.153433" y="209.247236" style="fill: #4c72b0; stroke: #4c72b0"/>
     <use xlink:href="#mde4517765f" x="97.153433" y="176.825716" style="fill: #4c72b0; stroke: #4c72b0"/>
     <use xlink:href="#mde4517765f" x="98.456037" y="270.714118" style="fill: #4c72b0; stroke: #4c72b0"/>
     <use xlink:href="#mde4517765f" x="99.315555" y="362.975886" style="fill: #4c72b0; stroke: #4c72b0"/>
     <use xlink:href="#mde4517765f" x="100.168098" y="277.367518" style="fill: #4c72b0; stroke: #4c72b0"/>
     <use xlink:href="#mde4517765f" x="100.168098" y="276.104432" style="fill: #4c72b0; stroke: #4c72b0"/>
     <use xlink:href="#mde4517765f" x="100.59179" y="313.666974" style="fill: #4c72b0; stroke: #4c72b0"/>
     <use xlink:href="#mde4517765f" x="100.59179" y="295.114529" style="fill: #4c72b0; stroke: #4c72b0"/>
     <use xlink:href="#mde4517765f" x="100.59179" y="307.783205" style="fill: #4c72b0; stroke: #4c72b0"/>
     <use xlink:href="#mde4517765f" x="100.59179" y="286.117856" style="fill: #4c72b0; stroke: #4c72b0"/>
     <use xlink:href="#mde4517765f" x="101.434082" y="244.967038" style="fill: #4c72b0; stroke: #4c72b0"/>
     <use xlink:href="#mde4517765f" x="102.684995" y="311.890559" style="fill: #4c72b0; stroke: #4c72b0"/>
     <use xlink:href="#mde4517765f" x="103.098678" y="131.572706" style="fill: #4c72b0; stroke: #4c72b0"/>
     <use xlink:href="#mde4517765f" x="103.510739" y="247.155752" style="fill: #4c72b0; stroke: #4c72b0"/>
     <use xlink:href="#mde4517765f" x="103.510739" y="212.053033" style="fill: #4c72b0; stroke: #4c72b0"/>
     <use xlink:href="#mde4517765f" x="104.330045" y="182.372517" style="fill: #4c72b0; stroke: #4c72b0"/>
     <use xlink:href="#mde4517765f" x="104.330045" y="178.57121" style="fill: #4c72b0; stroke: #4c72b0"/>
     <use xlink:href="#mde4517765f" x="105.143011" y="180.629524" style="fill: #4c72b0; stroke: #4c72b0"/>
     <use xlink:href="#mde4517765f" x="105.143011" y="286.363081" style="fill: #4c72b0; stroke: #4c72b0"/>
     <use xlink:href="#mde4517765f" x="105.547148" y="137.939886" style="fill: #4c72b0; stroke: #4c72b0"/>
     <use xlink:href="#mde4517765f" x="105.547148" y="362.975886" style="fill: #4c72b0; stroke: #4c72b0"/>
     <use xlink:href="#mde4517765f" x="106.750315" y="130.933975" style="fill: #4c72b0; stroke: #4c72b0"/>
     <use xlink:href="#mde4517765f" x="106.750315" y="203.832817" style="fill: #4c72b0; stroke: #4c72b0"/>
     <use xlink:href="#mde4517765f" x="107.544839" y="225.379293" style="fill: #4c72b0; stroke: #4c72b0"/>
     <use xlink:href="#mde4517765f" x="107.544839" y="362.975886" style="fill: #4c72b0; stroke: #4c72b0"/>
     <use xlink:href="#mde4517765f" x="107.544839" y="251.508344" style="fill: #4c72b0; stroke: #4c72b0"/>
     <use xlink:href="#mde4517765f" x="107.93986" y="228.131672" style="fill: #4c72b0; stroke: #4c72b0"/>
     <use xlink:href="#mde4517765f" x="108.725474" y="312.600375" style="fill: #4c72b0; stroke: #4c72b0"/>
     <use xlink:href="#mde4517765f" x="108.725474" y="305.469837" style="fill: #4c72b0; stroke: #4c72b0"/>
     <use xlink:href="#mde4517765f" x="109.11609" y="185.475844" style="fill: #4c72b0; stroke: #4c72b0"/>
     <use xlink:href="#mde4517765f" x="109.505258" y="256.040128" style="fill: #4c72b0; stroke: #4c72b0"/>
     <use xlink:href="#mde4517765f" x="109.892991" y="362.975886" style="fill: #4c72b0; stroke: #4c72b0"/>
     <use xlink:href="#mde4517765f" x="110.279298" y="207.186954" style="fill: #4c72b0; stroke: #4c72b0"/>
     <use xlink:href="#mde4517765f" x="110.279298" y="100.134365" style="fill: #4c72b0; stroke: #4c72b0"/>
     <use xlink:href="#mde4517765f" x="110.66419" y="121.796273" style="fill: #4c72b0; stroke: #4c72b0"/>
     <use xlink:href="#mde4517765f" x="111.810479" y="208.795039" style="fill: #4c72b0; stroke: #4c72b0"/>
     <use xlink:href="#mde4517765f" x="113.319667" y="263.226896" style="fill: #4c72b0; stroke: #4c72b0"/>
     <use xlink:href="#mde4517765f" x="113.693601" y="215.918796" style="fill: #4c72b0; stroke: #4c72b0"/>
     <use xlink:href="#mde4517765f" x="114.066209" y="362.975886" style="fill: #4c72b0; stroke: #4c72b0"/>
     <use xlink:href="#mde4517765f" x="114.066209" y="163.215649" style="fill: #4c72b0; stroke: #4c72b0"/>
     <use xlink:href="#mde4517765f" x="114.066209" y="319.402969" style="fill: #4c72b0; stroke: #4c72b0"/>
     <use xlink:href="#mde4517765f" x="114.066209" y="226.296485" style="fill: #4c72b0; stroke: #4c72b0"/>
     <use xlink:href="#mde4517765f" x="114.066209" y="335.646327" style="fill: #4c72b0; stroke: #4c72b0"/>
     <use xlink:href="#mde4517765f" x="114.437501" y="136.948162" style="fill: #4c72b0; stroke: #4c72b0"/>
     <use xlink:href="#mde4517765f" x="115.176171" y="176.229757" style="fill: #4c72b0; stroke: #4c72b0"/>
     <use xlink:href="#mde4517765f" x="115.176171" y="193.725149" style="fill: #4c72b0; stroke: #4c72b0"/>
     <use xlink:href="#mde4517765f" x="115.543568" y="215.84271" style="fill: #4c72b0; stroke: #4c72b0"/>
     <use xlink:href="#mde4517765f" x="116.27453" y="290.382537" style="fill: #4c72b0; stroke: #4c72b0"/>
     <use xlink:href="#mde4517765f" x="116.638113" y="362.975886" style="fill: #4c72b0; stroke: #4c72b0"/>
     <use xlink:href="#mde4517765f" x="116.638113" y="317.527179" style="fill: #4c72b0; stroke: #4c72b0"/>
     <use xlink:href="#mde4517765f" x="116.638113" y="161.586" style="fill: #4c72b0; stroke: #4c72b0"/>
     <use xlink:href="#mde4517765f" x="117.000443" y="146.316733" style="fill: #4c72b0; stroke: #4c72b0"/>
     <use xlink:href="#mde4517765f" x="117.361527" y="236.328626" style="fill: #4c72b0; stroke: #4c72b0"/>
     <use xlink:href="#mde4517765f" x="117.721374" y="287.460635" style="fill: #4c72b0; stroke: #4c72b0"/>
     <use xlink:href="#mde4517765f" x="117.721374" y="304.70522" style="fill: #4c72b0; stroke: #4c72b0"/>
     <use xlink:href="#mde4517765f" x="117.721374" y="221.167811" style="fill: #4c72b0; stroke: #4c72b0"/>
     <use xlink:href="#mde4517765f" x="118.437394" y="206.844135" style="fill: #4c72b0; stroke: #4c72b0"/>
     <use xlink:href="#mde4517765f" x="118.437394" y="166.11044" style="fill: #4c72b0; stroke: #4c72b0"/>
     <use xlink:href="#mde4517765f" x="118.437394" y="191.799992" style="fill: #4c72b0; stroke: #4c72b0"/>
     <use xlink:href="#mde4517765f" x="119.148567" y="256.311126" style="fill: #4c72b0; stroke: #4c72b0"/>
     <use xlink:href="#mde4517765f" x="119.148567" y="145.83203" style="fill: #4c72b0; stroke: #4c72b0"/>
     <use xlink:href="#mde4517765f" x="119.502356" y="198.629745" style="fill: #4c72b0; stroke: #4c72b0"/>
     <use xlink:href="#mde4517765f" x="119.502356" y="169.315055" style="fill: #4c72b0; stroke: #4c72b0"/>
     <use xlink:href="#mde4517765f" x="120.556633" y="301.493953" style="fill: #4c72b0; stroke: #4c72b0"/>
     <use xlink:href="#mde4517765f" x="120.556633" y="223.164424" style="fill: #4c72b0; stroke: #4c72b0"/>
     <use xlink:href="#mde4517765f" x="120.905721" y="314.517641" style="fill: #4c72b0; stroke: #4c72b0"/>
     <use xlink:href="#mde4517765f" x="120.905721" y="140.000639" style="fill: #4c72b0; stroke: #4c72b0"/>
     <use xlink:href="#mde4517765f" x="121.253654" y="279.035193" style="fill: #4c72b0; stroke: #4c72b0"/>
     <use xlink:href="#mde4517765f" x="121.600437" y="223.999699" style="fill: #4c72b0; stroke: #4c72b0"/>
     <use xlink:href="#mde4517765f" x="121.946081" y="309.059696" style="fill: #4c72b0; stroke: #4c72b0"/>
     <use xlink:href="#mde4517765f" x="122.633974" y="191.790688" style="fill: #4c72b0; stroke: #4c72b0"/>
     <use xlink:href="#mde4517765f" x="122.97624" y="283.9064" style="fill: #4c72b0; stroke: #4c72b0"/>
     <use xlink:href="#mde4517765f" x="123.657444" y="131.564478" style="fill: #4c72b0; stroke: #4c72b0"/>
     <use xlink:href="#mde4517765f" x="124.334261" y="301.835852" style="fill: #4c72b0; stroke: #4c72b0"/>
     <use xlink:href="#mde4517765f" x="124.334261" y="103.627676" style="fill: #4c72b0; stroke: #4c72b0"/>
     <use xlink:href="#mde4517765f" x="124.671041" y="135.994865" style="fill: #4c72b0; stroke: #4c72b0"/>
     <use xlink:href="#mde4517765f" x="125.006746" y="167.19666" style="fill: #4c72b0; stroke: #4c72b0"/>
     <use xlink:href="#mde4517765f" x="125.341381" y="327.826982" style="fill: #4c72b0; stroke: #4c72b0"/>
     <use xlink:href="#mde4517765f" x="126.007471" y="198.354426" style="fill: #4c72b0; stroke: #4c72b0"/>
     <use xlink:href="#mde4517765f" x="126.007471" y="206.938347" style="fill: #4c72b0; stroke: #4c72b0"/>
     <use xlink:href="#mde4517765f" x="126.007471" y="199.847366" style="fill: #4c72b0; stroke: #4c72b0"/>
     <use xlink:href="#mde4517765f" x="126.007471" y="185.927144" style="fill: #4c72b0; stroke: #4c72b0"/>
     <use xlink:href="#mde4517765f" x="127.327117" y="133.529494" style="fill: #4c72b0; stroke: #4c72b0"/>
     <use xlink:href="#mde4517765f" x="127.327117" y="201.674753" style="fill: #4c72b0; stroke: #4c72b0"/>
     <use xlink:href="#mde4517765f" x="127.327117" y="180.50274" style="fill: #4c72b0; stroke: #4c72b0"/>
     <use xlink:href="#mde4517765f" x="128.306088" y="201.86432" style="fill: #4c72b0; stroke: #4c72b0"/>
     <use xlink:href="#mde4517765f" x="128.630395" y="301.138604" style="fill: #4c72b0; stroke: #4c72b0"/>
     <use xlink:href="#mde4517765f" x="129.276021" y="362.975886" style="fill: #4c72b0; stroke: #4c72b0"/>
     <use xlink:href="#mde4517765f" x="129.917705" y="143.621618" style="fill: #4c72b0; stroke: #4c72b0"/>
     <use xlink:href="#mde4517765f" x="130.555494" y="136.059759" style="fill: #4c72b0; stroke: #4c72b0"/>
     <use xlink:href="#mde4517765f" x="130.555494" y="362.975886" style="fill: #4c72b0; stroke: #4c72b0"/>
     <use xlink:href="#mde4517765f" x="130.872943" y="119.325809" style="fill: #4c72b0; stroke: #4c72b0"/>
     <use xlink:href="#mde4517765f" x="130.872943" y="260.188085" style="fill: #4c72b0; stroke: #4c72b0"/>
     <use xlink:href="#mde4517765f" x="132.133233" y="207.595848" style="fill: #4c72b0; stroke: #4c72b0"/>
     <use xlink:href="#mde4517765f" x="132.133233" y="152.376694" style="fill: #4c72b0; stroke: #4c72b0"/>
     <use xlink:href="#mde4517765f" x="132.133233" y="183.36493" style="fill: #4c72b0; stroke: #4c72b0"/>
     <use xlink:href="#mde4517765f" x="133.068628" y="239.122323" style="fill: #4c72b0; stroke: #4c72b0"/>
     <use xlink:href="#mde4517765f" x="133.068628" y="203.888845" style="fill: #4c72b0; stroke: #4c72b0"/>
     <use xlink:href="#mde4517765f" x="133.378586" y="362.975886" style="fill: #4c72b0; stroke: #4c72b0"/>
     <use xlink:href="#mde4517765f" x="133.99577" y="160.39256" style="fill: #4c72b0; stroke: #4c72b0"/>
     <use xlink:href="#mde4517765f" x="134.609351" y="240.711577" style="fill: #4c72b0; stroke: #4c72b0"/>
     <use xlink:href="#mde4517765f" x="134.609351" y="152.475666" style="fill: #4c72b0; stroke: #4c72b0"/>
     <use xlink:href="#mde4517765f" x="134.609351" y="156.546921" style="fill: #4c72b0; stroke: #4c72b0"/>
     <use xlink:href="#mde4517765f" x="134.914803" y="249.132471" style="fill: #4c72b0; stroke: #4c72b0"/>
     <use xlink:href="#mde4517765f" x="136.127808" y="118.036741" style="fill: #4c72b0; stroke: #4c72b0"/>
     <use xlink:href="#mde4517765f" x="136.127808" y="157.883785" style="fill: #4c72b0; stroke: #4c72b0"/>
     <use xlink:href="#mde4517765f" x="136.428884" y="155.855812" style="fill: #4c72b0; stroke: #4c72b0"/>
     <use xlink:href="#mde4517765f" x="137.02846" y="160.688797" style="fill: #4c72b0; stroke: #4c72b0"/>
     <use xlink:href="#mde4517765f" x="137.32697" y="122.030109" style="fill: #4c72b0; stroke: #4c72b0"/>
     <use xlink:href="#mde4517765f" x="138.217445" y="133.217252" style="fill: #4c72b0; stroke: #4c72b0"/>
     <use xlink:href="#mde4517765f" x="139.685003" y="204.454227" style="fill: #4c72b0; stroke: #4c72b0"/>
     <use xlink:href="#mde4517765f" x="139.685003" y="312.607677" style="fill: #4c72b0; stroke: #4c72b0"/>
     <use xlink:href="#mde4517765f" x="140.266334" y="362.975886" style="fill: #4c72b0; stroke: #4c72b0"/>
     <use xlink:href="#mde4517765f" x="140.555798" y="212.964917" style="fill: #4c72b0; stroke: #4c72b0"/>
     <use xlink:href="#mde4517765f" x="140.844467" y="318.437026" style="fill: #4c72b0; stroke: #4c72b0"/>
     <use xlink:href="#mde4517765f" x="141.705746" y="362.975886" style="fill: #4c72b0; stroke: #4c72b0"/>
     <use xlink:href="#mde4517765f" x="142.843244" y="362.975886" style="fill: #4c72b0; stroke: #4c72b0"/>
     <use xlink:href="#mde4517765f" x="143.125705" y="362.975886" style="fill: #4c72b0; stroke: #4c72b0"/>
     <use xlink:href="#mde4517765f" x="143.407409" y="152.564205" style="fill: #4c72b0; stroke: #4c72b0"/>
     <use xlink:href="#mde4517765f" x="143.407409" y="362.975886" style="fill: #4c72b0; stroke: #4c72b0"/>
     <use xlink:href="#mde4517765f" x="145.358467" y="117.434042" style="fill: #4c72b0; stroke: #4c72b0"/>
     <use xlink:href="#mde4517765f" x="147.273958" y="110.00638" style="fill: #4c72b0; stroke: #4c72b0"/>
     <use xlink:href="#mde4517765f" x="147.273958" y="295.853136" style="fill: #4c72b0; stroke: #4c72b0"/>
     <use xlink:href="#mde4517765f" x="147.544771" y="98.489428" style="fill: #4c72b0; stroke: #4c72b0"/>
     <use xlink:href="#mde4517765f" x="149.155153" y="362.975886" style="fill: #4c72b0; stroke: #4c72b0"/>
     <use xlink:href="#mde4517765f" x="149.421167" y="98.550929" style="fill: #4c72b0; stroke: #4c72b0"/>
     <use xlink:href="#mde4517765f" x="149.686509" y="178.450198" style="fill: #4c72b0; stroke: #4c72b0"/>
     <use xlink:href="#mde4517765f" x="149.686509" y="80.308274" style="fill: #4c72b0; stroke: #4c72b0"/>
     <use xlink:href="#mde4517765f" x="149.951183" y="280.664135" style="fill: #4c72b0; stroke: #4c72b0"/>
     <use xlink:href="#mde4517765f" x="150.215192" y="98.378853" style="fill: #4c72b0; stroke: #4c72b0"/>
     <use xlink:href="#mde4517765f" x="151.785463" y="209.511077" style="fill: #4c72b0; stroke: #4c72b0"/>
     <use xlink:href="#mde4517765f" x="153.076332" y="155.185751" style="fill: #4c72b0; stroke: #4c72b0"/>
     <use xlink:href="#mde4517765f" x="155.109294" y="362.975886" style="fill: #4c72b0; stroke: #4c72b0"/>
     <use xlink:href="#mde4517765f" x="155.36067" y="307.297796" style="fill: #4c72b0; stroke: #4c72b0"/>
     <use xlink:href="#mde4517765f" x="155.861627" y="100.430214" style="fill: #4c72b0; stroke: #4c72b0"/>
     <use xlink:href="#mde4517765f" x="157.350323" y="243.898216" style="fill: #4c72b0; stroke: #4c72b0"/>
     <use xlink:href="#mde4517765f" x="157.841905" y="139.769271" style="fill: #4c72b0; stroke: #4c72b0"/>
     <use xlink:href="#mde4517765f" x="158.818223" y="99.891132" style="fill: #4c72b0; stroke: #4c72b0"/>
     <use xlink:href="#mde4517765f" x="159.303" y="106.135977" style="fill: #4c72b0; stroke: #4c72b0"/>
     <use xlink:href="#mde4517765f" x="159.544553" y="254.162108" style="fill: #4c72b0; stroke: #4c72b0"/>
     <use xlink:href="#mde4517765f" x="161.220051" y="82.339158" style="fill: #4c72b0; stroke: #4c72b0"/>
     <use xlink:href="#mde4517765f" x="161.693898" y="277.361319" style="fill: #4c72b0; stroke: #4c72b0"/>
     <use xlink:href="#mde4517765f" x="165.409659" y="193.242565" style="fill: #4c72b0; stroke: #4c72b0"/>
     <use xlink:href="#mde4517765f" x="166.091969" y="168.780081" style="fill: #4c72b0; stroke: #4c72b0"/>
     <use xlink:href="#mde4517765f" x="166.994878" y="85.122242" style="fill: #4c72b0; stroke: #4c72b0"/>
     <use xlink:href="#mde4517765f" x="167.219398" y="129.752613" style="fill: #4c72b0; stroke: #4c72b0"/>
     <use xlink:href="#mde4517765f" x="168.112712" y="259.714853" style="fill: #4c72b0; stroke: #4c72b0"/>
     <use xlink:href="#mde4517765f" x="168.777749" y="144.046295" style="fill: #4c72b0; stroke: #4c72b0"/>
     <use xlink:href="#mde4517765f" x="169.438602" y="113.229622" style="fill: #4c72b0; stroke: #4c72b0"/>
     <use xlink:href="#mde4517765f" x="172.468793" y="83.847111" style="fill: #4c72b0; stroke: #4c72b0"/>
     <use xlink:href="#mde4517765f" x="176.240599" y="92.11002" style="fill: #4c72b0; stroke: #4c72b0"/>
     <use xlink:href="#mde4517765f" x="178.076915" y="110.223314" style="fill: #4c72b0; stroke: #4c72b0"/>
     <use xlink:href="#mde4517765f" x="178.681957" y="72.737268" style="fill: #4c72b0; stroke: #4c72b0"/>
     <use xlink:href="#mde4517765f" x="184.738164" y="174.940246" style="fill: #4c72b0; stroke: #4c72b0"/>
     <use xlink:href="#mde4517765f" x="185.117156" y="102.403762" style="fill: #4c72b0; stroke: #4c72b0"/>
     <use xlink:href="#mde4517765f" x="186.805904" y="102.119839" style="fill: #4c72b0; stroke: #4c72b0"/>
     <use xlink:href="#mde4517765f" x="186.991879" y="173.526125" style="fill: #4c72b0; stroke: #4c72b0"/>
     <use xlink:href="#mde4517765f" x="187.732501" y="97.66862" style="fill: #4c72b0; stroke: #4c72b0"/>
     <use xlink:href="#mde4517765f" x="187.916844" y="145.346112" style="fill: #4c72b0; stroke: #4c72b0"/>
     <use xlink:href="#mde4517765f" x="190.823177" y="99.005044" style="fill: #4c72b0; stroke: #4c72b0"/>
     <use xlink:href="#mde4517765f" x="192.95136" y="134.398993" style="fill: #4c72b0; stroke: #4c72b0"/>
     <use xlink:href="#mde4517765f" x="195.723502" y="96.959033" style="fill: #4c72b0; stroke: #4c72b0"/>
     <use xlink:href="#mde4517765f" x="196.575009" y="84.937093" style="fill: #4c72b0; stroke: #4c72b0"/>
     <use xlink:href="#mde4517765f" x="197.08262" y="112.731773" style="fill: #4c72b0; stroke: #4c72b0"/>
     <use xlink:href="#mde4517765f" x="201.8671" y="144.634904" style="fill: #4c72b0; stroke: #4c72b0"/>
     <use xlink:href="#mde4517765f" x="209.336742" y="88.483769" style="fill: #4c72b0; stroke: #4c72b0"/>
     <use xlink:href="#mde4517765f" x="211.713107" y="86.007407" style="fill: #4c72b0; stroke: #4c72b0"/>
     <use xlink:href="#mde4517765f" x="213.605098" y="127.824592" style="fill: #4c72b0; stroke: #4c72b0"/>
     <use xlink:href="#mde4517765f" x="214.036915" y="79.847756" style="fill: #4c72b0; stroke: #4c72b0"/>
     <use xlink:href="#mde4517765f" x="216.731304" y="313.71656" style="fill: #4c72b0; stroke: #4c72b0"/>
     <use xlink:href="#mde4517765f" x="217.706812" y="76.548761" style="fill: #4c72b0; stroke: #4c72b0"/>
     <use xlink:href="#mde4517765f" x="230.613307" y="78.4933" style="fill: #4c72b0; stroke: #4c72b0"/>
     <use xlink:href="#mde4517765f" x="242.106502" y="100.961314" style="fill: #4c72b0; stroke: #4c72b0"/>
     <use xlink:href="#mde4517765f" x="245.461409" y="84.501003" style="fill: #4c72b0; stroke: #4c72b0"/>
     <use xlink:href="#mde4517765f" x="247.047084" y="79.044519" style="fill: #4c72b0; stroke: #4c72b0"/>
     <use xlink:href="#mde4517765f" x="258.374618" y="89.302268" style="fill: #4c72b0; stroke: #4c72b0"/>
     <use xlink:href="#mde4517765f" x="271.880209" y="87.471044" style="fill: #4c72b0; stroke: #4c72b0"/>
     <use xlink:href="#mde4517765f" x="282.282067" y="80.456211" style="fill: #4c72b0; stroke: #4c72b0"/>
     <use xlink:href="#mde4517765f" x="305.481085" y="81.395266" style="fill: #4c72b0; stroke: #4c72b0"/>
     <use xlink:href="#mde4517765f" x="320.845845" y="91.941487" style="fill: #4c72b0; stroke: #4c72b0"/>
     <use xlink:href="#mde4517765f" x="341.453052" y="63.547926" style="fill: #4c72b0; stroke: #4c72b0"/>
     <use xlink:href="#mde4517765f" x="392.463055" y="58.139853" style="fill: #4c72b0; stroke: #4c72b0"/>
     <use xlink:href="#mde4517765f" x="402.701054" y="58.878798" style="fill: #4c72b0; stroke: #4c72b0"/>
    </g>
   </g>
   <g id="line2d_1">
    <path d="M 75.922142 263.041466 
L 282.282067 76.271036 
L 282.282067 76.271036 
" clip-path="url(#p1f01627c04)" style="fill: none; stroke-dasharray: 7.4,3.2; stroke-dashoffset: 0; stroke: #808080; stroke-width: 2"/>
   </g>
   <g id="patch_3">
    <path d="M 59.583196 378.217687 
L 59.583196 27.65625 
" style="fill: none; stroke: #262626; stroke-width: 1.25; stroke-linejoin: miter; stroke-linecap: square"/>
   </g>
   <g id="patch_4">
    <path d="M 419.04 378.217687 
L 419.04 27.65625 
" style="fill: none; stroke: #262626; stroke-width: 1.25; stroke-linejoin: miter; stroke-linecap: square"/>
   </g>
   <g id="patch_5">
    <path d="M 59.583196 378.217688 
L 419.04 378.217688 
" style="fill: none; stroke: #262626; stroke-width: 1.25; stroke-linejoin: miter; stroke-linecap: square"/>
   </g>
   <g id="patch_6">
    <path d="M 59.583196 27.65625 
L 419.04 27.65625 
" style="fill: none; stroke: #262626; stroke-width: 1.25; stroke-linejoin: miter; stroke-linecap: square"/>
   </g>
   <g id="text_10">
    <!-- n = 201, Spearman's rho = 0.54 (p&lt;0.001) -->
    <g style="fill: #1a1a1a" transform="translate(192.018557 41.678707)scale(0.12 -0.12)">
     <defs>
      <path id="ArialMT-6e" d="M 422 0 
L 422 3319 
L 928 3319 
L 928 2847 
Q 1294 3394 1984 3394 
Q 2284 3394 2536 3286 
Q 2788 3178 2913 3003 
Q 3038 2828 3088 2588 
Q 3119 2431 3119 2041 
L 3119 0 
L 2556 0 
L 2556 2019 
Q 2556 2363 2490 2533 
Q 2425 2703 2258 2804 
Q 2091 2906 1866 2906 
Q 1506 2906 1245 2678 
Q 984 2450 984 1813 
L 984 0 
L 422 0 
z
" transform="scale(0.015625)"/>
      <path id="ArialMT-3d" d="M 3381 2694 
L 356 2694 
L 356 3219 
L 3381 3219 
L 3381 2694 
z
M 3381 1303 
L 356 1303 
L 356 1828 
L 3381 1828 
L 3381 1303 
z
" transform="scale(0.015625)"/>
      <path id="ArialMT-2c" d="M 569 0 
L 569 641 
L 1209 641 
L 1209 0 
Q 1209 -353 1084 -570 
Q 959 -788 688 -906 
L 531 -666 
Q 709 -588 793 -436 
Q 878 -284 888 0 
L 569 0 
z
" transform="scale(0.015625)"/>
      <path id="ArialMT-53" d="M 288 1472 
L 859 1522 
Q 900 1178 1048 958 
Q 1197 738 1509 602 
Q 1822 466 2213 466 
Q 2559 466 2825 569 
Q 3091 672 3220 851 
Q 3350 1031 3350 1244 
Q 3350 1459 3225 1620 
Q 3100 1781 2813 1891 
Q 2628 1963 1997 2114 
Q 1366 2266 1113 2400 
Q 784 2572 623 2826 
Q 463 3081 463 3397 
Q 463 3744 659 4045 
Q 856 4347 1234 4503 
Q 1613 4659 2075 4659 
Q 2584 4659 2973 4495 
Q 3363 4331 3572 4012 
Q 3781 3694 3797 3291 
L 3216 3247 
Q 3169 3681 2898 3903 
Q 2628 4125 2100 4125 
Q 1550 4125 1298 3923 
Q 1047 3722 1047 3438 
Q 1047 3191 1225 3031 
Q 1400 2872 2139 2705 
Q 2878 2538 3153 2413 
Q 3553 2228 3743 1945 
Q 3934 1663 3934 1294 
Q 3934 928 3725 604 
Q 3516 281 3123 101 
Q 2731 -78 2241 -78 
Q 1619 -78 1198 103 
Q 778 284 539 648 
Q 300 1013 288 1472 
z
" transform="scale(0.015625)"/>
      <path id="ArialMT-70" d="M 422 -1272 
L 422 3319 
L 934 3319 
L 934 2888 
Q 1116 3141 1344 3267 
Q 1572 3394 1897 3394 
Q 2322 3394 2647 3175 
Q 2972 2956 3137 2557 
Q 3303 2159 3303 1684 
Q 3303 1175 3120 767 
Q 2938 359 2589 142 
Q 2241 -75 1856 -75 
Q 1575 -75 1351 44 
Q 1128 163 984 344 
L 984 -1272 
L 422 -1272 
z
M 931 1641 
Q 931 1000 1190 694 
Q 1450 388 1819 388 
Q 2194 388 2461 705 
Q 2728 1022 2728 1688 
Q 2728 2322 2467 2637 
Q 2206 2953 1844 2953 
Q 1484 2953 1207 2617 
Q 931 2281 931 1641 
z
" transform="scale(0.015625)"/>
      <path id="ArialMT-65" d="M 2694 1069 
L 3275 997 
Q 3138 488 2766 206 
Q 2394 -75 1816 -75 
Q 1088 -75 661 373 
Q 234 822 234 1631 
Q 234 2469 665 2931 
Q 1097 3394 1784 3394 
Q 2450 3394 2872 2941 
Q 3294 2488 3294 1666 
Q 3294 1616 3291 1516 
L 816 1516 
Q 847 969 1125 678 
Q 1403 388 1819 388 
Q 2128 388 2347 550 
Q 2566 713 2694 1069 
z
M 847 1978 
L 2700 1978 
Q 2663 2397 2488 2606 
Q 2219 2931 1791 2931 
Q 1403 2931 1139 2672 
Q 875 2413 847 1978 
z
" transform="scale(0.015625)"/>
      <path id="ArialMT-61" d="M 2588 409 
Q 2275 144 1986 34 
Q 1697 -75 1366 -75 
Q 819 -75 525 192 
Q 231 459 231 875 
Q 231 1119 342 1320 
Q 453 1522 633 1644 
Q 813 1766 1038 1828 
Q 1203 1872 1538 1913 
Q 2219 1994 2541 2106 
Q 2544 2222 2544 2253 
Q 2544 2597 2384 2738 
Q 2169 2928 1744 2928 
Q 1347 2928 1158 2789 
Q 969 2650 878 2297 
L 328 2372 
Q 403 2725 575 2942 
Q 747 3159 1072 3276 
Q 1397 3394 1825 3394 
Q 2250 3394 2515 3294 
Q 2781 3194 2906 3042 
Q 3031 2891 3081 2659 
Q 3109 2516 3109 2141 
L 3109 1391 
Q 3109 606 3145 398 
Q 3181 191 3288 0 
L 2700 0 
Q 2613 175 2588 409 
z
M 2541 1666 
Q 2234 1541 1622 1453 
Q 1275 1403 1131 1340 
Q 988 1278 909 1158 
Q 831 1038 831 891 
Q 831 666 1001 516 
Q 1172 366 1500 366 
Q 1825 366 2078 508 
Q 2331 650 2450 897 
Q 2541 1088 2541 1459 
L 2541 1666 
z
" transform="scale(0.015625)"/>
      <path id="ArialMT-72" d="M 416 0 
L 416 3319 
L 922 3319 
L 922 2816 
Q 1116 3169 1280 3281 
Q 1444 3394 1641 3394 
Q 1925 3394 2219 3213 
L 2025 2691 
Q 1819 2813 1613 2813 
Q 1428 2813 1281 2702 
Q 1134 2591 1072 2394 
Q 978 2094 978 1738 
L 978 0 
L 416 0 
z
" transform="scale(0.015625)"/>
      <path id="ArialMT-6d" d="M 422 0 
L 422 3319 
L 925 3319 
L 925 2853 
Q 1081 3097 1340 3245 
Q 1600 3394 1931 3394 
Q 2300 3394 2536 3241 
Q 2772 3088 2869 2813 
Q 3263 3394 3894 3394 
Q 4388 3394 4653 3120 
Q 4919 2847 4919 2278 
L 4919 0 
L 4359 0 
L 4359 2091 
Q 4359 2428 4304 2576 
Q 4250 2725 4106 2815 
Q 3963 2906 3769 2906 
Q 3419 2906 3187 2673 
Q 2956 2441 2956 1928 
L 2956 0 
L 2394 0 
L 2394 2156 
Q 2394 2531 2256 2718 
Q 2119 2906 1806 2906 
Q 1569 2906 1367 2781 
Q 1166 2656 1075 2415 
Q 984 2175 984 1722 
L 984 0 
L 422 0 
z
" transform="scale(0.015625)"/>
      <path id="ArialMT-27" d="M 425 2959 
L 281 3816 
L 281 4581 
L 922 4581 
L 922 3816 
L 772 2959 
L 425 2959 
z
" transform="scale(0.015625)"/>
      <path id="ArialMT-73" d="M 197 991 
L 753 1078 
Q 800 744 1014 566 
Q 1228 388 1613 388 
Q 2000 388 2187 545 
Q 2375 703 2375 916 
Q 2375 1106 2209 1216 
Q 2094 1291 1634 1406 
Q 1016 1563 777 1677 
Q 538 1791 414 1992 
Q 291 2194 291 2438 
Q 291 2659 392 2848 
Q 494 3038 669 3163 
Q 800 3259 1026 3326 
Q 1253 3394 1513 3394 
Q 1903 3394 2198 3281 
Q 2494 3169 2634 2976 
Q 2775 2784 2828 2463 
L 2278 2388 
Q 2241 2644 2061 2787 
Q 1881 2931 1553 2931 
Q 1166 2931 1000 2803 
Q 834 2675 834 2503 
Q 834 2394 903 2306 
Q 972 2216 1119 2156 
Q 1203 2125 1616 2013 
Q 2213 1853 2448 1751 
Q 2684 1650 2818 1456 
Q 2953 1263 2953 975 
Q 2953 694 2789 445 
Q 2625 197 2315 61 
Q 2006 -75 1616 -75 
Q 969 -75 630 194 
Q 291 463 197 991 
z
" transform="scale(0.015625)"/>
      <path id="ArialMT-68" d="M 422 0 
L 422 4581 
L 984 4581 
L 984 2938 
Q 1378 3394 1978 3394 
Q 2347 3394 2619 3248 
Q 2891 3103 3008 2847 
Q 3125 2591 3125 2103 
L 3125 0 
L 2563 0 
L 2563 2103 
Q 2563 2525 2380 2717 
Q 2197 2909 1863 2909 
Q 1613 2909 1392 2779 
Q 1172 2650 1078 2428 
Q 984 2206 984 1816 
L 984 0 
L 422 0 
z
" transform="scale(0.015625)"/>
      <path id="ArialMT-6f" d="M 213 1659 
Q 213 2581 725 3025 
Q 1153 3394 1769 3394 
Q 2453 3394 2887 2945 
Q 3322 2497 3322 1706 
Q 3322 1066 3130 698 
Q 2938 331 2570 128 
Q 2203 -75 1769 -75 
Q 1072 -75 642 372 
Q 213 819 213 1659 
z
M 791 1659 
Q 791 1022 1069 705 
Q 1347 388 1769 388 
Q 2188 388 2466 706 
Q 2744 1025 2744 1678 
Q 2744 2294 2464 2611 
Q 2184 2928 1769 2928 
Q 1347 2928 1069 2612 
Q 791 2297 791 1659 
z
" transform="scale(0.015625)"/>
      <path id="ArialMT-2e" d="M 581 0 
L 581 641 
L 1222 641 
L 1222 0 
L 581 0 
z
" transform="scale(0.015625)"/>
      <path id="ArialMT-28" d="M 1497 -1347 
Q 1031 -759 709 28 
Q 388 816 388 1659 
Q 388 2403 628 3084 
Q 909 3875 1497 4659 
L 1900 4659 
Q 1522 4009 1400 3731 
Q 1209 3300 1100 2831 
Q 966 2247 966 1656 
Q 966 153 1900 -1347 
L 1497 -1347 
z
" transform="scale(0.015625)"/>
      <path id="ArialMT-3c" d="M 350 2003 
L 350 2528 
L 3384 3809 
L 3384 3250 
L 978 2263 
L 3384 1266 
L 3384 706 
L 350 2003 
z
" transform="scale(0.015625)"/>
      <path id="ArialMT-29" d="M 791 -1347 
L 388 -1347 
Q 1322 153 1322 1656 
Q 1322 2244 1188 2822 
Q 1081 3291 891 3722 
Q 769 4003 388 4659 
L 791 4659 
Q 1378 3875 1659 3084 
Q 1900 2403 1900 1659 
Q 1900 816 1576 28 
Q 1253 -759 791 -1347 
z
" transform="scale(0.015625)"/>
     </defs>
     <use xlink:href="#ArialMT-6e"/>
     <use xlink:href="#ArialMT-20" x="55.615234"/>
     <use xlink:href="#ArialMT-3d" x="83.398438"/>
     <use xlink:href="#ArialMT-20" x="141.796875"/>
     <use xlink:href="#ArialMT-32" x="169.580078"/>
     <use xlink:href="#ArialMT-30" x="225.195312"/>
     <use xlink:href="#ArialMT-31" x="280.810547"/>
     <use xlink:href="#ArialMT-2c" x="336.425781"/>
     <use xlink:href="#ArialMT-20" x="364.208984"/>
     <use xlink:href="#ArialMT-53" x="391.992188"/>
     <use xlink:href="#ArialMT-70" x="458.691406"/>
     <use xlink:href="#ArialMT-65" x="514.306641"/>
     <use xlink:href="#ArialMT-61" x="569.921875"/>
     <use xlink:href="#ArialMT-72" x="625.537109"/>
     <use xlink:href="#ArialMT-6d" x="658.837891"/>
     <use xlink:href="#ArialMT-61" x="742.138672"/>
     <use xlink:href="#ArialMT-6e" x="797.753906"/>
     <use xlink:href="#ArialMT-27" x="853.369141"/>
     <use xlink:href="#ArialMT-73" x="872.460938"/>
     <use xlink:href="#ArialMT-20" x="922.460938"/>
     <use xlink:href="#ArialMT-72" x="950.244141"/>
     <use xlink:href="#ArialMT-68" x="983.544922"/>
     <use xlink:href="#ArialMT-6f" x="1039.160156"/>
     <use xlink:href="#ArialMT-20" x="1094.775391"/>
     <use xlink:href="#ArialMT-3d" x="1122.558594"/>
     <use xlink:href="#ArialMT-20" x="1180.957031"/>
     <use xlink:href="#ArialMT-30" x="1208.740234"/>
     <use xlink:href="#ArialMT-2e" x="1264.355469"/>
     <use xlink:href="#ArialMT-35" x="1292.138672"/>
     <use xlink:href="#ArialMT-34" x="1347.753906"/>
     <use xlink:href="#ArialMT-20" x="1403.369141"/>
     <use xlink:href="#ArialMT-28" x="1431.152344"/>
     <use xlink:href="#ArialMT-70" x="1464.453125"/>
     <use xlink:href="#ArialMT-3c" x="1520.068359"/>
     <use xlink:href="#ArialMT-30" x="1578.466797"/>
     <use xlink:href="#ArialMT-2e" x="1634.082031"/>
     <use xlink:href="#ArialMT-30" x="1661.865234"/>
     <use xlink:href="#ArialMT-30" x="1717.480469"/>
     <use xlink:href="#ArialMT-31" x="1773.095703"/>
     <use xlink:href="#ArialMT-29" x="1828.710938"/>
    </g>
   </g>
   <g id="text_11">
    <!-- Correlation of liquied biopsies and LDH -->
    <g style="fill: #262626" transform="translate(135.258473 21.65625)scale(0.12 -0.12)">
     <defs>
      <path id="ArialMT-43" d="M 3763 1606 
L 4369 1453 
Q 4178 706 3683 314 
Q 3188 -78 2472 -78 
Q 1731 -78 1267 223 
Q 803 525 561 1097 
Q 319 1669 319 2325 
Q 319 3041 592 3573 
Q 866 4106 1370 4382 
Q 1875 4659 2481 4659 
Q 3169 4659 3637 4309 
Q 4106 3959 4291 3325 
L 3694 3184 
Q 3534 3684 3231 3912 
Q 2928 4141 2469 4141 
Q 1941 4141 1586 3887 
Q 1231 3634 1087 3207 
Q 944 2781 944 2328 
Q 944 1744 1114 1308 
Q 1284 872 1643 656 
Q 2003 441 2422 441 
Q 2931 441 3284 734 
Q 3638 1028 3763 1606 
z
" transform="scale(0.015625)"/>
      <path id="ArialMT-66" d="M 556 0 
L 556 2881 
L 59 2881 
L 59 3319 
L 556 3319 
L 556 3672 
Q 556 4006 616 4169 
Q 697 4388 901 4523 
Q 1106 4659 1475 4659 
Q 1713 4659 2000 4603 
L 1916 4113 
Q 1741 4144 1584 4144 
Q 1328 4144 1222 4034 
Q 1116 3925 1116 3625 
L 1116 3319 
L 1763 3319 
L 1763 2881 
L 1116 2881 
L 1116 0 
L 556 0 
z
" transform="scale(0.015625)"/>
      <path id="ArialMT-71" d="M 2538 -1272 
L 2538 353 
Q 2406 169 2170 47 
Q 1934 -75 1669 -75 
Q 1078 -75 651 397 
Q 225 869 225 1691 
Q 225 2191 398 2587 
Q 572 2984 901 3189 
Q 1231 3394 1625 3394 
Q 2241 3394 2594 2875 
L 2594 3319 
L 3100 3319 
L 3100 -1272 
L 2538 -1272 
z
M 803 1669 
Q 803 1028 1072 708 
Q 1341 388 1716 388 
Q 2075 388 2334 692 
Q 2594 997 2594 1619 
Q 2594 2281 2320 2615 
Q 2047 2950 1678 2950 
Q 1313 2950 1058 2639 
Q 803 2328 803 1669 
z
" transform="scale(0.015625)"/>
      <path id="ArialMT-64" d="M 2575 0 
L 2575 419 
Q 2259 -75 1647 -75 
Q 1250 -75 917 144 
Q 584 363 401 755 
Q 219 1147 219 1656 
Q 219 2153 384 2558 
Q 550 2963 881 3178 
Q 1213 3394 1622 3394 
Q 1922 3394 2156 3267 
Q 2391 3141 2538 2938 
L 2538 4581 
L 3097 4581 
L 3097 0 
L 2575 0 
z
M 797 1656 
Q 797 1019 1065 703 
Q 1334 388 1700 388 
Q 2069 388 2326 689 
Q 2584 991 2584 1609 
Q 2584 2291 2321 2609 
Q 2059 2928 1675 2928 
Q 1300 2928 1048 2622 
Q 797 2316 797 1656 
z
" transform="scale(0.015625)"/>
      <path id="ArialMT-62" d="M 941 0 
L 419 0 
L 419 4581 
L 981 4581 
L 981 2947 
Q 1338 3394 1891 3394 
Q 2197 3394 2470 3270 
Q 2744 3147 2920 2923 
Q 3097 2700 3197 2384 
Q 3297 2069 3297 1709 
Q 3297 856 2875 390 
Q 2453 -75 1863 -75 
Q 1275 -75 941 416 
L 941 0 
z
M 934 1684 
Q 934 1088 1097 822 
Q 1363 388 1816 388 
Q 2184 388 2453 708 
Q 2722 1028 2722 1663 
Q 2722 2313 2464 2622 
Q 2206 2931 1841 2931 
Q 1472 2931 1203 2611 
Q 934 2291 934 1684 
z
" transform="scale(0.015625)"/>
     </defs>
     <use xlink:href="#ArialMT-43"/>
     <use xlink:href="#ArialMT-6f" x="72.216797"/>
     <use xlink:href="#ArialMT-72" x="127.832031"/>
     <use xlink:href="#ArialMT-72" x="161.132812"/>
     <use xlink:href="#ArialMT-65" x="194.433594"/>
     <use xlink:href="#ArialMT-6c" x="250.048828"/>
     <use xlink:href="#ArialMT-61" x="272.265625"/>
     <use xlink:href="#ArialMT-74" x="327.880859"/>
     <use xlink:href="#ArialMT-69" x="355.664062"/>
     <use xlink:href="#ArialMT-6f" x="377.880859"/>
     <use xlink:href="#ArialMT-6e" x="433.496094"/>
     <use xlink:href="#ArialMT-20" x="489.111328"/>
     <use xlink:href="#ArialMT-6f" x="516.894531"/>
     <use xlink:href="#ArialMT-66" x="572.509766"/>
     <use xlink:href="#ArialMT-20" x="600.292969"/>
     <use xlink:href="#ArialMT-6c" x="628.076172"/>
     <use xlink:href="#ArialMT-69" x="650.292969"/>
     <use xlink:href="#ArialMT-71" x="672.509766"/>
     <use xlink:href="#ArialMT-75" x="728.125"/>
     <use xlink:href="#ArialMT-69" x="783.740234"/>
     <use xlink:href="#ArialMT-65" x="805.957031"/>
     <use xlink:href="#ArialMT-64" x="861.572266"/>
     <use xlink:href="#ArialMT-20" x="917.1875"/>
     <use xlink:href="#ArialMT-62" x="944.970703"/>
     <use xlink:href="#ArialMT-69" x="1000.585938"/>
     <use xlink:href="#ArialMT-6f" x="1022.802734"/>
     <use xlink:href="#ArialMT-70" x="1078.417969"/>
     <use xlink:href="#ArialMT-73" x="1134.033203"/>
     <use xlink:href="#ArialMT-69" x="1184.033203"/>
     <use xlink:href="#ArialMT-65" x="1206.25"/>
     <use xlink:href="#ArialMT-73" x="1261.865234"/>
     <use xlink:href="#ArialMT-20" x="1311.865234"/>
     <use xlink:href="#ArialMT-61" x="1339.648438"/>
     <use xlink:href="#ArialMT-6e" x="1395.263672"/>
     <use xlink:href="#ArialMT-64" x="1450.878906"/>
     <use xlink:href="#ArialMT-20" x="1506.494141"/>
     <use xlink:href="#ArialMT-4c" x="1534.277344"/>
     <use xlink:href="#ArialMT-44" x="1589.892578"/>
     <use xlink:href="#ArialMT-48" x="1662.109375"/>
    </g>
   </g>
  </g>
 </g>
 <defs>
  <clipPath id="p1f01627c04">
   <rect x="59.583196" y="27.65625" width="359.456804" height="350.561438"/>
  </clipPath>
 </defs>
</svg>
