<?xml version="1.0" encoding="utf-8" standalone="no"?>
<!DOCTYPE svg PUBLIC "-//W3C//DTD SVG 1.1//EN"
  "http://www.w3.org/Graphics/SVG/1.1/DTD/svg11.dtd">
<svg xmlns:xlink="http://www.w3.org/1999/xlink" width="510.23622pt" height="379.84252pt" viewBox="0 0 510.23622 379.84252" xmlns="http://www.w3.org/2000/svg" version="1.1">
 <metadata>
  <rdf:RDF xmlns:dc="http://purl.org/dc/elements/1.1/" xmlns:cc="http://creativecommons.org/ns#" xmlns:rdf="http://www.w3.org/1999/02/22-rdf-syntax-ns#">
   <cc:Work>
    <dc:type rdf:resource="http://purl.org/dc/dcmitype/StillImage"/>
    <dc:date>2024-07-27T10:14:22.921500</dc:date>
    <dc:format>image/svg+xml</dc:format>
    <dc:creator>
     <cc:Agent>
      <dc:title>Matplotlib v3.5.1, https://matplotlib.org/</dc:title>
     </cc:Agent>
    </dc:creator>
   </cc:Work>
  </rdf:RDF>
 </metadata>
 <defs>
  <style type="text/css">*{stroke-linejoin: round; stroke-linecap: butt}</style>
 </defs>
 <g id="figure_1">
  <g id="patch_1">
   <path d="M 0 379.84252 
L 510.23622 379.84252 
L 510.23622 0 
L 0 0 
z
" style="fill: #ffffff"/>
  </g>
  <g id="axes_1">
   <g id="patch_2">
    <path d="M 93.71577 209.45052 
L 499.43622 209.45052 
L 499.43622 25.92 
L 93.71577 25.92 
z
" style="fill: #ffffff"/>
   </g>
   <g id="matplotlib.axis_1">
    <g id="xtick_1">
     <g id="line2d_1">
      <defs>
       <path id="mf910637f65" d="M 0 0 
L 0 3.5 
" style="stroke: #000000; stroke-width: 0.8"/>
      </defs>
      <g>
       <use xlink:href="#mf910637f65" x="112.157608" y="209.45052" style="stroke: #000000; stroke-width: 0.8"/>
      </g>
     </g>
     <g id="text_1">
      <!-- 0 -->
      <g transform="translate(108.976358 224.048957)scale(0.1 -0.1)">
       <defs>
        <path id="DejaVuSans-30" d="M 2034 4250 
Q 1547 4250 1301 3770 
Q 1056 3291 1056 2328 
Q 1056 1369 1301 889 
Q 1547 409 2034 409 
Q 2525 409 2770 889 
Q 3016 1369 3016 2328 
Q 3016 3291 2770 3770 
Q 2525 4250 2034 4250 
z
M 2034 4750 
Q 2819 4750 3233 4129 
Q 3647 3509 3647 2328 
Q 3647 1150 3233 529 
Q 2819 -91 2034 -91 
Q 1250 -91 836 529 
Q 422 1150 422 2328 
Q 422 3509 836 4129 
Q 1250 4750 2034 4750 
z
" transform="scale(0.015625)"/>
       </defs>
       <use xlink:href="#DejaVuSans-30"/>
      </g>
     </g>
    </g>
    <g id="xtick_2">
     <g id="line2d_2">
      <g>
       <use xlink:href="#mf910637f65" x="174.199118" y="209.45052" style="stroke: #000000; stroke-width: 0.8"/>
      </g>
     </g>
     <g id="text_2">
      <!-- 200 -->
      <g transform="translate(164.655368 224.048957)scale(0.1 -0.1)">
       <defs>
        <path id="DejaVuSans-32" d="M 1228 531 
L 3431 531 
L 3431 0 
L 469 0 
L 469 531 
Q 828 903 1448 1529 
Q 2069 2156 2228 2338 
Q 2531 2678 2651 2914 
Q 2772 3150 2772 3378 
Q 2772 3750 2511 3984 
Q 2250 4219 1831 4219 
Q 1534 4219 1204 4116 
Q 875 4013 500 3803 
L 500 4441 
Q 881 4594 1212 4672 
Q 1544 4750 1819 4750 
Q 2544 4750 2975 4387 
Q 3406 4025 3406 3419 
Q 3406 3131 3298 2873 
Q 3191 2616 2906 2266 
Q 2828 2175 2409 1742 
Q 1991 1309 1228 531 
z
" transform="scale(0.015625)"/>
       </defs>
       <use xlink:href="#DejaVuSans-32"/>
       <use xlink:href="#DejaVuSans-30" x="63.623047"/>
       <use xlink:href="#DejaVuSans-30" x="127.246094"/>
      </g>
     </g>
    </g>
    <g id="xtick_3">
     <g id="line2d_3">
      <g>
       <use xlink:href="#mf910637f65" x="236.240627" y="209.45052" style="stroke: #000000; stroke-width: 0.8"/>
      </g>
     </g>
     <g id="text_3">
      <!-- 400 -->
      <g transform="translate(226.696877 224.048957)scale(0.1 -0.1)">
       <defs>
        <path id="DejaVuSans-34" d="M 2419 4116 
L 825 1625 
L 2419 1625 
L 2419 4116 
z
M 2253 4666 
L 3047 4666 
L 3047 1625 
L 3713 1625 
L 3713 1100 
L 3047 1100 
L 3047 0 
L 2419 0 
L 2419 1100 
L 313 1100 
L 313 1709 
L 2253 4666 
z
" transform="scale(0.015625)"/>
       </defs>
       <use xlink:href="#DejaVuSans-34"/>
       <use xlink:href="#DejaVuSans-30" x="63.623047"/>
       <use xlink:href="#DejaVuSans-30" x="127.246094"/>
      </g>
     </g>
    </g>
    <g id="xtick_4">
     <g id="line2d_4">
      <g>
       <use xlink:href="#mf910637f65" x="298.282136" y="209.45052" style="stroke: #000000; stroke-width: 0.8"/>
      </g>
     </g>
     <g id="text_4">
      <!-- 600 -->
      <g transform="translate(288.738386 224.048957)scale(0.1 -0.1)">
       <defs>
        <path id="DejaVuSans-36" d="M 2113 2584 
Q 1688 2584 1439 2293 
Q 1191 2003 1191 1497 
Q 1191 994 1439 701 
Q 1688 409 2113 409 
Q 2538 409 2786 701 
Q 3034 994 3034 1497 
Q 3034 2003 2786 2293 
Q 2538 2584 2113 2584 
z
M 3366 4563 
L 3366 3988 
Q 3128 4100 2886 4159 
Q 2644 4219 2406 4219 
Q 1781 4219 1451 3797 
Q 1122 3375 1075 2522 
Q 1259 2794 1537 2939 
Q 1816 3084 2150 3084 
Q 2853 3084 3261 2657 
Q 3669 2231 3669 1497 
Q 3669 778 3244 343 
Q 2819 -91 2113 -91 
Q 1303 -91 875 529 
Q 447 1150 447 2328 
Q 447 3434 972 4092 
Q 1497 4750 2381 4750 
Q 2619 4750 2861 4703 
Q 3103 4656 3366 4563 
z
" transform="scale(0.015625)"/>
       </defs>
       <use xlink:href="#DejaVuSans-36"/>
       <use xlink:href="#DejaVuSans-30" x="63.623047"/>
       <use xlink:href="#DejaVuSans-30" x="127.246094"/>
      </g>
     </g>
    </g>
    <g id="xtick_5">
     <g id="line2d_5">
      <g>
       <use xlink:href="#mf910637f65" x="360.323646" y="209.45052" style="stroke: #000000; stroke-width: 0.8"/>
      </g>
     </g>
     <g id="text_5">
      <!-- 800 -->
      <g transform="translate(350.779896 224.048957)scale(0.1 -0.1)">
       <defs>
        <path id="DejaVuSans-38" d="M 2034 2216 
Q 1584 2216 1326 1975 
Q 1069 1734 1069 1313 
Q 1069 891 1326 650 
Q 1584 409 2034 409 
Q 2484 409 2743 651 
Q 3003 894 3003 1313 
Q 3003 1734 2745 1975 
Q 2488 2216 2034 2216 
z
M 1403 2484 
Q 997 2584 770 2862 
Q 544 3141 544 3541 
Q 544 4100 942 4425 
Q 1341 4750 2034 4750 
Q 2731 4750 3128 4425 
Q 3525 4100 3525 3541 
Q 3525 3141 3298 2862 
Q 3072 2584 2669 2484 
Q 3125 2378 3379 2068 
Q 3634 1759 3634 1313 
Q 3634 634 3220 271 
Q 2806 -91 2034 -91 
Q 1263 -91 848 271 
Q 434 634 434 1313 
Q 434 1759 690 2068 
Q 947 2378 1403 2484 
z
M 1172 3481 
Q 1172 3119 1398 2916 
Q 1625 2713 2034 2713 
Q 2441 2713 2670 2916 
Q 2900 3119 2900 3481 
Q 2900 3844 2670 4047 
Q 2441 4250 2034 4250 
Q 1625 4250 1398 4047 
Q 1172 3844 1172 3481 
z
" transform="scale(0.015625)"/>
       </defs>
       <use xlink:href="#DejaVuSans-38"/>
       <use xlink:href="#DejaVuSans-30" x="63.623047"/>
       <use xlink:href="#DejaVuSans-30" x="127.246094"/>
      </g>
     </g>
    </g>
    <g id="xtick_6">
     <g id="line2d_6">
      <g>
       <use xlink:href="#mf910637f65" x="422.365155" y="209.45052" style="stroke: #000000; stroke-width: 0.8"/>
      </g>
     </g>
     <g id="text_6">
      <!-- 1000 -->
      <g transform="translate(409.640155 224.048957)scale(0.1 -0.1)">
       <defs>
        <path id="DejaVuSans-31" d="M 794 531 
L 1825 531 
L 1825 4091 
L 703 3866 
L 703 4441 
L 1819 4666 
L 2450 4666 
L 2450 531 
L 3481 531 
L 3481 0 
L 794 0 
L 794 531 
z
" transform="scale(0.015625)"/>
       </defs>
       <use xlink:href="#DejaVuSans-31"/>
       <use xlink:href="#DejaVuSans-30" x="63.623047"/>
       <use xlink:href="#DejaVuSans-30" x="127.246094"/>
       <use xlink:href="#DejaVuSans-30" x="190.869141"/>
      </g>
     </g>
    </g>
    <g id="xtick_7">
     <g id="line2d_7">
      <g>
       <use xlink:href="#mf910637f65" x="484.406665" y="209.45052" style="stroke: #000000; stroke-width: 0.8"/>
      </g>
     </g>
     <g id="text_7">
      <!-- 1200 -->
      <g transform="translate(471.681665 224.048957)scale(0.1 -0.1)">
       <use xlink:href="#DejaVuSans-31"/>
       <use xlink:href="#DejaVuSans-32" x="63.623047"/>
       <use xlink:href="#DejaVuSans-30" x="127.246094"/>
       <use xlink:href="#DejaVuSans-30" x="190.869141"/>
      </g>
     </g>
    </g>
    <g id="text_8">
     <!-- Timeline (days) -->
     <g transform="translate(258.025995 237.727082)scale(0.1 -0.1)">
      <defs>
       <path id="DejaVuSans-54" d="M -19 4666 
L 3928 4666 
L 3928 4134 
L 2272 4134 
L 2272 0 
L 1638 0 
L 1638 4134 
L -19 4134 
L -19 4666 
z
" transform="scale(0.015625)"/>
       <path id="DejaVuSans-69" d="M 603 3500 
L 1178 3500 
L 1178 0 
L 603 0 
L 603 3500 
z
M 603 4863 
L 1178 4863 
L 1178 4134 
L 603 4134 
L 603 4863 
z
" transform="scale(0.015625)"/>
       <path id="DejaVuSans-6d" d="M 3328 2828 
Q 3544 3216 3844 3400 
Q 4144 3584 4550 3584 
Q 5097 3584 5394 3201 
Q 5691 2819 5691 2113 
L 5691 0 
L 5113 0 
L 5113 2094 
Q 5113 2597 4934 2840 
Q 4756 3084 4391 3084 
Q 3944 3084 3684 2787 
Q 3425 2491 3425 1978 
L 3425 0 
L 2847 0 
L 2847 2094 
Q 2847 2600 2669 2842 
Q 2491 3084 2119 3084 
Q 1678 3084 1418 2786 
Q 1159 2488 1159 1978 
L 1159 0 
L 581 0 
L 581 3500 
L 1159 3500 
L 1159 2956 
Q 1356 3278 1631 3431 
Q 1906 3584 2284 3584 
Q 2666 3584 2933 3390 
Q 3200 3197 3328 2828 
z
" transform="scale(0.015625)"/>
       <path id="DejaVuSans-65" d="M 3597 1894 
L 3597 1613 
L 953 1613 
Q 991 1019 1311 708 
Q 1631 397 2203 397 
Q 2534 397 2845 478 
Q 3156 559 3463 722 
L 3463 178 
Q 3153 47 2828 -22 
Q 2503 -91 2169 -91 
Q 1331 -91 842 396 
Q 353 884 353 1716 
Q 353 2575 817 3079 
Q 1281 3584 2069 3584 
Q 2775 3584 3186 3129 
Q 3597 2675 3597 1894 
z
M 3022 2063 
Q 3016 2534 2758 2815 
Q 2500 3097 2075 3097 
Q 1594 3097 1305 2825 
Q 1016 2553 972 2059 
L 3022 2063 
z
" transform="scale(0.015625)"/>
       <path id="DejaVuSans-6c" d="M 603 4863 
L 1178 4863 
L 1178 0 
L 603 0 
L 603 4863 
z
" transform="scale(0.015625)"/>
       <path id="DejaVuSans-6e" d="M 3513 2113 
L 3513 0 
L 2938 0 
L 2938 2094 
Q 2938 2591 2744 2837 
Q 2550 3084 2163 3084 
Q 1697 3084 1428 2787 
Q 1159 2491 1159 1978 
L 1159 0 
L 581 0 
L 581 3500 
L 1159 3500 
L 1159 2956 
Q 1366 3272 1645 3428 
Q 1925 3584 2291 3584 
Q 2894 3584 3203 3211 
Q 3513 2838 3513 2113 
z
" transform="scale(0.015625)"/>
       <path id="DejaVuSans-20" transform="scale(0.015625)"/>
       <path id="DejaVuSans-28" d="M 1984 4856 
Q 1566 4138 1362 3434 
Q 1159 2731 1159 2009 
Q 1159 1288 1364 580 
Q 1569 -128 1984 -844 
L 1484 -844 
Q 1016 -109 783 600 
Q 550 1309 550 2009 
Q 550 2706 781 3412 
Q 1013 4119 1484 4856 
L 1984 4856 
z
" transform="scale(0.015625)"/>
       <path id="DejaVuSans-64" d="M 2906 2969 
L 2906 4863 
L 3481 4863 
L 3481 0 
L 2906 0 
L 2906 525 
Q 2725 213 2448 61 
Q 2172 -91 1784 -91 
Q 1150 -91 751 415 
Q 353 922 353 1747 
Q 353 2572 751 3078 
Q 1150 3584 1784 3584 
Q 2172 3584 2448 3432 
Q 2725 3281 2906 2969 
z
M 947 1747 
Q 947 1113 1208 752 
Q 1469 391 1925 391 
Q 2381 391 2643 752 
Q 2906 1113 2906 1747 
Q 2906 2381 2643 2742 
Q 2381 3103 1925 3103 
Q 1469 3103 1208 2742 
Q 947 2381 947 1747 
z
" transform="scale(0.015625)"/>
       <path id="DejaVuSans-61" d="M 2194 1759 
Q 1497 1759 1228 1600 
Q 959 1441 959 1056 
Q 959 750 1161 570 
Q 1363 391 1709 391 
Q 2188 391 2477 730 
Q 2766 1069 2766 1631 
L 2766 1759 
L 2194 1759 
z
M 3341 1997 
L 3341 0 
L 2766 0 
L 2766 531 
Q 2569 213 2275 61 
Q 1981 -91 1556 -91 
Q 1019 -91 701 211 
Q 384 513 384 1019 
Q 384 1609 779 1909 
Q 1175 2209 1959 2209 
L 2766 2209 
L 2766 2266 
Q 2766 2663 2505 2880 
Q 2244 3097 1772 3097 
Q 1472 3097 1187 3025 
Q 903 2953 641 2809 
L 641 3341 
Q 956 3463 1253 3523 
Q 1550 3584 1831 3584 
Q 2591 3584 2966 3190 
Q 3341 2797 3341 1997 
z
" transform="scale(0.015625)"/>
       <path id="DejaVuSans-79" d="M 2059 -325 
Q 1816 -950 1584 -1140 
Q 1353 -1331 966 -1331 
L 506 -1331 
L 506 -850 
L 844 -850 
Q 1081 -850 1212 -737 
Q 1344 -625 1503 -206 
L 1606 56 
L 191 3500 
L 800 3500 
L 1894 763 
L 2988 3500 
L 3597 3500 
L 2059 -325 
z
" transform="scale(0.015625)"/>
       <path id="DejaVuSans-73" d="M 2834 3397 
L 2834 2853 
Q 2591 2978 2328 3040 
Q 2066 3103 1784 3103 
Q 1356 3103 1142 2972 
Q 928 2841 928 2578 
Q 928 2378 1081 2264 
Q 1234 2150 1697 2047 
L 1894 2003 
Q 2506 1872 2764 1633 
Q 3022 1394 3022 966 
Q 3022 478 2636 193 
Q 2250 -91 1575 -91 
Q 1294 -91 989 -36 
Q 684 19 347 128 
L 347 722 
Q 666 556 975 473 
Q 1284 391 1588 391 
Q 1994 391 2212 530 
Q 2431 669 2431 922 
Q 2431 1156 2273 1281 
Q 2116 1406 1581 1522 
L 1381 1569 
Q 847 1681 609 1914 
Q 372 2147 372 2553 
Q 372 3047 722 3315 
Q 1072 3584 1716 3584 
Q 2034 3584 2315 3537 
Q 2597 3491 2834 3397 
z
" transform="scale(0.015625)"/>
       <path id="DejaVuSans-29" d="M 513 4856 
L 1013 4856 
Q 1481 4119 1714 3412 
Q 1947 2706 1947 2009 
Q 1947 1309 1714 600 
Q 1481 -109 1013 -844 
L 513 -844 
Q 928 -128 1133 580 
Q 1338 1288 1338 2009 
Q 1338 2731 1133 3434 
Q 928 4138 513 4856 
z
" transform="scale(0.015625)"/>
      </defs>
      <use xlink:href="#DejaVuSans-54"/>
      <use xlink:href="#DejaVuSans-69" x="57.958984"/>
      <use xlink:href="#DejaVuSans-6d" x="85.742188"/>
      <use xlink:href="#DejaVuSans-65" x="183.154297"/>
      <use xlink:href="#DejaVuSans-6c" x="244.677734"/>
      <use xlink:href="#DejaVuSans-69" x="272.460938"/>
      <use xlink:href="#DejaVuSans-6e" x="300.244141"/>
      <use xlink:href="#DejaVuSans-65" x="363.623047"/>
      <use xlink:href="#DejaVuSans-20" x="425.146484"/>
      <use xlink:href="#DejaVuSans-28" x="456.933594"/>
      <use xlink:href="#DejaVuSans-64" x="495.947266"/>
      <use xlink:href="#DejaVuSans-61" x="559.423828"/>
      <use xlink:href="#DejaVuSans-79" x="620.703125"/>
      <use xlink:href="#DejaVuSans-73" x="679.882812"/>
      <use xlink:href="#DejaVuSans-29" x="731.982422"/>
     </g>
    </g>
   </g>
   <g id="matplotlib.axis_2">
    <g id="ytick_1">
     <g id="line2d_8">
      <defs>
       <path id="m91401951c9" d="M 0 0 
L -3.5 0 
" style="stroke: #000000; stroke-width: 0.8"/>
      </defs>
      <g>
       <use xlink:href="#m91401951c9" x="93.71577" y="209.45052" style="stroke: #000000; stroke-width: 0.8"/>
      </g>
     </g>
     <g id="text_9">
      <!-- 0.0 -->
      <g transform="translate(70.812645 213.249738)scale(0.1 -0.1)">
       <defs>
        <path id="DejaVuSans-2e" d="M 684 794 
L 1344 794 
L 1344 0 
L 684 0 
L 684 794 
z
" transform="scale(0.015625)"/>
       </defs>
       <use xlink:href="#DejaVuSans-30"/>
       <use xlink:href="#DejaVuSans-2e" x="63.623047"/>
       <use xlink:href="#DejaVuSans-30" x="95.410156"/>
      </g>
     </g>
    </g>
    <g id="ytick_2">
     <g id="line2d_9">
      <g>
       <use xlink:href="#m91401951c9" x="93.71577" y="176.081334" style="stroke: #000000; stroke-width: 0.8"/>
      </g>
     </g>
     <g id="text_10">
      <!-- 0.2 -->
      <g transform="translate(70.812645 179.880553)scale(0.1 -0.1)">
       <use xlink:href="#DejaVuSans-30"/>
       <use xlink:href="#DejaVuSans-2e" x="63.623047"/>
       <use xlink:href="#DejaVuSans-32" x="95.410156"/>
      </g>
     </g>
    </g>
    <g id="ytick_3">
     <g id="line2d_10">
      <g>
       <use xlink:href="#m91401951c9" x="93.71577" y="142.712149" style="stroke: #000000; stroke-width: 0.8"/>
      </g>
     </g>
     <g id="text_11">
      <!-- 0.4 -->
      <g transform="translate(70.812645 146.511368)scale(0.1 -0.1)">
       <use xlink:href="#DejaVuSans-30"/>
       <use xlink:href="#DejaVuSans-2e" x="63.623047"/>
       <use xlink:href="#DejaVuSans-34" x="95.410156"/>
      </g>
     </g>
    </g>
    <g id="ytick_4">
     <g id="line2d_11">
      <g>
       <use xlink:href="#m91401951c9" x="93.71577" y="109.342963" style="stroke: #000000; stroke-width: 0.8"/>
      </g>
     </g>
     <g id="text_12">
      <!-- 0.6 -->
      <g transform="translate(70.812645 113.142182)scale(0.1 -0.1)">
       <use xlink:href="#DejaVuSans-30"/>
       <use xlink:href="#DejaVuSans-2e" x="63.623047"/>
       <use xlink:href="#DejaVuSans-36" x="95.410156"/>
      </g>
     </g>
    </g>
    <g id="ytick_5">
     <g id="line2d_12">
      <g>
       <use xlink:href="#m91401951c9" x="93.71577" y="75.973778" style="stroke: #000000; stroke-width: 0.8"/>
      </g>
     </g>
     <g id="text_13">
      <!-- 0.8 -->
      <g transform="translate(70.812645 79.772997)scale(0.1 -0.1)">
       <use xlink:href="#DejaVuSans-30"/>
       <use xlink:href="#DejaVuSans-2e" x="63.623047"/>
       <use xlink:href="#DejaVuSans-38" x="95.410156"/>
      </g>
     </g>
    </g>
    <g id="ytick_6">
     <g id="line2d_13">
      <g>
       <use xlink:href="#m91401951c9" x="93.71577" y="42.604593" style="stroke: #000000; stroke-width: 0.8"/>
      </g>
     </g>
     <g id="text_14">
      <!-- 1.0 -->
      <g transform="translate(70.812645 46.403811)scale(0.1 -0.1)">
       <use xlink:href="#DejaVuSans-31"/>
       <use xlink:href="#DejaVuSans-2e" x="63.623047"/>
       <use xlink:href="#DejaVuSans-30" x="95.410156"/>
      </g>
     </g>
    </g>
    <g id="text_15">
     <!-- Survival -->
     <g transform="translate(64.732957 137.844635)rotate(-90)scale(0.1 -0.1)">
      <defs>
       <path id="DejaVuSans-53" d="M 3425 4513 
L 3425 3897 
Q 3066 4069 2747 4153 
Q 2428 4238 2131 4238 
Q 1616 4238 1336 4038 
Q 1056 3838 1056 3469 
Q 1056 3159 1242 3001 
Q 1428 2844 1947 2747 
L 2328 2669 
Q 3034 2534 3370 2195 
Q 3706 1856 3706 1288 
Q 3706 609 3251 259 
Q 2797 -91 1919 -91 
Q 1588 -91 1214 -16 
Q 841 59 441 206 
L 441 856 
Q 825 641 1194 531 
Q 1563 422 1919 422 
Q 2459 422 2753 634 
Q 3047 847 3047 1241 
Q 3047 1584 2836 1778 
Q 2625 1972 2144 2069 
L 1759 2144 
Q 1053 2284 737 2584 
Q 422 2884 422 3419 
Q 422 4038 858 4394 
Q 1294 4750 2059 4750 
Q 2388 4750 2728 4690 
Q 3069 4631 3425 4513 
z
" transform="scale(0.015625)"/>
       <path id="DejaVuSans-75" d="M 544 1381 
L 544 3500 
L 1119 3500 
L 1119 1403 
Q 1119 906 1312 657 
Q 1506 409 1894 409 
Q 2359 409 2629 706 
Q 2900 1003 2900 1516 
L 2900 3500 
L 3475 3500 
L 3475 0 
L 2900 0 
L 2900 538 
Q 2691 219 2414 64 
Q 2138 -91 1772 -91 
Q 1169 -91 856 284 
Q 544 659 544 1381 
z
M 1991 3584 
L 1991 3584 
z
" transform="scale(0.015625)"/>
       <path id="DejaVuSans-72" d="M 2631 2963 
Q 2534 3019 2420 3045 
Q 2306 3072 2169 3072 
Q 1681 3072 1420 2755 
Q 1159 2438 1159 1844 
L 1159 0 
L 581 0 
L 581 3500 
L 1159 3500 
L 1159 2956 
Q 1341 3275 1631 3429 
Q 1922 3584 2338 3584 
Q 2397 3584 2469 3576 
Q 2541 3569 2628 3553 
L 2631 2963 
z
" transform="scale(0.015625)"/>
       <path id="DejaVuSans-76" d="M 191 3500 
L 800 3500 
L 1894 563 
L 2988 3500 
L 3597 3500 
L 2284 0 
L 1503 0 
L 191 3500 
z
" transform="scale(0.015625)"/>
      </defs>
      <use xlink:href="#DejaVuSans-53"/>
      <use xlink:href="#DejaVuSans-75" x="63.476562"/>
      <use xlink:href="#DejaVuSans-72" x="126.855469"/>
      <use xlink:href="#DejaVuSans-76" x="167.96875"/>
      <use xlink:href="#DejaVuSans-69" x="227.148438"/>
      <use xlink:href="#DejaVuSans-76" x="254.931641"/>
      <use xlink:href="#DejaVuSans-61" x="314.111328"/>
      <use xlink:href="#DejaVuSans-6c" x="375.390625"/>
     </g>
    </g>
   </g>
   <g id="line2d_14">
    <defs>
     <path id="m375d7b420e" d="M -6 0 
L 6 0 
M 0 6 
L 0 -6 
" style="stroke: #d9afd7"/>
    </defs>
    <g clip-path="url(#p062fff1dc4)">
     <use xlink:href="#m375d7b420e" x="252.991835" y="129.364475" style="fill: #d9afd7; stroke: #d9afd7"/>
     <use xlink:href="#m375d7b420e" x="263.849099" y="129.364475" style="fill: #d9afd7; stroke: #d9afd7"/>
     <use xlink:href="#m375d7b420e" x="297.351514" y="133.00475" style="fill: #d9afd7; stroke: #d9afd7"/>
     <use xlink:href="#m375d7b420e" x="301.074004" y="133.00475" style="fill: #d9afd7; stroke: #d9afd7"/>
     <use xlink:href="#m375d7b420e" x="311.000646" y="137.028211" style="fill: #d9afd7; stroke: #d9afd7"/>
     <use xlink:href="#m375d7b420e" x="316.274174" y="137.028211" style="fill: #d9afd7; stroke: #d9afd7"/>
     <use xlink:href="#m375d7b420e" x="316.584382" y="137.028211" style="fill: #d9afd7; stroke: #d9afd7"/>
     <use xlink:href="#m375d7b420e" x="323.09874" y="137.028211" style="fill: #d9afd7; stroke: #d9afd7"/>
     <use xlink:href="#m375d7b420e" x="346.984721" y="142.201233" style="fill: #d9afd7; stroke: #d9afd7"/>
     <use xlink:href="#m375d7b420e" x="351.327627" y="142.201233" style="fill: #d9afd7; stroke: #d9afd7"/>
     <use xlink:href="#m375d7b420e" x="361.254269" y="142.201233" style="fill: #d9afd7; stroke: #d9afd7"/>
     <use xlink:href="#m375d7b420e" x="363.735929" y="142.201233" style="fill: #d9afd7; stroke: #d9afd7"/>
     <use xlink:href="#m375d7b420e" x="375.834023" y="149.673376" style="fill: #d9afd7; stroke: #d9afd7"/>
     <use xlink:href="#m375d7b420e" x="377.385061" y="149.673376" style="fill: #d9afd7; stroke: #d9afd7"/>
     <use xlink:href="#m375d7b420e" x="399.099589" y="149.673376" style="fill: #d9afd7; stroke: #d9afd7"/>
     <use xlink:href="#m375d7b420e" x="403.752703" y="149.673376" style="fill: #d9afd7; stroke: #d9afd7"/>
     <use xlink:href="#m375d7b420e" x="404.373118" y="149.673376" style="fill: #d9afd7; stroke: #d9afd7"/>
     <use xlink:href="#m375d7b420e" x="429.189721" y="149.673376" style="fill: #d9afd7; stroke: #d9afd7"/>
     <use xlink:href="#m375d7b420e" x="453.38591" y="149.673376" style="fill: #d9afd7; stroke: #d9afd7"/>
     <use xlink:href="#m375d7b420e" x="480.994382" y="149.673376" style="fill: #d9afd7; stroke: #d9afd7"/>
    </g>
   </g>
   <g id="line2d_15">
    <path d="M 112.157608 42.604593 
L 117.741344 42.604593 
L 117.741344 45.941511 
L 119.912797 45.941511 
L 119.912797 49.27843 
L 122.08425 49.27843 
L 122.08425 52.615348 
L 124.876118 52.615348 
L 124.876118 55.952267 
L 126.737363 55.952267 
L 126.737363 59.289185 
L 129.839438 59.289185 
L 129.839438 62.626104 
L 130.149646 62.626104 
L 130.149646 65.963022 
L 140.696703 65.963022 
L 140.696703 72.63686 
L 144.108986 72.63686 
L 144.108986 75.973778 
L 146.900853 75.973778 
L 146.900853 79.310697 
L 158.068325 79.310697 
L 158.068325 82.647615 
L 164.582684 82.647615 
L 164.582684 85.984534 
L 165.203099 85.984534 
L 165.203099 89.321452 
L 179.782853 89.321452 
L 179.782853 92.658371 
L 181.333891 92.658371 
L 181.333891 95.995289 
L 193.121778 95.995289 
L 193.121778 99.332208 
L 194.672816 99.332208 
L 194.672816 102.669126 
L 198.395306 102.669126 
L 198.395306 106.006045 
L 222.591495 106.006045 
L 222.591495 109.342963 
L 238.722287 109.342963 
L 238.722287 112.679882 
L 239.342703 112.679882 
L 239.342703 116.016801 
L 240.89374 116.016801 
L 240.89374 119.353719 
L 243.995816 119.353719 
L 243.995816 122.690638 
L 247.097891 122.690638 
L 247.097891 126.027556 
L 249.889759 126.027556 
L 249.889759 129.364475 
L 252.991835 129.364475 
L 252.991835 129.364475 
L 263.849099 129.364475 
L 263.849099 129.364475 
L 293.629023 129.364475 
L 293.629023 133.00475 
L 297.351514 133.00475 
L 297.351514 133.00475 
L 301.074004 133.00475 
L 301.074004 133.00475 
L 301.69442 133.00475 
L 301.69442 137.028211 
L 311.000646 137.028211 
L 311.000646 137.028211 
L 316.274174 137.028211 
L 316.274174 137.028211 
L 316.584382 137.028211 
L 316.584382 137.028211 
L 323.09874 137.028211 
L 323.09874 137.028211 
L 330.853929 137.028211 
L 330.853929 142.201233 
L 346.984721 142.201233 
L 346.984721 142.201233 
L 351.327627 142.201233 
L 351.327627 142.201233 
L 361.254269 142.201233 
L 361.254269 142.201233 
L 363.735929 142.201233 
L 363.735929 142.201233 
L 365.286967 142.201233 
L 365.286967 149.673376 
L 375.834023 149.673376 
L 375.834023 149.673376 
L 377.385061 149.673376 
L 377.385061 149.673376 
L 399.099589 149.673376 
L 399.099589 149.673376 
L 403.752703 149.673376 
L 403.752703 149.673376 
L 404.373118 149.673376 
L 404.373118 149.673376 
L 429.189721 149.673376 
L 429.189721 149.673376 
L 453.38591 149.673376 
L 453.38591 149.673376 
L 480.994382 149.673376 
L 480.994382 149.673376 
" clip-path="url(#p062fff1dc4)" style="fill: none; stroke: #d9afd7; stroke-width: 1.5; stroke-linecap: square"/>
   </g>
   <g id="line2d_16">
    <defs>
     <path id="made911b115" d="M -6 0 
L 6 0 
M 0 6 
L 0 -6 
" style="stroke: #69addb"/>
    </defs>
    <g clip-path="url(#p062fff1dc4)">
     <use xlink:href="#made911b115" x="332.094759" y="118.44365" style="fill: #69addb; stroke: #69addb"/>
     <use xlink:href="#made911b115" x="340.78057" y="118.44365" style="fill: #69addb; stroke: #69addb"/>
     <use xlink:href="#made911b115" x="344.192853" y="118.44365" style="fill: #69addb; stroke: #69addb"/>
     <use xlink:href="#made911b115" x="375.834023" y="118.44365" style="fill: #69addb; stroke: #69addb"/>
     <use xlink:href="#made911b115" x="381.417759" y="118.44365" style="fill: #69addb; stroke: #69addb"/>
     <use xlink:href="#made911b115" x="383.589212" y="118.44365" style="fill: #69addb; stroke: #69addb"/>
    </g>
   </g>
   <g id="line2d_17">
    <path d="M 112.157608 42.604593 
L 142.868155 42.604593 
L 142.868155 57.772404 
L 152.794797 57.772404 
L 152.794797 72.940216 
L 205.219872 72.940216 
L 205.219872 88.108027 
L 278.739061 88.108027 
L 278.739061 103.275839 
L 313.482306 103.275839 
L 313.482306 118.44365 
L 332.094759 118.44365 
L 332.094759 118.44365 
L 340.78057 118.44365 
L 340.78057 118.44365 
L 344.192853 118.44365 
L 344.192853 118.44365 
L 375.834023 118.44365 
L 375.834023 118.44365 
L 381.417759 118.44365 
L 381.417759 118.44365 
L 383.589212 118.44365 
L 383.589212 118.44365 
" clip-path="url(#p062fff1dc4)" style="fill: none; stroke: #69addb; stroke-width: 1.5; stroke-linecap: square"/>
   </g>
   <g id="patch_3">
    <path d="M 93.71577 209.45052 
L 93.71577 25.92 
" style="fill: none; stroke: #000000; stroke-width: 0.8; stroke-linejoin: miter; stroke-linecap: square"/>
   </g>
   <g id="patch_4">
    <path d="M 499.43622 209.45052 
L 499.43622 25.92 
" style="fill: none; stroke: #000000; stroke-width: 0.8; stroke-linejoin: miter; stroke-linecap: square"/>
   </g>
   <g id="patch_5">
    <path d="M 93.71577 209.45052 
L 499.43622 209.45052 
" style="fill: none; stroke: #000000; stroke-width: 0.8; stroke-linejoin: miter; stroke-linecap: square"/>
   </g>
   <g id="patch_6">
    <path d="M 93.71577 25.92 
L 499.43622 25.92 
" style="fill: none; stroke: #000000; stroke-width: 0.8; stroke-linejoin: miter; stroke-linecap: square"/>
   </g>
   <g id="text_16">
    <!-- Pall CTDNA T0 OS (n=61) -->
    <g transform="translate(220.360995 19.92)scale(0.12 -0.12)">
     <defs>
      <path id="DejaVuSans-50" d="M 1259 4147 
L 1259 2394 
L 2053 2394 
Q 2494 2394 2734 2622 
Q 2975 2850 2975 3272 
Q 2975 3691 2734 3919 
Q 2494 4147 2053 4147 
L 1259 4147 
z
M 628 4666 
L 2053 4666 
Q 2838 4666 3239 4311 
Q 3641 3956 3641 3272 
Q 3641 2581 3239 2228 
Q 2838 1875 2053 1875 
L 1259 1875 
L 1259 0 
L 628 0 
L 628 4666 
z
" transform="scale(0.015625)"/>
      <path id="DejaVuSans-43" d="M 4122 4306 
L 4122 3641 
Q 3803 3938 3442 4084 
Q 3081 4231 2675 4231 
Q 1875 4231 1450 3742 
Q 1025 3253 1025 2328 
Q 1025 1406 1450 917 
Q 1875 428 2675 428 
Q 3081 428 3442 575 
Q 3803 722 4122 1019 
L 4122 359 
Q 3791 134 3420 21 
Q 3050 -91 2638 -91 
Q 1578 -91 968 557 
Q 359 1206 359 2328 
Q 359 3453 968 4101 
Q 1578 4750 2638 4750 
Q 3056 4750 3426 4639 
Q 3797 4528 4122 4306 
z
" transform="scale(0.015625)"/>
      <path id="DejaVuSans-44" d="M 1259 4147 
L 1259 519 
L 2022 519 
Q 2988 519 3436 956 
Q 3884 1394 3884 2338 
Q 3884 3275 3436 3711 
Q 2988 4147 2022 4147 
L 1259 4147 
z
M 628 4666 
L 1925 4666 
Q 3281 4666 3915 4102 
Q 4550 3538 4550 2338 
Q 4550 1131 3912 565 
Q 3275 0 1925 0 
L 628 0 
L 628 4666 
z
" transform="scale(0.015625)"/>
      <path id="DejaVuSans-4e" d="M 628 4666 
L 1478 4666 
L 3547 763 
L 3547 4666 
L 4159 4666 
L 4159 0 
L 3309 0 
L 1241 3903 
L 1241 0 
L 628 0 
L 628 4666 
z
" transform="scale(0.015625)"/>
      <path id="DejaVuSans-41" d="M 2188 4044 
L 1331 1722 
L 3047 1722 
L 2188 4044 
z
M 1831 4666 
L 2547 4666 
L 4325 0 
L 3669 0 
L 3244 1197 
L 1141 1197 
L 716 0 
L 50 0 
L 1831 4666 
z
" transform="scale(0.015625)"/>
      <path id="DejaVuSans-4f" d="M 2522 4238 
Q 1834 4238 1429 3725 
Q 1025 3213 1025 2328 
Q 1025 1447 1429 934 
Q 1834 422 2522 422 
Q 3209 422 3611 934 
Q 4013 1447 4013 2328 
Q 4013 3213 3611 3725 
Q 3209 4238 2522 4238 
z
M 2522 4750 
Q 3503 4750 4090 4092 
Q 4678 3434 4678 2328 
Q 4678 1225 4090 567 
Q 3503 -91 2522 -91 
Q 1538 -91 948 565 
Q 359 1222 359 2328 
Q 359 3434 948 4092 
Q 1538 4750 2522 4750 
z
" transform="scale(0.015625)"/>
      <path id="DejaVuSans-3d" d="M 678 2906 
L 4684 2906 
L 4684 2381 
L 678 2381 
L 678 2906 
z
M 678 1631 
L 4684 1631 
L 4684 1100 
L 678 1100 
L 678 1631 
z
" transform="scale(0.015625)"/>
     </defs>
     <use xlink:href="#DejaVuSans-50"/>
     <use xlink:href="#DejaVuSans-61" x="55.802734"/>
     <use xlink:href="#DejaVuSans-6c" x="117.082031"/>
     <use xlink:href="#DejaVuSans-6c" x="144.865234"/>
     <use xlink:href="#DejaVuSans-20" x="172.648438"/>
     <use xlink:href="#DejaVuSans-43" x="204.435547"/>
     <use xlink:href="#DejaVuSans-54" x="274.259766"/>
     <use xlink:href="#DejaVuSans-44" x="335.34375"/>
     <use xlink:href="#DejaVuSans-4e" x="412.345703"/>
     <use xlink:href="#DejaVuSans-41" x="487.150391"/>
     <use xlink:href="#DejaVuSans-20" x="555.558594"/>
     <use xlink:href="#DejaVuSans-54" x="587.345703"/>
     <use xlink:href="#DejaVuSans-30" x="648.429688"/>
     <use xlink:href="#DejaVuSans-20" x="712.052734"/>
     <use xlink:href="#DejaVuSans-4f" x="743.839844"/>
     <use xlink:href="#DejaVuSans-53" x="822.550781"/>
     <use xlink:href="#DejaVuSans-20" x="886.027344"/>
     <use xlink:href="#DejaVuSans-28" x="917.814453"/>
     <use xlink:href="#DejaVuSans-6e" x="956.828125"/>
     <use xlink:href="#DejaVuSans-3d" x="1020.207031"/>
     <use xlink:href="#DejaVuSans-36" x="1103.996094"/>
     <use xlink:href="#DejaVuSans-31" x="1167.619141"/>
     <use xlink:href="#DejaVuSans-29" x="1231.242188"/>
    </g>
   </g>
   <g id="text_17">
    <!-- p = 0.289 -->
    <g transform="translate(271.719745 198.370832)scale(0.1 -0.1)">
     <defs>
      <path id="DejaVuSans-70" d="M 1159 525 
L 1159 -1331 
L 581 -1331 
L 581 3500 
L 1159 3500 
L 1159 2969 
Q 1341 3281 1617 3432 
Q 1894 3584 2278 3584 
Q 2916 3584 3314 3078 
Q 3713 2572 3713 1747 
Q 3713 922 3314 415 
Q 2916 -91 2278 -91 
Q 1894 -91 1617 61 
Q 1341 213 1159 525 
z
M 3116 1747 
Q 3116 2381 2855 2742 
Q 2594 3103 2138 3103 
Q 1681 3103 1420 2742 
Q 1159 2381 1159 1747 
Q 1159 1113 1420 752 
Q 1681 391 2138 391 
Q 2594 391 2855 752 
Q 3116 1113 3116 1747 
z
" transform="scale(0.015625)"/>
      <path id="DejaVuSans-39" d="M 703 97 
L 703 672 
Q 941 559 1184 500 
Q 1428 441 1663 441 
Q 2288 441 2617 861 
Q 2947 1281 2994 2138 
Q 2813 1869 2534 1725 
Q 2256 1581 1919 1581 
Q 1219 1581 811 2004 
Q 403 2428 403 3163 
Q 403 3881 828 4315 
Q 1253 4750 1959 4750 
Q 2769 4750 3195 4129 
Q 3622 3509 3622 2328 
Q 3622 1225 3098 567 
Q 2575 -91 1691 -91 
Q 1453 -91 1209 -44 
Q 966 3 703 97 
z
M 1959 2075 
Q 2384 2075 2632 2365 
Q 2881 2656 2881 3163 
Q 2881 3666 2632 3958 
Q 2384 4250 1959 4250 
Q 1534 4250 1286 3958 
Q 1038 3666 1038 3163 
Q 1038 2656 1286 2365 
Q 1534 2075 1959 2075 
z
" transform="scale(0.015625)"/>
     </defs>
     <use xlink:href="#DejaVuSans-70"/>
     <use xlink:href="#DejaVuSans-20" x="63.476562"/>
     <use xlink:href="#DejaVuSans-3d" x="95.263672"/>
     <use xlink:href="#DejaVuSans-20" x="179.052734"/>
     <use xlink:href="#DejaVuSans-30" x="210.839844"/>
     <use xlink:href="#DejaVuSans-2e" x="274.462891"/>
     <use xlink:href="#DejaVuSans-32" x="306.25"/>
     <use xlink:href="#DejaVuSans-38" x="369.873047"/>
     <use xlink:href="#DejaVuSans-39" x="433.496094"/>
    </g>
   </g>
   <g id="legend_1">
    <g id="patch_7">
     <path d="M 359.419033 63.27625 
L 492.43622 63.27625 
Q 494.43622 63.27625 494.43622 61.27625 
L 494.43622 32.92 
Q 494.43622 30.92 492.43622 30.92 
L 359.419033 30.92 
Q 357.419033 30.92 357.419033 32.92 
L 357.419033 61.27625 
Q 357.419033 63.27625 359.419033 63.27625 
z
" style="fill: #ffffff; opacity: 0.8; stroke: #cccccc; stroke-linejoin: miter"/>
    </g>
    <g id="line2d_18">
     <path d="M 361.419033 39.018437 
L 371.419033 39.018437 
L 371.419033 39.018437 
L 381.419033 39.018437 
L 381.419033 39.018437 
" style="fill: none; stroke: #d9afd7; stroke-width: 1.5; stroke-linecap: square"/>
    </g>
    <g id="text_18">
     <!-- Tumour detected -->
     <g transform="translate(389.419033 42.518437)scale(0.1 -0.1)">
      <defs>
       <path id="DejaVuSans-6f" d="M 1959 3097 
Q 1497 3097 1228 2736 
Q 959 2375 959 1747 
Q 959 1119 1226 758 
Q 1494 397 1959 397 
Q 2419 397 2687 759 
Q 2956 1122 2956 1747 
Q 2956 2369 2687 2733 
Q 2419 3097 1959 3097 
z
M 1959 3584 
Q 2709 3584 3137 3096 
Q 3566 2609 3566 1747 
Q 3566 888 3137 398 
Q 2709 -91 1959 -91 
Q 1206 -91 779 398 
Q 353 888 353 1747 
Q 353 2609 779 3096 
Q 1206 3584 1959 3584 
z
" transform="scale(0.015625)"/>
       <path id="DejaVuSans-74" d="M 1172 4494 
L 1172 3500 
L 2356 3500 
L 2356 3053 
L 1172 3053 
L 1172 1153 
Q 1172 725 1289 603 
Q 1406 481 1766 481 
L 2356 481 
L 2356 0 
L 1766 0 
Q 1100 0 847 248 
Q 594 497 594 1153 
L 594 3053 
L 172 3053 
L 172 3500 
L 594 3500 
L 594 4494 
L 1172 4494 
z
" transform="scale(0.015625)"/>
       <path id="DejaVuSans-63" d="M 3122 3366 
L 3122 2828 
Q 2878 2963 2633 3030 
Q 2388 3097 2138 3097 
Q 1578 3097 1268 2742 
Q 959 2388 959 1747 
Q 959 1106 1268 751 
Q 1578 397 2138 397 
Q 2388 397 2633 464 
Q 2878 531 3122 666 
L 3122 134 
Q 2881 22 2623 -34 
Q 2366 -91 2075 -91 
Q 1284 -91 818 406 
Q 353 903 353 1747 
Q 353 2603 823 3093 
Q 1294 3584 2113 3584 
Q 2378 3584 2631 3529 
Q 2884 3475 3122 3366 
z
" transform="scale(0.015625)"/>
      </defs>
      <use xlink:href="#DejaVuSans-54"/>
      <use xlink:href="#DejaVuSans-75" x="45.958984"/>
      <use xlink:href="#DejaVuSans-6d" x="109.337891"/>
      <use xlink:href="#DejaVuSans-6f" x="206.75"/>
      <use xlink:href="#DejaVuSans-75" x="267.931641"/>
      <use xlink:href="#DejaVuSans-72" x="331.310547"/>
      <use xlink:href="#DejaVuSans-20" x="372.423828"/>
      <use xlink:href="#DejaVuSans-64" x="404.210938"/>
      <use xlink:href="#DejaVuSans-65" x="467.6875"/>
      <use xlink:href="#DejaVuSans-74" x="529.210938"/>
      <use xlink:href="#DejaVuSans-65" x="568.419922"/>
      <use xlink:href="#DejaVuSans-63" x="629.943359"/>
      <use xlink:href="#DejaVuSans-74" x="684.923828"/>
      <use xlink:href="#DejaVuSans-65" x="724.132812"/>
      <use xlink:href="#DejaVuSans-64" x="785.65625"/>
     </g>
    </g>
    <g id="line2d_19">
     <path d="M 361.419033 53.696562 
L 371.419033 53.696562 
L 371.419033 53.696562 
L 381.419033 53.696562 
L 381.419033 53.696562 
" style="fill: none; stroke: #69addb; stroke-width: 1.5; stroke-linecap: square"/>
    </g>
    <g id="text_19">
     <!-- No tumour detected -->
     <g transform="translate(389.419033 57.196562)scale(0.1 -0.1)">
      <use xlink:href="#DejaVuSans-4e"/>
      <use xlink:href="#DejaVuSans-6f" x="74.804688"/>
      <use xlink:href="#DejaVuSans-20" x="135.986328"/>
      <use xlink:href="#DejaVuSans-74" x="167.773438"/>
      <use xlink:href="#DejaVuSans-75" x="206.982422"/>
      <use xlink:href="#DejaVuSans-6d" x="270.361328"/>
      <use xlink:href="#DejaVuSans-6f" x="367.773438"/>
      <use xlink:href="#DejaVuSans-75" x="428.955078"/>
      <use xlink:href="#DejaVuSans-72" x="492.333984"/>
      <use xlink:href="#DejaVuSans-20" x="533.447266"/>
      <use xlink:href="#DejaVuSans-64" x="565.234375"/>
      <use xlink:href="#DejaVuSans-65" x="628.710938"/>
      <use xlink:href="#DejaVuSans-74" x="690.234375"/>
      <use xlink:href="#DejaVuSans-65" x="729.443359"/>
      <use xlink:href="#DejaVuSans-63" x="790.966797"/>
      <use xlink:href="#DejaVuSans-74" x="845.947266"/>
      <use xlink:href="#DejaVuSans-65" x="885.15625"/>
      <use xlink:href="#DejaVuSans-64" x="946.679688"/>
     </g>
    </g>
   </g>
  </g>
  <g id="axes_2">
   <g id="matplotlib.axis_3">
    <g id="xtick_8">
     <g id="text_20">
      <!-- Tumour detected -->
      <g transform="translate(27.243546 251.156973)scale(0.1 -0.1)">
       <use xlink:href="#DejaVuSans-54"/>
       <use xlink:href="#DejaVuSans-75" x="45.958984"/>
       <use xlink:href="#DejaVuSans-6d" x="109.337891"/>
       <use xlink:href="#DejaVuSans-6f" x="206.75"/>
       <use xlink:href="#DejaVuSans-75" x="267.931641"/>
       <use xlink:href="#DejaVuSans-72" x="331.310547"/>
       <use xlink:href="#DejaVuSans-20" x="372.423828"/>
       <use xlink:href="#DejaVuSans-64" x="404.210938"/>
       <use xlink:href="#DejaVuSans-65" x="467.6875"/>
       <use xlink:href="#DejaVuSans-74" x="529.210938"/>
       <use xlink:href="#DejaVuSans-65" x="568.419922"/>
       <use xlink:href="#DejaVuSans-63" x="629.943359"/>
       <use xlink:href="#DejaVuSans-74" x="684.923828"/>
       <use xlink:href="#DejaVuSans-65" x="724.132812"/>
       <use xlink:href="#DejaVuSans-64" x="785.65625"/>
      </g>
      <!--    At risk   50 -->
      <g transform="translate(48.710733 262.354786)scale(0.1 -0.1)">
       <defs>
        <path id="DejaVuSans-6b" d="M 581 4863 
L 1159 4863 
L 1159 1991 
L 2875 3500 
L 3609 3500 
L 1753 1863 
L 3688 0 
L 2938 0 
L 1159 1709 
L 1159 0 
L 581 0 
L 581 4863 
z
" transform="scale(0.015625)"/>
        <path id="DejaVuSans-35" d="M 691 4666 
L 3169 4666 
L 3169 4134 
L 1269 4134 
L 1269 2991 
Q 1406 3038 1543 3061 
Q 1681 3084 1819 3084 
Q 2600 3084 3056 2656 
Q 3513 2228 3513 1497 
Q 3513 744 3044 326 
Q 2575 -91 1722 -91 
Q 1428 -91 1123 -41 
Q 819 9 494 109 
L 494 744 
Q 775 591 1075 516 
Q 1375 441 1709 441 
Q 2250 441 2565 725 
Q 2881 1009 2881 1497 
Q 2881 1984 2565 2268 
Q 2250 2553 1709 2553 
Q 1456 2553 1204 2497 
Q 953 2441 691 2322 
L 691 4666 
z
" transform="scale(0.015625)"/>
       </defs>
       <use xlink:href="#DejaVuSans-20"/>
       <use xlink:href="#DejaVuSans-20" x="31.787109"/>
       <use xlink:href="#DejaVuSans-20" x="63.574219"/>
       <use xlink:href="#DejaVuSans-41" x="95.361328"/>
       <use xlink:href="#DejaVuSans-74" x="162.019531"/>
       <use xlink:href="#DejaVuSans-20" x="201.228516"/>
       <use xlink:href="#DejaVuSans-72" x="233.015625"/>
       <use xlink:href="#DejaVuSans-69" x="274.128906"/>
       <use xlink:href="#DejaVuSans-73" x="301.912109"/>
       <use xlink:href="#DejaVuSans-6b" x="354.011719"/>
       <use xlink:href="#DejaVuSans-20" x="411.921875"/>
       <use xlink:href="#DejaVuSans-20" x="443.708984"/>
       <use xlink:href="#DejaVuSans-20" x="475.496094"/>
       <use xlink:href="#DejaVuSans-35" x="507.283203"/>
       <use xlink:href="#DejaVuSans-30" x="570.90625"/>
      </g>
      <!--   Censored     0 -->
      <g transform="translate(36.359171 273.552598)scale(0.1 -0.1)">
       <use xlink:href="#DejaVuSans-20"/>
       <use xlink:href="#DejaVuSans-20" x="31.787109"/>
       <use xlink:href="#DejaVuSans-43" x="63.574219"/>
       <use xlink:href="#DejaVuSans-65" x="133.398438"/>
       <use xlink:href="#DejaVuSans-6e" x="194.921875"/>
       <use xlink:href="#DejaVuSans-73" x="258.300781"/>
       <use xlink:href="#DejaVuSans-6f" x="310.400391"/>
       <use xlink:href="#DejaVuSans-72" x="371.582031"/>
       <use xlink:href="#DejaVuSans-65" x="410.445312"/>
       <use xlink:href="#DejaVuSans-64" x="471.96875"/>
       <use xlink:href="#DejaVuSans-20" x="535.445312"/>
       <use xlink:href="#DejaVuSans-20" x="567.232422"/>
       <use xlink:href="#DejaVuSans-20" x="599.019531"/>
       <use xlink:href="#DejaVuSans-20" x="630.806641"/>
       <use xlink:href="#DejaVuSans-20" x="662.59375"/>
       <use xlink:href="#DejaVuSans-30" x="694.380859"/>
      </g>
      <!--     Events     0 -->
      <g transform="translate(43.334171 284.750411)scale(0.1 -0.1)">
       <defs>
        <path id="DejaVuSans-45" d="M 628 4666 
L 3578 4666 
L 3578 4134 
L 1259 4134 
L 1259 2753 
L 3481 2753 
L 3481 2222 
L 1259 2222 
L 1259 531 
L 3634 531 
L 3634 0 
L 628 0 
L 628 4666 
z
" transform="scale(0.015625)"/>
       </defs>
       <use xlink:href="#DejaVuSans-20"/>
       <use xlink:href="#DejaVuSans-20" x="31.787109"/>
       <use xlink:href="#DejaVuSans-20" x="63.574219"/>
       <use xlink:href="#DejaVuSans-20" x="95.361328"/>
       <use xlink:href="#DejaVuSans-45" x="127.148438"/>
       <use xlink:href="#DejaVuSans-76" x="190.332031"/>
       <use xlink:href="#DejaVuSans-65" x="249.511719"/>
       <use xlink:href="#DejaVuSans-6e" x="311.035156"/>
       <use xlink:href="#DejaVuSans-74" x="374.414062"/>
       <use xlink:href="#DejaVuSans-73" x="413.623047"/>
       <use xlink:href="#DejaVuSans-20" x="465.722656"/>
       <use xlink:href="#DejaVuSans-20" x="497.509766"/>
       <use xlink:href="#DejaVuSans-20" x="529.296875"/>
       <use xlink:href="#DejaVuSans-20" x="561.083984"/>
       <use xlink:href="#DejaVuSans-20" x="592.871094"/>
       <use xlink:href="#DejaVuSans-30" x="624.658203"/>
      </g>
      <!--  -->
      <g transform="translate(112.157608 295.948223)scale(0.1 -0.1)"/>
      <!-- No tumour detected -->
      <g transform="translate(11.140421 307.146036)scale(0.1 -0.1)">
       <use xlink:href="#DejaVuSans-4e"/>
       <use xlink:href="#DejaVuSans-6f" x="74.804688"/>
       <use xlink:href="#DejaVuSans-20" x="135.986328"/>
       <use xlink:href="#DejaVuSans-74" x="167.773438"/>
       <use xlink:href="#DejaVuSans-75" x="206.982422"/>
       <use xlink:href="#DejaVuSans-6d" x="270.361328"/>
       <use xlink:href="#DejaVuSans-6f" x="367.773438"/>
       <use xlink:href="#DejaVuSans-75" x="428.955078"/>
       <use xlink:href="#DejaVuSans-72" x="492.333984"/>
       <use xlink:href="#DejaVuSans-20" x="533.447266"/>
       <use xlink:href="#DejaVuSans-64" x="565.234375"/>
       <use xlink:href="#DejaVuSans-65" x="628.710938"/>
       <use xlink:href="#DejaVuSans-74" x="690.234375"/>
       <use xlink:href="#DejaVuSans-65" x="729.443359"/>
       <use xlink:href="#DejaVuSans-63" x="790.966797"/>
       <use xlink:href="#DejaVuSans-74" x="845.947266"/>
       <use xlink:href="#DejaVuSans-65" x="885.15625"/>
       <use xlink:href="#DejaVuSans-64" x="946.679688"/>
      </g>
      <!--    At risk   11 -->
      <g transform="translate(48.710733 318.343848)scale(0.1 -0.1)">
       <use xlink:href="#DejaVuSans-20"/>
       <use xlink:href="#DejaVuSans-20" x="31.787109"/>
       <use xlink:href="#DejaVuSans-20" x="63.574219"/>
       <use xlink:href="#DejaVuSans-41" x="95.361328"/>
       <use xlink:href="#DejaVuSans-74" x="162.019531"/>
       <use xlink:href="#DejaVuSans-20" x="201.228516"/>
       <use xlink:href="#DejaVuSans-72" x="233.015625"/>
       <use xlink:href="#DejaVuSans-69" x="274.128906"/>
       <use xlink:href="#DejaVuSans-73" x="301.912109"/>
       <use xlink:href="#DejaVuSans-6b" x="354.011719"/>
       <use xlink:href="#DejaVuSans-20" x="411.921875"/>
       <use xlink:href="#DejaVuSans-20" x="443.708984"/>
       <use xlink:href="#DejaVuSans-20" x="475.496094"/>
       <use xlink:href="#DejaVuSans-31" x="507.283203"/>
       <use xlink:href="#DejaVuSans-31" x="570.90625"/>
      </g>
      <!--   Censored     0 -->
      <g transform="translate(36.359171 329.541661)scale(0.1 -0.1)">
       <use xlink:href="#DejaVuSans-20"/>
       <use xlink:href="#DejaVuSans-20" x="31.787109"/>
       <use xlink:href="#DejaVuSans-43" x="63.574219"/>
       <use xlink:href="#DejaVuSans-65" x="133.398438"/>
       <use xlink:href="#DejaVuSans-6e" x="194.921875"/>
       <use xlink:href="#DejaVuSans-73" x="258.300781"/>
       <use xlink:href="#DejaVuSans-6f" x="310.400391"/>
       <use xlink:href="#DejaVuSans-72" x="371.582031"/>
       <use xlink:href="#DejaVuSans-65" x="410.445312"/>
       <use xlink:href="#DejaVuSans-64" x="471.96875"/>
       <use xlink:href="#DejaVuSans-20" x="535.445312"/>
       <use xlink:href="#DejaVuSans-20" x="567.232422"/>
       <use xlink:href="#DejaVuSans-20" x="599.019531"/>
       <use xlink:href="#DejaVuSans-20" x="630.806641"/>
       <use xlink:href="#DejaVuSans-20" x="662.59375"/>
       <use xlink:href="#DejaVuSans-30" x="694.380859"/>
      </g>
      <!--     Events     0 -->
      <g transform="translate(43.334171 340.739473)scale(0.1 -0.1)">
       <use xlink:href="#DejaVuSans-20"/>
       <use xlink:href="#DejaVuSans-20" x="31.787109"/>
       <use xlink:href="#DejaVuSans-20" x="63.574219"/>
       <use xlink:href="#DejaVuSans-20" x="95.361328"/>
       <use xlink:href="#DejaVuSans-45" x="127.148438"/>
       <use xlink:href="#DejaVuSans-76" x="190.332031"/>
       <use xlink:href="#DejaVuSans-65" x="249.511719"/>
       <use xlink:href="#DejaVuSans-6e" x="311.035156"/>
       <use xlink:href="#DejaVuSans-74" x="374.414062"/>
       <use xlink:href="#DejaVuSans-73" x="413.623047"/>
       <use xlink:href="#DejaVuSans-20" x="465.722656"/>
       <use xlink:href="#DejaVuSans-20" x="497.509766"/>
       <use xlink:href="#DejaVuSans-20" x="529.296875"/>
       <use xlink:href="#DejaVuSans-20" x="561.083984"/>
       <use xlink:href="#DejaVuSans-20" x="592.871094"/>
       <use xlink:href="#DejaVuSans-30" x="624.658203"/>
      </g>
      <!--  -->
      <g transform="translate(112.157608 351.937286)scale(0.1 -0.1)"/>
     </g>
    </g>
    <g id="xtick_9">
     <g id="text_21">
      <!--  -->
      <g transform="translate(174.199118 251.156973)scale(0.1 -0.1)"/>
      <!-- 36 -->
      <g transform="translate(161.474118 262.354786)scale(0.1 -0.1)">
       <defs>
        <path id="DejaVuSans-33" d="M 2597 2516 
Q 3050 2419 3304 2112 
Q 3559 1806 3559 1356 
Q 3559 666 3084 287 
Q 2609 -91 1734 -91 
Q 1441 -91 1130 -33 
Q 819 25 488 141 
L 488 750 
Q 750 597 1062 519 
Q 1375 441 1716 441 
Q 2309 441 2620 675 
Q 2931 909 2931 1356 
Q 2931 1769 2642 2001 
Q 2353 2234 1838 2234 
L 1294 2234 
L 1294 2753 
L 1863 2753 
Q 2328 2753 2575 2939 
Q 2822 3125 2822 3475 
Q 2822 3834 2567 4026 
Q 2313 4219 1838 4219 
Q 1578 4219 1281 4162 
Q 984 4106 628 3988 
L 628 4550 
Q 988 4650 1302 4700 
Q 1616 4750 1894 4750 
Q 2613 4750 3031 4423 
Q 3450 4097 3450 3541 
Q 3450 3153 3228 2886 
Q 3006 2619 2597 2516 
z
" transform="scale(0.015625)"/>
       </defs>
       <use xlink:href="#DejaVuSans-33"/>
       <use xlink:href="#DejaVuSans-36" x="63.623047"/>
      </g>
      <!-- 0 -->
      <g transform="translate(167.836618 273.552598)scale(0.1 -0.1)">
       <use xlink:href="#DejaVuSans-30"/>
      </g>
      <!-- 14 -->
      <g transform="translate(161.474118 284.750411)scale(0.1 -0.1)">
       <use xlink:href="#DejaVuSans-31"/>
       <use xlink:href="#DejaVuSans-34" x="63.623047"/>
      </g>
      <!--  -->
      <g transform="translate(174.199118 295.948223)scale(0.1 -0.1)"/>
      <!--  -->
      <g transform="translate(174.199118 307.146036)scale(0.1 -0.1)"/>
      <!-- 9 -->
      <g transform="translate(167.836618 318.343848)scale(0.1 -0.1)">
       <use xlink:href="#DejaVuSans-39"/>
      </g>
      <!-- 0 -->
      <g transform="translate(167.836618 329.541661)scale(0.1 -0.1)">
       <use xlink:href="#DejaVuSans-30"/>
      </g>
      <!-- 2 -->
      <g transform="translate(167.836618 340.739473)scale(0.1 -0.1)">
       <use xlink:href="#DejaVuSans-32"/>
      </g>
     </g>
    </g>
    <g id="xtick_10">
     <g id="text_22">
      <!--  -->
      <g transform="translate(236.240627 251.156973)scale(0.1 -0.1)"/>
      <!-- 30 -->
      <g transform="translate(223.515627 262.354786)scale(0.1 -0.1)">
       <use xlink:href="#DejaVuSans-33"/>
       <use xlink:href="#DejaVuSans-30" x="63.623047"/>
      </g>
      <!-- 0 -->
      <g transform="translate(229.878127 273.552598)scale(0.1 -0.1)">
       <use xlink:href="#DejaVuSans-30"/>
      </g>
      <!-- 20 -->
      <g transform="translate(223.515627 284.750411)scale(0.1 -0.1)">
       <use xlink:href="#DejaVuSans-32"/>
       <use xlink:href="#DejaVuSans-30" x="63.623047"/>
      </g>
      <!--  -->
      <g transform="translate(236.240627 295.948223)scale(0.1 -0.1)"/>
      <!--  -->
      <g transform="translate(236.240627 307.146036)scale(0.1 -0.1)"/>
      <!-- 8 -->
      <g transform="translate(229.878127 318.343848)scale(0.1 -0.1)">
       <use xlink:href="#DejaVuSans-38"/>
      </g>
      <!-- 0 -->
      <g transform="translate(229.878127 329.541661)scale(0.1 -0.1)">
       <use xlink:href="#DejaVuSans-30"/>
      </g>
      <!-- 3 -->
      <g transform="translate(229.878127 340.739473)scale(0.1 -0.1)">
       <use xlink:href="#DejaVuSans-33"/>
      </g>
     </g>
    </g>
    <g id="xtick_11">
     <g id="text_23">
      <!--  -->
      <g transform="translate(298.282136 251.156973)scale(0.1 -0.1)"/>
      <!-- 20 -->
      <g transform="translate(285.557136 262.354786)scale(0.1 -0.1)">
       <use xlink:href="#DejaVuSans-32"/>
       <use xlink:href="#DejaVuSans-30" x="63.623047"/>
      </g>
      <!-- 3 -->
      <g transform="translate(291.919636 273.552598)scale(0.1 -0.1)">
       <use xlink:href="#DejaVuSans-33"/>
      </g>
      <!-- 27 -->
      <g transform="translate(285.557136 284.750411)scale(0.1 -0.1)">
       <defs>
        <path id="DejaVuSans-37" d="M 525 4666 
L 3525 4666 
L 3525 4397 
L 1831 0 
L 1172 0 
L 2766 4134 
L 525 4134 
L 525 4666 
z
" transform="scale(0.015625)"/>
       </defs>
       <use xlink:href="#DejaVuSans-32"/>
       <use xlink:href="#DejaVuSans-37" x="63.623047"/>
      </g>
      <!--  -->
      <g transform="translate(298.282136 295.948223)scale(0.1 -0.1)"/>
      <!--  -->
      <g transform="translate(298.282136 307.146036)scale(0.1 -0.1)"/>
      <!-- 7 -->
      <g transform="translate(291.919636 318.343848)scale(0.1 -0.1)">
       <use xlink:href="#DejaVuSans-37"/>
      </g>
      <!-- 0 -->
      <g transform="translate(291.919636 329.541661)scale(0.1 -0.1)">
       <use xlink:href="#DejaVuSans-30"/>
      </g>
      <!-- 4 -->
      <g transform="translate(291.919636 340.739473)scale(0.1 -0.1)">
       <use xlink:href="#DejaVuSans-34"/>
      </g>
     </g>
    </g>
    <g id="xtick_12">
     <g id="text_24">
      <!--  -->
      <g transform="translate(360.323646 251.156973)scale(0.1 -0.1)"/>
      <!-- 11 -->
      <g transform="translate(347.598646 262.354786)scale(0.1 -0.1)">
       <use xlink:href="#DejaVuSans-31"/>
       <use xlink:href="#DejaVuSans-31" x="63.623047"/>
      </g>
      <!-- 10 -->
      <g transform="translate(347.598646 273.552598)scale(0.1 -0.1)">
       <use xlink:href="#DejaVuSans-31"/>
       <use xlink:href="#DejaVuSans-30" x="63.623047"/>
      </g>
      <!-- 29 -->
      <g transform="translate(347.598646 284.750411)scale(0.1 -0.1)">
       <use xlink:href="#DejaVuSans-32"/>
       <use xlink:href="#DejaVuSans-39" x="63.623047"/>
      </g>
      <!--  -->
      <g transform="translate(360.323646 295.948223)scale(0.1 -0.1)"/>
      <!--  -->
      <g transform="translate(360.323646 307.146036)scale(0.1 -0.1)"/>
      <!-- 3 -->
      <g transform="translate(353.961146 318.343848)scale(0.1 -0.1)">
       <use xlink:href="#DejaVuSans-33"/>
      </g>
      <!-- 3 -->
      <g transform="translate(353.961146 329.541661)scale(0.1 -0.1)">
       <use xlink:href="#DejaVuSans-33"/>
      </g>
      <!-- 5 -->
      <g transform="translate(353.961146 340.739473)scale(0.1 -0.1)">
       <use xlink:href="#DejaVuSans-35"/>
      </g>
     </g>
    </g>
    <g id="xtick_13">
     <g id="text_25">
      <!--  -->
      <g transform="translate(422.365155 251.156973)scale(0.1 -0.1)"/>
      <!-- 3 -->
      <g transform="translate(416.002655 262.354786)scale(0.1 -0.1)">
       <use xlink:href="#DejaVuSans-33"/>
      </g>
      <!-- 17 -->
      <g transform="translate(409.640155 273.552598)scale(0.1 -0.1)">
       <use xlink:href="#DejaVuSans-31"/>
       <use xlink:href="#DejaVuSans-37" x="63.623047"/>
      </g>
      <!-- 30 -->
      <g transform="translate(409.640155 284.750411)scale(0.1 -0.1)">
       <use xlink:href="#DejaVuSans-33"/>
       <use xlink:href="#DejaVuSans-30" x="63.623047"/>
      </g>
      <!--  -->
      <g transform="translate(422.365155 295.948223)scale(0.1 -0.1)"/>
      <!--  -->
      <g transform="translate(422.365155 307.146036)scale(0.1 -0.1)"/>
      <!-- 0 -->
      <g transform="translate(416.002655 318.343848)scale(0.1 -0.1)">
       <use xlink:href="#DejaVuSans-30"/>
      </g>
      <!-- 6 -->
      <g transform="translate(416.002655 329.541661)scale(0.1 -0.1)">
       <use xlink:href="#DejaVuSans-36"/>
      </g>
      <!-- 5 -->
      <g transform="translate(416.002655 340.739473)scale(0.1 -0.1)">
       <use xlink:href="#DejaVuSans-35"/>
      </g>
     </g>
    </g>
    <g id="xtick_14">
     <g id="text_26">
      <!--  -->
      <g transform="translate(484.406665 251.156973)scale(0.1 -0.1)"/>
      <!-- 0 -->
      <g transform="translate(478.044165 262.354786)scale(0.1 -0.1)">
       <use xlink:href="#DejaVuSans-30"/>
      </g>
      <!-- 20 -->
      <g transform="translate(471.681665 273.552598)scale(0.1 -0.1)">
       <use xlink:href="#DejaVuSans-32"/>
       <use xlink:href="#DejaVuSans-30" x="63.623047"/>
      </g>
      <!-- 30 -->
      <g transform="translate(471.681665 284.750411)scale(0.1 -0.1)">
       <use xlink:href="#DejaVuSans-33"/>
       <use xlink:href="#DejaVuSans-30" x="63.623047"/>
      </g>
      <!--  -->
      <g transform="translate(484.406665 295.948223)scale(0.1 -0.1)"/>
      <!--  -->
      <g transform="translate(484.406665 307.146036)scale(0.1 -0.1)"/>
      <!-- 0 -->
      <g transform="translate(478.044165 318.343848)scale(0.1 -0.1)">
       <use xlink:href="#DejaVuSans-30"/>
      </g>
      <!-- 6 -->
      <g transform="translate(478.044165 329.541661)scale(0.1 -0.1)">
       <use xlink:href="#DejaVuSans-36"/>
      </g>
      <!-- 5 -->
      <g transform="translate(478.044165 340.739473)scale(0.1 -0.1)">
       <use xlink:href="#DejaVuSans-35"/>
      </g>
     </g>
    </g>
   </g>
  </g>
 </g>
 <defs>
  <clipPath id="p062fff1dc4">
   <rect x="93.71577" y="25.92" width="405.720451" height="183.53052"/>
  </clipPath>
 </defs>
</svg>
