<?xml version="1.0" encoding="utf-8" standalone="no"?>
<!DOCTYPE svg PUBLIC "-//W3C//DTD SVG 1.1//EN"
  "http://www.w3.org/Graphics/SVG/1.1/DTD/svg11.dtd">
<svg xmlns:xlink="http://www.w3.org/1999/xlink" width="432pt" height="432pt" viewBox="0 0 432 432" xmlns="http://www.w3.org/2000/svg" version="1.1">
 <metadata>
  <rdf:RDF xmlns:dc="http://purl.org/dc/elements/1.1/" xmlns:cc="http://creativecommons.org/ns#" xmlns:rdf="http://www.w3.org/1999/02/22-rdf-syntax-ns#">
   <cc:Work>
    <dc:type rdf:resource="http://purl.org/dc/dcmitype/StillImage"/>
    <dc:date>2024-07-30T23:01:17.964601</dc:date>
    <dc:format>image/svg+xml</dc:format>
    <dc:creator>
     <cc:Agent>
      <dc:title>Matplotlib v3.5.1, https://matplotlib.org/</dc:title>
     </cc:Agent>
    </dc:creator>
   </cc:Work>
  </rdf:RDF>
 </metadata>
 <defs>
  <style type="text/css">*{stroke-linejoin: round; stroke-linecap: butt}</style>
 </defs>
 <g id="figure_1">
  <g id="patch_1">
   <path d="M 0 432 
L 432 432 
L 432 0 
L 0 0 
z
" style="fill: #ffffff"/>
  </g>
  <g id="axes_1">
   <g id="patch_2">
    <path d="M 59.583196 378.217688 
L 419.04 378.217688 
L 419.04 27.65625 
L 59.583196 27.65625 
z
" style="fill: #ffffff"/>
   </g>
   <g id="matplotlib.axis_1">
    <g id="xtick_1">
     <g id="text_1">
      <!-- $\mathdefault{10^{0}}$ -->
      <g style="fill: #262626" transform="translate(64.616105 399.061438)scale(0.11 -0.11)">
       <defs>
        <path id="ArialMT-31" d="M 2384 0 
L 1822 0 
L 1822 3584 
Q 1619 3391 1289 3197 
Q 959 3003 697 2906 
L 697 3450 
Q 1169 3672 1522 3987 
Q 1875 4303 2022 4600 
L 2384 4600 
L 2384 0 
z
" transform="scale(0.015625)"/>
        <path id="ArialMT-30" d="M 266 2259 
Q 266 3072 433 3567 
Q 600 4063 929 4331 
Q 1259 4600 1759 4600 
Q 2128 4600 2406 4451 
Q 2684 4303 2865 4023 
Q 3047 3744 3150 3342 
Q 3253 2941 3253 2259 
Q 3253 1453 3087 958 
Q 2922 463 2592 192 
Q 2263 -78 1759 -78 
Q 1097 -78 719 397 
Q 266 969 266 2259 
z
M 844 2259 
Q 844 1131 1108 757 
Q 1372 384 1759 384 
Q 2147 384 2411 759 
Q 2675 1134 2675 2259 
Q 2675 3391 2411 3762 
Q 2147 4134 1753 4134 
Q 1366 4134 1134 3806 
Q 844 3388 844 2259 
z
" transform="scale(0.015625)"/>
       </defs>
       <use xlink:href="#ArialMT-31" transform="translate(0 0.99375)"/>
       <use xlink:href="#ArialMT-30" transform="translate(55.615234 0.99375)"/>
       <use xlink:href="#ArialMT-30" transform="translate(112.972813 70.6875)scale(0.7)"/>
      </g>
     </g>
    </g>
    <g id="xtick_2">
     <g id="text_2">
      <!-- $\mathdefault{10^{1}}$ -->
      <g style="fill: #262626" transform="translate(138.346967 399.061438)scale(0.11 -0.11)">
       <use xlink:href="#ArialMT-31" transform="translate(0 0.99375)"/>
       <use xlink:href="#ArialMT-30" transform="translate(55.615234 0.99375)"/>
       <use xlink:href="#ArialMT-31" transform="translate(112.972813 70.6875)scale(0.7)"/>
      </g>
     </g>
    </g>
    <g id="xtick_3">
     <g id="text_3">
      <!-- $\mathdefault{10^{2}}$ -->
      <g style="fill: #262626" transform="translate(212.077828 399.061438)scale(0.11 -0.11)">
       <defs>
        <path id="ArialMT-32" d="M 3222 541 
L 3222 0 
L 194 0 
Q 188 203 259 391 
Q 375 700 629 1000 
Q 884 1300 1366 1694 
Q 2113 2306 2375 2664 
Q 2638 3022 2638 3341 
Q 2638 3675 2398 3904 
Q 2159 4134 1775 4134 
Q 1369 4134 1125 3890 
Q 881 3647 878 3216 
L 300 3275 
Q 359 3922 746 4261 
Q 1134 4600 1788 4600 
Q 2447 4600 2831 4234 
Q 3216 3869 3216 3328 
Q 3216 3053 3103 2787 
Q 2991 2522 2730 2228 
Q 2469 1934 1863 1422 
Q 1356 997 1212 845 
Q 1069 694 975 541 
L 3222 541 
z
" transform="scale(0.015625)"/>
       </defs>
       <use xlink:href="#ArialMT-31" transform="translate(0 0.99375)"/>
       <use xlink:href="#ArialMT-30" transform="translate(55.615234 0.99375)"/>
       <use xlink:href="#ArialMT-32" transform="translate(112.972813 70.6875)scale(0.7)"/>
      </g>
     </g>
    </g>
    <g id="xtick_4">
     <g id="text_4">
      <!-- $\mathdefault{10^{3}}$ -->
      <g style="fill: #262626" transform="translate(285.80869 399.061438)scale(0.11 -0.11)">
       <defs>
        <path id="ArialMT-33" d="M 269 1209 
L 831 1284 
Q 928 806 1161 595 
Q 1394 384 1728 384 
Q 2125 384 2398 659 
Q 2672 934 2672 1341 
Q 2672 1728 2419 1979 
Q 2166 2231 1775 2231 
Q 1616 2231 1378 2169 
L 1441 2663 
Q 1497 2656 1531 2656 
Q 1891 2656 2178 2843 
Q 2466 3031 2466 3422 
Q 2466 3731 2256 3934 
Q 2047 4138 1716 4138 
Q 1388 4138 1169 3931 
Q 950 3725 888 3313 
L 325 3413 
Q 428 3978 793 4289 
Q 1159 4600 1703 4600 
Q 2078 4600 2393 4439 
Q 2709 4278 2876 4000 
Q 3044 3722 3044 3409 
Q 3044 3113 2884 2869 
Q 2725 2625 2413 2481 
Q 2819 2388 3044 2092 
Q 3269 1797 3269 1353 
Q 3269 753 2831 336 
Q 2394 -81 1725 -81 
Q 1122 -81 723 278 
Q 325 638 269 1209 
z
" transform="scale(0.015625)"/>
       </defs>
       <use xlink:href="#ArialMT-31" transform="translate(0 0.99375)"/>
       <use xlink:href="#ArialMT-30" transform="translate(55.615234 0.99375)"/>
       <use xlink:href="#ArialMT-33" transform="translate(112.972813 70.6875)scale(0.7)"/>
      </g>
     </g>
    </g>
    <g id="xtick_5">
     <g id="text_5">
      <!-- $\mathdefault{10^{4}}$ -->
      <g style="fill: #262626" transform="translate(359.539552 398.951437)scale(0.11 -0.11)">
       <defs>
        <path id="ArialMT-34" d="M 2069 0 
L 2069 1097 
L 81 1097 
L 81 1613 
L 2172 4581 
L 2631 4581 
L 2631 1613 
L 3250 1613 
L 3250 1097 
L 2631 1097 
L 2631 0 
L 2069 0 
z
M 2069 1613 
L 2069 3678 
L 634 1613 
L 2069 1613 
z
" transform="scale(0.015625)"/>
       </defs>
       <use xlink:href="#ArialMT-31" transform="translate(0 0.201563)"/>
       <use xlink:href="#ArialMT-30" transform="translate(55.615234 0.201563)"/>
       <use xlink:href="#ArialMT-34" transform="translate(112.972813 69.895313)scale(0.7)"/>
      </g>
     </g>
    </g>
    <g id="xtick_6"/>
    <g id="xtick_7"/>
    <g id="xtick_8"/>
    <g id="xtick_9"/>
    <g id="xtick_10"/>
    <g id="xtick_11"/>
    <g id="xtick_12"/>
    <g id="xtick_13"/>
    <g id="xtick_14"/>
    <g id="xtick_15"/>
    <g id="xtick_16"/>
    <g id="xtick_17"/>
    <g id="xtick_18"/>
    <g id="xtick_19"/>
    <g id="xtick_20"/>
    <g id="xtick_21"/>
    <g id="xtick_22"/>
    <g id="xtick_23"/>
    <g id="xtick_24"/>
    <g id="xtick_25"/>
    <g id="xtick_26"/>
    <g id="xtick_27"/>
    <g id="xtick_28"/>
    <g id="xtick_29"/>
    <g id="xtick_30"/>
    <g id="xtick_31"/>
    <g id="xtick_32"/>
    <g id="xtick_33"/>
    <g id="xtick_34"/>
    <g id="xtick_35"/>
    <g id="xtick_36"/>
    <g id="xtick_37"/>
    <g id="xtick_38"/>
    <g id="xtick_39"/>
    <g id="xtick_40"/>
    <g id="xtick_41"/>
    <g id="xtick_42"/>
    <g id="xtick_43"/>
    <g id="text_6">
     <!-- TLG PET/CT -->
     <g style="fill: #262626" transform="translate(204.642848 413.837063)scale(0.12 -0.12)">
      <defs>
       <path id="ArialMT-54" d="M 1659 0 
L 1659 4041 
L 150 4041 
L 150 4581 
L 3781 4581 
L 3781 4041 
L 2266 4041 
L 2266 0 
L 1659 0 
z
" transform="scale(0.015625)"/>
       <path id="ArialMT-4c" d="M 469 0 
L 469 4581 
L 1075 4581 
L 1075 541 
L 3331 541 
L 3331 0 
L 469 0 
z
" transform="scale(0.015625)"/>
       <path id="ArialMT-47" d="M 2638 1797 
L 2638 2334 
L 4578 2338 
L 4578 638 
Q 4131 281 3656 101 
Q 3181 -78 2681 -78 
Q 2006 -78 1454 211 
Q 903 500 622 1047 
Q 341 1594 341 2269 
Q 341 2938 620 3517 
Q 900 4097 1425 4378 
Q 1950 4659 2634 4659 
Q 3131 4659 3532 4498 
Q 3934 4338 4162 4050 
Q 4391 3763 4509 3300 
L 3963 3150 
Q 3859 3500 3706 3700 
Q 3553 3900 3268 4020 
Q 2984 4141 2638 4141 
Q 2222 4141 1919 4014 
Q 1616 3888 1430 3681 
Q 1244 3475 1141 3228 
Q 966 2803 966 2306 
Q 966 1694 1177 1281 
Q 1388 869 1791 669 
Q 2194 469 2647 469 
Q 3041 469 3416 620 
Q 3791 772 3984 944 
L 3984 1797 
L 2638 1797 
z
" transform="scale(0.015625)"/>
       <path id="ArialMT-20" transform="scale(0.015625)"/>
       <path id="ArialMT-50" d="M 494 0 
L 494 4581 
L 2222 4581 
Q 2678 4581 2919 4538 
Q 3256 4481 3484 4323 
Q 3713 4166 3852 3881 
Q 3991 3597 3991 3256 
Q 3991 2672 3619 2267 
Q 3247 1863 2275 1863 
L 1100 1863 
L 1100 0 
L 494 0 
z
M 1100 2403 
L 2284 2403 
Q 2872 2403 3119 2622 
Q 3366 2841 3366 3238 
Q 3366 3525 3220 3729 
Q 3075 3934 2838 4000 
Q 2684 4041 2272 4041 
L 1100 4041 
L 1100 2403 
z
" transform="scale(0.015625)"/>
       <path id="ArialMT-45" d="M 506 0 
L 506 4581 
L 3819 4581 
L 3819 4041 
L 1113 4041 
L 1113 2638 
L 3647 2638 
L 3647 2100 
L 1113 2100 
L 1113 541 
L 3925 541 
L 3925 0 
L 506 0 
z
" transform="scale(0.015625)"/>
       <path id="ArialMT-2f" d="M 0 -78 
L 1328 4659 
L 1778 4659 
L 453 -78 
L 0 -78 
z
" transform="scale(0.015625)"/>
       <path id="ArialMT-43" d="M 3763 1606 
L 4369 1453 
Q 4178 706 3683 314 
Q 3188 -78 2472 -78 
Q 1731 -78 1267 223 
Q 803 525 561 1097 
Q 319 1669 319 2325 
Q 319 3041 592 3573 
Q 866 4106 1370 4382 
Q 1875 4659 2481 4659 
Q 3169 4659 3637 4309 
Q 4106 3959 4291 3325 
L 3694 3184 
Q 3534 3684 3231 3912 
Q 2928 4141 2469 4141 
Q 1941 4141 1586 3887 
Q 1231 3634 1087 3207 
Q 944 2781 944 2328 
Q 944 1744 1114 1308 
Q 1284 872 1643 656 
Q 2003 441 2422 441 
Q 2931 441 3284 734 
Q 3638 1028 3763 1606 
z
" transform="scale(0.015625)"/>
      </defs>
      <use xlink:href="#ArialMT-54"/>
      <use xlink:href="#ArialMT-4c" x="61.083984"/>
      <use xlink:href="#ArialMT-47" x="116.699219"/>
      <use xlink:href="#ArialMT-20" x="194.482422"/>
      <use xlink:href="#ArialMT-50" x="222.265625"/>
      <use xlink:href="#ArialMT-45" x="288.964844"/>
      <use xlink:href="#ArialMT-54" x="355.664062"/>
      <use xlink:href="#ArialMT-2f" x="416.748047"/>
      <use xlink:href="#ArialMT-43" x="444.53125"/>
      <use xlink:href="#ArialMT-54" x="516.748047"/>
     </g>
    </g>
   </g>
   <g id="matplotlib.axis_2">
    <g id="ytick_1">
     <g id="text_7">
      <!-- $\mathdefault{10^{-5}}$ -->
      <g style="fill: #262626" transform="translate(28.303196 334.109191)scale(0.11 -0.11)">
       <defs>
        <path id="ArialMT-2212" d="M 3381 1997 
L 356 1997 
L 356 2522 
L 3381 2522 
L 3381 1997 
z
" transform="scale(0.015625)"/>
        <path id="ArialMT-35" d="M 266 1200 
L 856 1250 
Q 922 819 1161 601 
Q 1400 384 1738 384 
Q 2144 384 2425 690 
Q 2706 997 2706 1503 
Q 2706 1984 2436 2262 
Q 2166 2541 1728 2541 
Q 1456 2541 1237 2417 
Q 1019 2294 894 2097 
L 366 2166 
L 809 4519 
L 3088 4519 
L 3088 3981 
L 1259 3981 
L 1013 2750 
Q 1425 3038 1878 3038 
Q 2478 3038 2890 2622 
Q 3303 2206 3303 1553 
Q 3303 931 2941 478 
Q 2500 -78 1738 -78 
Q 1113 -78 717 272 
Q 322 622 266 1200 
z
" transform="scale(0.015625)"/>
       </defs>
       <use xlink:href="#ArialMT-31" transform="translate(0 0.879688)"/>
       <use xlink:href="#ArialMT-30" transform="translate(55.615234 0.879688)"/>
       <use xlink:href="#ArialMT-2212" transform="translate(112.972813 70.573438)scale(0.7)"/>
       <use xlink:href="#ArialMT-35" transform="translate(153.851719 70.573438)scale(0.7)"/>
      </g>
     </g>
    </g>
    <g id="ytick_2">
     <g id="text_8">
      <!-- $\mathdefault{10^{-4}}$ -->
      <g style="fill: #262626" transform="translate(28.303196 275.794523)scale(0.11 -0.11)">
       <use xlink:href="#ArialMT-31" transform="translate(0 0.201563)"/>
       <use xlink:href="#ArialMT-30" transform="translate(55.615234 0.201563)"/>
       <use xlink:href="#ArialMT-2212" transform="translate(112.972813 69.895313)scale(0.7)"/>
       <use xlink:href="#ArialMT-34" transform="translate(153.851719 69.895313)scale(0.7)"/>
      </g>
     </g>
    </g>
    <g id="ytick_3">
     <g id="text_9">
      <!-- $\mathdefault{10^{-3}}$ -->
      <g style="fill: #262626" transform="translate(28.303196 217.534856)scale(0.11 -0.11)">
       <use xlink:href="#ArialMT-31" transform="translate(0 0.99375)"/>
       <use xlink:href="#ArialMT-30" transform="translate(55.615234 0.99375)"/>
       <use xlink:href="#ArialMT-2212" transform="translate(112.972813 70.6875)scale(0.7)"/>
       <use xlink:href="#ArialMT-33" transform="translate(153.851719 70.6875)scale(0.7)"/>
      </g>
     </g>
    </g>
    <g id="ytick_4">
     <g id="text_10">
      <!-- $\mathdefault{10^{-2}}$ -->
      <g style="fill: #262626" transform="translate(28.303196 159.220188)scale(0.11 -0.11)">
       <use xlink:href="#ArialMT-31" transform="translate(0 0.99375)"/>
       <use xlink:href="#ArialMT-30" transform="translate(55.615234 0.99375)"/>
       <use xlink:href="#ArialMT-2212" transform="translate(112.972813 70.6875)scale(0.7)"/>
       <use xlink:href="#ArialMT-32" transform="translate(153.851719 70.6875)scale(0.7)"/>
      </g>
     </g>
    </g>
    <g id="ytick_5">
     <g id="text_11">
      <!-- $\mathdefault{10^{-1}}$ -->
      <g style="fill: #262626" transform="translate(28.303196 100.90552)scale(0.11 -0.11)">
       <use xlink:href="#ArialMT-31" transform="translate(0 0.99375)"/>
       <use xlink:href="#ArialMT-30" transform="translate(55.615234 0.99375)"/>
       <use xlink:href="#ArialMT-2212" transform="translate(112.972813 70.6875)scale(0.7)"/>
       <use xlink:href="#ArialMT-31" transform="translate(153.851719 70.6875)scale(0.7)"/>
      </g>
     </g>
    </g>
    <g id="ytick_6">
     <g id="text_12">
      <!-- $\mathdefault{10^{0}}$ -->
      <g style="fill: #262626" transform="translate(32.813196 42.590853)scale(0.11 -0.11)">
       <use xlink:href="#ArialMT-31" transform="translate(0 0.99375)"/>
       <use xlink:href="#ArialMT-30" transform="translate(55.615234 0.99375)"/>
       <use xlink:href="#ArialMT-30" transform="translate(112.972813 70.6875)scale(0.7)"/>
      </g>
     </g>
    </g>
    <g id="ytick_7"/>
    <g id="ytick_8"/>
    <g id="ytick_9"/>
    <g id="ytick_10"/>
    <g id="ytick_11"/>
    <g id="ytick_12"/>
    <g id="ytick_13"/>
    <g id="ytick_14"/>
    <g id="ytick_15"/>
    <g id="ytick_16"/>
    <g id="ytick_17"/>
    <g id="ytick_18"/>
    <g id="ytick_19"/>
    <g id="ytick_20"/>
    <g id="ytick_21"/>
    <g id="ytick_22"/>
    <g id="ytick_23"/>
    <g id="ytick_24"/>
    <g id="ytick_25"/>
    <g id="ytick_26"/>
    <g id="ytick_27"/>
    <g id="ytick_28"/>
    <g id="ytick_29"/>
    <g id="ytick_30"/>
    <g id="ytick_31"/>
    <g id="ytick_32"/>
    <g id="ytick_33"/>
    <g id="ytick_34"/>
    <g id="ytick_35"/>
    <g id="ytick_36"/>
    <g id="ytick_37"/>
    <g id="ytick_38"/>
    <g id="ytick_39"/>
    <g id="ytick_40"/>
    <g id="ytick_41"/>
    <g id="ytick_42"/>
    <g id="ytick_43"/>
    <g id="ytick_44"/>
    <g id="ytick_45"/>
    <g id="ytick_46"/>
    <g id="ytick_47"/>
    <g id="ytick_48"/>
    <g id="ytick_49"/>
    <g id="ytick_50"/>
    <g id="ytick_51"/>
    <g id="ytick_52"/>
    <g id="ytick_53"/>
    <g id="ytick_54"/>
    <g id="text_13">
     <!-- Multi AF -->
     <g style="fill: #262626" transform="translate(21.918196 224.608219)rotate(-90)scale(0.12 -0.12)">
      <defs>
       <path id="ArialMT-4d" d="M 475 0 
L 475 4581 
L 1388 4581 
L 2472 1338 
Q 2622 884 2691 659 
Q 2769 909 2934 1394 
L 4031 4581 
L 4847 4581 
L 4847 0 
L 4263 0 
L 4263 3834 
L 2931 0 
L 2384 0 
L 1059 3900 
L 1059 0 
L 475 0 
z
" transform="scale(0.015625)"/>
       <path id="ArialMT-75" d="M 2597 0 
L 2597 488 
Q 2209 -75 1544 -75 
Q 1250 -75 995 37 
Q 741 150 617 320 
Q 494 491 444 738 
Q 409 903 409 1263 
L 409 3319 
L 972 3319 
L 972 1478 
Q 972 1038 1006 884 
Q 1059 663 1231 536 
Q 1403 409 1656 409 
Q 1909 409 2131 539 
Q 2353 669 2445 892 
Q 2538 1116 2538 1541 
L 2538 3319 
L 3100 3319 
L 3100 0 
L 2597 0 
z
" transform="scale(0.015625)"/>
       <path id="ArialMT-6c" d="M 409 0 
L 409 4581 
L 972 4581 
L 972 0 
L 409 0 
z
" transform="scale(0.015625)"/>
       <path id="ArialMT-74" d="M 1650 503 
L 1731 6 
Q 1494 -44 1306 -44 
Q 1000 -44 831 53 
Q 663 150 594 308 
Q 525 466 525 972 
L 525 2881 
L 113 2881 
L 113 3319 
L 525 3319 
L 525 4141 
L 1084 4478 
L 1084 3319 
L 1650 3319 
L 1650 2881 
L 1084 2881 
L 1084 941 
Q 1084 700 1114 631 
Q 1144 563 1211 522 
Q 1278 481 1403 481 
Q 1497 481 1650 503 
z
" transform="scale(0.015625)"/>
       <path id="ArialMT-69" d="M 425 3934 
L 425 4581 
L 988 4581 
L 988 3934 
L 425 3934 
z
M 425 0 
L 425 3319 
L 988 3319 
L 988 0 
L 425 0 
z
" transform="scale(0.015625)"/>
       <path id="ArialMT-41" d="M -9 0 
L 1750 4581 
L 2403 4581 
L 4278 0 
L 3588 0 
L 3053 1388 
L 1138 1388 
L 634 0 
L -9 0 
z
M 1313 1881 
L 2866 1881 
L 2388 3150 
Q 2169 3728 2063 4100 
Q 1975 3659 1816 3225 
L 1313 1881 
z
" transform="scale(0.015625)"/>
       <path id="ArialMT-46" d="M 525 0 
L 525 4581 
L 3616 4581 
L 3616 4041 
L 1131 4041 
L 1131 2622 
L 3281 2622 
L 3281 2081 
L 1131 2081 
L 1131 0 
L 525 0 
z
" transform="scale(0.015625)"/>
      </defs>
      <use xlink:href="#ArialMT-4d"/>
      <use xlink:href="#ArialMT-75" x="83.300781"/>
      <use xlink:href="#ArialMT-6c" x="138.916016"/>
      <use xlink:href="#ArialMT-74" x="161.132812"/>
      <use xlink:href="#ArialMT-69" x="188.916016"/>
      <use xlink:href="#ArialMT-20" x="211.132812"/>
      <use xlink:href="#ArialMT-41" x="233.416016"/>
      <use xlink:href="#ArialMT-46" x="300.115234"/>
     </g>
    </g>
   </g>
   <g id="PathCollection_1">
    <defs>
     <path id="md832b0efca" d="M 0 3 
C 0.795609 3 1.55874 2.683901 2.12132 2.12132 
C 2.683901 1.55874 3 0.795609 3 0 
C 3 -0.795609 2.683901 -1.55874 2.12132 -2.12132 
C 1.55874 -2.683901 0.795609 -3 0 -3 
C -0.795609 -3 -1.55874 -2.683901 -2.12132 -2.12132 
C -2.683901 -1.55874 -3 -0.795609 -3 0 
C -3 0.795609 -2.683901 1.55874 -2.12132 2.12132 
C -1.55874 2.683901 -0.795609 3 0 3 
z
" style="stroke: #4c72b0"/>
    </defs>
    <g clip-path="url(#p37b31774f8)">
     <use xlink:href="#md832b0efca" x="75.922142" y="204.789475" style="fill: #4c72b0; stroke: #4c72b0"/>
     <use xlink:href="#md832b0efca" x="75.922142" y="362.975886" style="fill: #4c72b0; stroke: #4c72b0"/>
     <use xlink:href="#md832b0efca" x="75.922142" y="220.639241" style="fill: #4c72b0; stroke: #4c72b0"/>
     <use xlink:href="#md832b0efca" x="75.922142" y="335.152718" style="fill: #4c72b0; stroke: #4c72b0"/>
     <use xlink:href="#md832b0efca" x="75.922142" y="303.652773" style="fill: #4c72b0; stroke: #4c72b0"/>
     <use xlink:href="#md832b0efca" x="75.922142" y="312.82687" style="fill: #4c72b0; stroke: #4c72b0"/>
     <use xlink:href="#md832b0efca" x="111.100703" y="311.690525" style="fill: #4c72b0; stroke: #4c72b0"/>
     <use xlink:href="#md832b0efca" x="158.550156" y="362.975886" style="fill: #4c72b0; stroke: #4c72b0"/>
     <use xlink:href="#md832b0efca" x="159.772593" y="284.729696" style="fill: #4c72b0; stroke: #4c72b0"/>
     <use xlink:href="#md832b0efca" x="164.014563" y="263.031652" style="fill: #4c72b0; stroke: #4c72b0"/>
     <use xlink:href="#md832b0efca" x="165.244016" y="322.864502" style="fill: #4c72b0; stroke: #4c72b0"/>
     <use xlink:href="#md832b0efca" x="167.648275" y="362.975886" style="fill: #4c72b0; stroke: #4c72b0"/>
     <use xlink:href="#md832b0efca" x="178.659044" y="277.51911" style="fill: #4c72b0; stroke: #4c72b0"/>
     <use xlink:href="#md832b0efca" x="181.654448" y="188.912082" style="fill: #4c72b0; stroke: #4c72b0"/>
     <use xlink:href="#md832b0efca" x="188.51353" y="261.425295" style="fill: #4c72b0; stroke: #4c72b0"/>
     <use xlink:href="#md832b0efca" x="189.018477" y="274.535416" style="fill: #4c72b0; stroke: #4c72b0"/>
     <use xlink:href="#md832b0efca" x="194.094085" y="362.975886" style="fill: #4c72b0; stroke: #4c72b0"/>
     <use xlink:href="#md832b0efca" x="194.099065" y="362.975886" style="fill: #4c72b0; stroke: #4c72b0"/>
     <use xlink:href="#md832b0efca" x="194.576823" y="263.938104" style="fill: #4c72b0; stroke: #4c72b0"/>
     <use xlink:href="#md832b0efca" x="198.245105" y="362.975886" style="fill: #4c72b0; stroke: #4c72b0"/>
     <use xlink:href="#md832b0efca" x="198.669311" y="249.49509" style="fill: #4c72b0; stroke: #4c72b0"/>
     <use xlink:href="#md832b0efca" x="205.087328" y="258.331598" style="fill: #4c72b0; stroke: #4c72b0"/>
     <use xlink:href="#md832b0efca" x="207.725446" y="327.192145" style="fill: #4c72b0; stroke: #4c72b0"/>
     <use xlink:href="#md832b0efca" x="207.879515" y="179.110576" style="fill: #4c72b0; stroke: #4c72b0"/>
     <use xlink:href="#md832b0efca" x="210.34778" y="362.975886" style="fill: #4c72b0; stroke: #4c72b0"/>
     <use xlink:href="#md832b0efca" x="212.580244" y="286.096728" style="fill: #4c72b0; stroke: #4c72b0"/>
     <use xlink:href="#md832b0efca" x="213.225083" y="204.024185" style="fill: #4c72b0; stroke: #4c72b0"/>
     <use xlink:href="#md832b0efca" x="213.90702" y="315.209424" style="fill: #4c72b0; stroke: #4c72b0"/>
     <use xlink:href="#md832b0efca" x="224.71995" y="162.554784" style="fill: #4c72b0; stroke: #4c72b0"/>
     <use xlink:href="#md832b0efca" x="229.209797" y="171.864486" style="fill: #4c72b0; stroke: #4c72b0"/>
     <use xlink:href="#md832b0efca" x="229.599952" y="148.572988" style="fill: #4c72b0; stroke: #4c72b0"/>
     <use xlink:href="#md832b0efca" x="233.709943" y="190.828886" style="fill: #4c72b0; stroke: #4c72b0"/>
     <use xlink:href="#md832b0efca" x="235.992715" y="362.975886" style="fill: #4c72b0; stroke: #4c72b0"/>
     <use xlink:href="#md832b0efca" x="236.109414" y="73.35516" style="fill: #4c72b0; stroke: #4c72b0"/>
     <use xlink:href="#md832b0efca" x="240.418401" y="213.185286" style="fill: #4c72b0; stroke: #4c72b0"/>
     <use xlink:href="#md832b0efca" x="244.968565" y="152.114944" style="fill: #4c72b0; stroke: #4c72b0"/>
     <use xlink:href="#md832b0efca" x="246.785999" y="156.733632" style="fill: #4c72b0; stroke: #4c72b0"/>
     <use xlink:href="#md832b0efca" x="246.929293" y="226.163008" style="fill: #4c72b0; stroke: #4c72b0"/>
     <use xlink:href="#md832b0efca" x="247.367418" y="188.698852" style="fill: #4c72b0; stroke: #4c72b0"/>
     <use xlink:href="#md832b0efca" x="248.301459" y="67.495167" style="fill: #4c72b0; stroke: #4c72b0"/>
     <use xlink:href="#md832b0efca" x="251.805374" y="180.120914" style="fill: #4c72b0; stroke: #4c72b0"/>
     <use xlink:href="#md832b0efca" x="252.115921" y="209.518287" style="fill: #4c72b0; stroke: #4c72b0"/>
     <use xlink:href="#md832b0efca" x="253.244463" y="157.948627" style="fill: #4c72b0; stroke: #4c72b0"/>
     <use xlink:href="#md832b0efca" x="253.543618" y="218.606566" style="fill: #4c72b0; stroke: #4c72b0"/>
     <use xlink:href="#md832b0efca" x="257.923395" y="190.668253" style="fill: #4c72b0; stroke: #4c72b0"/>
     <use xlink:href="#md832b0efca" x="261.700854" y="219.718923" style="fill: #4c72b0; stroke: #4c72b0"/>
     <use xlink:href="#md832b0efca" x="266.987063" y="173.463593" style="fill: #4c72b0; stroke: #4c72b0"/>
     <use xlink:href="#md832b0efca" x="268.800848" y="234.041205" style="fill: #4c72b0; stroke: #4c72b0"/>
     <use xlink:href="#md832b0efca" x="271.199573" y="172.85687" style="fill: #4c72b0; stroke: #4c72b0"/>
     <use xlink:href="#md832b0efca" x="275.104833" y="198.761437" style="fill: #4c72b0; stroke: #4c72b0"/>
     <use xlink:href="#md832b0efca" x="275.421631" y="126.742985" style="fill: #4c72b0; stroke: #4c72b0"/>
     <use xlink:href="#md832b0efca" x="278.587272" y="95.139466" style="fill: #4c72b0; stroke: #4c72b0"/>
     <use xlink:href="#md832b0efca" x="285.006056" y="257.84982" style="fill: #4c72b0; stroke: #4c72b0"/>
     <use xlink:href="#md832b0efca" x="285.785397" y="247.076305" style="fill: #4c72b0; stroke: #4c72b0"/>
     <use xlink:href="#md832b0efca" x="286.950324" y="206.739295" style="fill: #4c72b0; stroke: #4c72b0"/>
     <use xlink:href="#md832b0efca" x="287.141421" y="131.961347" style="fill: #4c72b0; stroke: #4c72b0"/>
     <use xlink:href="#md832b0efca" x="288.22522" y="362.975886" style="fill: #4c72b0; stroke: #4c72b0"/>
     <use xlink:href="#md832b0efca" x="289.314135" y="142.403577" style="fill: #4c72b0; stroke: #4c72b0"/>
     <use xlink:href="#md832b0efca" x="294.023806" y="195.661432" style="fill: #4c72b0; stroke: #4c72b0"/>
     <use xlink:href="#md832b0efca" x="294.671857" y="112.999225" style="fill: #4c72b0; stroke: #4c72b0"/>
     <use xlink:href="#md832b0efca" x="295.498964" y="117.678303" style="fill: #4c72b0; stroke: #4c72b0"/>
     <use xlink:href="#md832b0efca" x="303.708069" y="190.176952" style="fill: #4c72b0; stroke: #4c72b0"/>
     <use xlink:href="#md832b0efca" x="312.118688" y="188.708324" style="fill: #4c72b0; stroke: #4c72b0"/>
     <use xlink:href="#md832b0efca" x="313.816022" y="127.384876" style="fill: #4c72b0; stroke: #4c72b0"/>
     <use xlink:href="#md832b0efca" x="313.885928" y="58.139853" style="fill: #4c72b0; stroke: #4c72b0"/>
     <use xlink:href="#md832b0efca" x="314.648181" y="157.035219" style="fill: #4c72b0; stroke: #4c72b0"/>
     <use xlink:href="#md832b0efca" x="321.420728" y="129.385383" style="fill: #4c72b0; stroke: #4c72b0"/>
     <use xlink:href="#md832b0efca" x="322.438554" y="78.805669" style="fill: #4c72b0; stroke: #4c72b0"/>
     <use xlink:href="#md832b0efca" x="323.223624" y="362.975886" style="fill: #4c72b0; stroke: #4c72b0"/>
     <use xlink:href="#md832b0efca" x="324.044515" y="132.865796" style="fill: #4c72b0; stroke: #4c72b0"/>
     <use xlink:href="#md832b0efca" x="324.887901" y="362.975886" style="fill: #4c72b0; stroke: #4c72b0"/>
     <use xlink:href="#md832b0efca" x="326.377391" y="254.108724" style="fill: #4c72b0; stroke: #4c72b0"/>
     <use xlink:href="#md832b0efca" x="332.348242" y="189.123358" style="fill: #4c72b0; stroke: #4c72b0"/>
     <use xlink:href="#md832b0efca" x="336.455304" y="113.61281" style="fill: #4c72b0; stroke: #4c72b0"/>
     <use xlink:href="#md832b0efca" x="338.494067" y="83.526072" style="fill: #4c72b0; stroke: #4c72b0"/>
     <use xlink:href="#md832b0efca" x="339.92751" y="117.440244" style="fill: #4c72b0; stroke: #4c72b0"/>
     <use xlink:href="#md832b0efca" x="342.929049" y="129.067502" style="fill: #4c72b0; stroke: #4c72b0"/>
     <use xlink:href="#md832b0efca" x="346.751547" y="108.718868" style="fill: #4c72b0; stroke: #4c72b0"/>
     <use xlink:href="#md832b0efca" x="349.227237" y="73.916336" style="fill: #4c72b0; stroke: #4c72b0"/>
     <use xlink:href="#md832b0efca" x="351.167641" y="151.432781" style="fill: #4c72b0; stroke: #4c72b0"/>
     <use xlink:href="#md832b0efca" x="353.464272" y="81.004983" style="fill: #4c72b0; stroke: #4c72b0"/>
     <use xlink:href="#md832b0efca" x="355.100125" y="93.599874" style="fill: #4c72b0; stroke: #4c72b0"/>
     <use xlink:href="#md832b0efca" x="357.157653" y="74.73408" style="fill: #4c72b0; stroke: #4c72b0"/>
     <use xlink:href="#md832b0efca" x="366.452643" y="87.217817" style="fill: #4c72b0; stroke: #4c72b0"/>
     <use xlink:href="#md832b0efca" x="367.481255" y="275.821315" style="fill: #4c72b0; stroke: #4c72b0"/>
     <use xlink:href="#md832b0efca" x="369.182256" y="79.471371" style="fill: #4c72b0; stroke: #4c72b0"/>
     <use xlink:href="#md832b0efca" x="376.482279" y="71.3755" style="fill: #4c72b0; stroke: #4c72b0"/>
     <use xlink:href="#md832b0efca" x="385.70396" y="79.915338" style="fill: #4c72b0; stroke: #4c72b0"/>
     <use xlink:href="#md832b0efca" x="387.718508" y="95.688285" style="fill: #4c72b0; stroke: #4c72b0"/>
     <use xlink:href="#md832b0efca" x="402.701054" y="123.577442" style="fill: #4c72b0; stroke: #4c72b0"/>
    </g>
   </g>
   <g id="line2d_1">
    <path d="M 75.922142 336.705112 
L 75.922142 336.705112 
L 75.922142 336.705112 
L 75.922142 336.705112 
L 75.922142 336.705112 
L 75.922142 336.705112 
L 111.100703 310.907106 
L 158.550156 276.110309 
L 159.772593 275.213842 
L 164.014563 272.103016 
L 165.244016 271.201403 
L 167.648275 269.438253 
L 178.659044 261.363566 
L 181.654448 259.166903 
L 188.51353 254.136832 
L 189.018477 253.766532 
L 194.094085 250.044363 
L 194.099065 250.040711 
L 194.576823 249.690349 
L 198.245105 247.000235 
L 198.669311 246.689145 
L 205.087328 241.982528 
L 207.725446 240.047878 
L 207.879515 239.934893 
L 210.34778 238.124804 
L 212.580244 236.487639 
L 213.225083 236.014749 
L 213.90702 235.514655 
L 224.71995 227.585052 
L 229.209797 224.292447 
L 229.599952 224.006329 
L 233.709943 220.992289 
L 235.992715 219.318231 
L 236.109414 219.23265 
L 240.418401 216.072678 
L 244.968565 212.735841 
L 246.785999 211.403035 
L 246.929293 211.297951 
L 247.367418 210.976655 
L 248.301459 210.291681 
L 251.805374 207.722104 
L 252.115921 207.494366 
L 253.244463 206.666756 
L 253.543618 206.447372 
L 257.923395 203.235486 
L 261.700854 200.465307 
L 266.987063 196.588695 
L 268.800848 195.258566 
L 271.199573 193.499474 
L 275.104833 190.635573 
L 275.421631 190.40325 
L 278.587272 188.081745 
L 285.006056 183.374565 
L 285.785397 182.803039 
L 286.950324 181.948747 
L 287.141421 181.808607 
L 288.22522 181.013809 
L 289.314135 180.215259 
L 294.023806 176.761447 
L 294.671857 176.286203 
L 295.498964 175.679648 
L 303.708069 169.659546 
L 312.118688 163.491664 
L 313.816022 162.246934 
L 313.885928 162.195668 
L 314.648181 161.636674 
L 321.420728 156.670064 
L 322.438554 155.923647 
L 323.223624 155.34792 
L 324.044515 154.745924 
L 324.887901 154.127432 
L 326.377391 153.035123 
L 332.348242 148.656431 
L 336.455304 145.64454 
L 338.494067 144.149424 
L 339.92751 143.098217 
L 342.929049 140.897054 
L 346.751547 138.093846 
L 349.227237 136.278313 
L 351.167641 134.855328 
L 353.464272 133.171106 
L 355.100125 131.971462 
L 357.157653 130.462585 
L 366.452643 123.646155 
L 367.481255 122.891828 
L 369.182256 121.644408 
L 376.482279 116.290976 
L 385.70396 109.528307 
L 387.718508 108.050949 
L 402.701054 97.06358 
" clip-path="url(#p37b31774f8)" style="fill: none; stroke-dasharray: 7.4,3.2; stroke-dashoffset: 0; stroke: #808080; stroke-width: 2"/>
   </g>
   <g id="patch_3">
    <path d="M 59.583196 378.217687 
L 59.583196 27.65625 
" style="fill: none; stroke: #262626; stroke-width: 1.25; stroke-linejoin: miter; stroke-linecap: square"/>
   </g>
   <g id="patch_4">
    <path d="M 419.04 378.217687 
L 419.04 27.65625 
" style="fill: none; stroke: #262626; stroke-width: 1.25; stroke-linejoin: miter; stroke-linecap: square"/>
   </g>
   <g id="patch_5">
    <path d="M 59.583196 378.217688 
L 419.04 378.217688 
" style="fill: none; stroke: #262626; stroke-width: 1.25; stroke-linejoin: miter; stroke-linecap: square"/>
   </g>
   <g id="patch_6">
    <path d="M 59.583196 27.65625 
L 419.04 27.65625 
" style="fill: none; stroke: #262626; stroke-width: 1.25; stroke-linejoin: miter; stroke-linecap: square"/>
   </g>
   <g id="text_14">
    <!-- n = 90, Spearman's rho = 0.67 (p&lt;0.001) -->
    <g style="fill: #1a1a1a" transform="translate(198.691682 41.678707)scale(0.12 -0.12)">
     <defs>
      <path id="ArialMT-6e" d="M 422 0 
L 422 3319 
L 928 3319 
L 928 2847 
Q 1294 3394 1984 3394 
Q 2284 3394 2536 3286 
Q 2788 3178 2913 3003 
Q 3038 2828 3088 2588 
Q 3119 2431 3119 2041 
L 3119 0 
L 2556 0 
L 2556 2019 
Q 2556 2363 2490 2533 
Q 2425 2703 2258 2804 
Q 2091 2906 1866 2906 
Q 1506 2906 1245 2678 
Q 984 2450 984 1813 
L 984 0 
L 422 0 
z
" transform="scale(0.015625)"/>
      <path id="ArialMT-3d" d="M 3381 2694 
L 356 2694 
L 356 3219 
L 3381 3219 
L 3381 2694 
z
M 3381 1303 
L 356 1303 
L 356 1828 
L 3381 1828 
L 3381 1303 
z
" transform="scale(0.015625)"/>
      <path id="ArialMT-39" d="M 350 1059 
L 891 1109 
Q 959 728 1153 556 
Q 1347 384 1650 384 
Q 1909 384 2104 503 
Q 2300 622 2425 820 
Q 2550 1019 2634 1356 
Q 2719 1694 2719 2044 
Q 2719 2081 2716 2156 
Q 2547 1888 2255 1720 
Q 1963 1553 1622 1553 
Q 1053 1553 659 1965 
Q 266 2378 266 3053 
Q 266 3750 677 4175 
Q 1088 4600 1706 4600 
Q 2153 4600 2523 4359 
Q 2894 4119 3086 3673 
Q 3278 3228 3278 2384 
Q 3278 1506 3087 986 
Q 2897 466 2520 194 
Q 2144 -78 1638 -78 
Q 1100 -78 759 220 
Q 419 519 350 1059 
z
M 2653 3081 
Q 2653 3566 2395 3850 
Q 2138 4134 1775 4134 
Q 1400 4134 1122 3828 
Q 844 3522 844 3034 
Q 844 2597 1108 2323 
Q 1372 2050 1759 2050 
Q 2150 2050 2401 2323 
Q 2653 2597 2653 3081 
z
" transform="scale(0.015625)"/>
      <path id="ArialMT-2c" d="M 569 0 
L 569 641 
L 1209 641 
L 1209 0 
Q 1209 -353 1084 -570 
Q 959 -788 688 -906 
L 531 -666 
Q 709 -588 793 -436 
Q 878 -284 888 0 
L 569 0 
z
" transform="scale(0.015625)"/>
      <path id="ArialMT-53" d="M 288 1472 
L 859 1522 
Q 900 1178 1048 958 
Q 1197 738 1509 602 
Q 1822 466 2213 466 
Q 2559 466 2825 569 
Q 3091 672 3220 851 
Q 3350 1031 3350 1244 
Q 3350 1459 3225 1620 
Q 3100 1781 2813 1891 
Q 2628 1963 1997 2114 
Q 1366 2266 1113 2400 
Q 784 2572 623 2826 
Q 463 3081 463 3397 
Q 463 3744 659 4045 
Q 856 4347 1234 4503 
Q 1613 4659 2075 4659 
Q 2584 4659 2973 4495 
Q 3363 4331 3572 4012 
Q 3781 3694 3797 3291 
L 3216 3247 
Q 3169 3681 2898 3903 
Q 2628 4125 2100 4125 
Q 1550 4125 1298 3923 
Q 1047 3722 1047 3438 
Q 1047 3191 1225 3031 
Q 1400 2872 2139 2705 
Q 2878 2538 3153 2413 
Q 3553 2228 3743 1945 
Q 3934 1663 3934 1294 
Q 3934 928 3725 604 
Q 3516 281 3123 101 
Q 2731 -78 2241 -78 
Q 1619 -78 1198 103 
Q 778 284 539 648 
Q 300 1013 288 1472 
z
" transform="scale(0.015625)"/>
      <path id="ArialMT-70" d="M 422 -1272 
L 422 3319 
L 934 3319 
L 934 2888 
Q 1116 3141 1344 3267 
Q 1572 3394 1897 3394 
Q 2322 3394 2647 3175 
Q 2972 2956 3137 2557 
Q 3303 2159 3303 1684 
Q 3303 1175 3120 767 
Q 2938 359 2589 142 
Q 2241 -75 1856 -75 
Q 1575 -75 1351 44 
Q 1128 163 984 344 
L 984 -1272 
L 422 -1272 
z
M 931 1641 
Q 931 1000 1190 694 
Q 1450 388 1819 388 
Q 2194 388 2461 705 
Q 2728 1022 2728 1688 
Q 2728 2322 2467 2637 
Q 2206 2953 1844 2953 
Q 1484 2953 1207 2617 
Q 931 2281 931 1641 
z
" transform="scale(0.015625)"/>
      <path id="ArialMT-65" d="M 2694 1069 
L 3275 997 
Q 3138 488 2766 206 
Q 2394 -75 1816 -75 
Q 1088 -75 661 373 
Q 234 822 234 1631 
Q 234 2469 665 2931 
Q 1097 3394 1784 3394 
Q 2450 3394 2872 2941 
Q 3294 2488 3294 1666 
Q 3294 1616 3291 1516 
L 816 1516 
Q 847 969 1125 678 
Q 1403 388 1819 388 
Q 2128 388 2347 550 
Q 2566 713 2694 1069 
z
M 847 1978 
L 2700 1978 
Q 2663 2397 2488 2606 
Q 2219 2931 1791 2931 
Q 1403 2931 1139 2672 
Q 875 2413 847 1978 
z
" transform="scale(0.015625)"/>
      <path id="ArialMT-61" d="M 2588 409 
Q 2275 144 1986 34 
Q 1697 -75 1366 -75 
Q 819 -75 525 192 
Q 231 459 231 875 
Q 231 1119 342 1320 
Q 453 1522 633 1644 
Q 813 1766 1038 1828 
Q 1203 1872 1538 1913 
Q 2219 1994 2541 2106 
Q 2544 2222 2544 2253 
Q 2544 2597 2384 2738 
Q 2169 2928 1744 2928 
Q 1347 2928 1158 2789 
Q 969 2650 878 2297 
L 328 2372 
Q 403 2725 575 2942 
Q 747 3159 1072 3276 
Q 1397 3394 1825 3394 
Q 2250 3394 2515 3294 
Q 2781 3194 2906 3042 
Q 3031 2891 3081 2659 
Q 3109 2516 3109 2141 
L 3109 1391 
Q 3109 606 3145 398 
Q 3181 191 3288 0 
L 2700 0 
Q 2613 175 2588 409 
z
M 2541 1666 
Q 2234 1541 1622 1453 
Q 1275 1403 1131 1340 
Q 988 1278 909 1158 
Q 831 1038 831 891 
Q 831 666 1001 516 
Q 1172 366 1500 366 
Q 1825 366 2078 508 
Q 2331 650 2450 897 
Q 2541 1088 2541 1459 
L 2541 1666 
z
" transform="scale(0.015625)"/>
      <path id="ArialMT-72" d="M 416 0 
L 416 3319 
L 922 3319 
L 922 2816 
Q 1116 3169 1280 3281 
Q 1444 3394 1641 3394 
Q 1925 3394 2219 3213 
L 2025 2691 
Q 1819 2813 1613 2813 
Q 1428 2813 1281 2702 
Q 1134 2591 1072 2394 
Q 978 2094 978 1738 
L 978 0 
L 416 0 
z
" transform="scale(0.015625)"/>
      <path id="ArialMT-6d" d="M 422 0 
L 422 3319 
L 925 3319 
L 925 2853 
Q 1081 3097 1340 3245 
Q 1600 3394 1931 3394 
Q 2300 3394 2536 3241 
Q 2772 3088 2869 2813 
Q 3263 3394 3894 3394 
Q 4388 3394 4653 3120 
Q 4919 2847 4919 2278 
L 4919 0 
L 4359 0 
L 4359 2091 
Q 4359 2428 4304 2576 
Q 4250 2725 4106 2815 
Q 3963 2906 3769 2906 
Q 3419 2906 3187 2673 
Q 2956 2441 2956 1928 
L 2956 0 
L 2394 0 
L 2394 2156 
Q 2394 2531 2256 2718 
Q 2119 2906 1806 2906 
Q 1569 2906 1367 2781 
Q 1166 2656 1075 2415 
Q 984 2175 984 1722 
L 984 0 
L 422 0 
z
" transform="scale(0.015625)"/>
      <path id="ArialMT-27" d="M 425 2959 
L 281 3816 
L 281 4581 
L 922 4581 
L 922 3816 
L 772 2959 
L 425 2959 
z
" transform="scale(0.015625)"/>
      <path id="ArialMT-73" d="M 197 991 
L 753 1078 
Q 800 744 1014 566 
Q 1228 388 1613 388 
Q 2000 388 2187 545 
Q 2375 703 2375 916 
Q 2375 1106 2209 1216 
Q 2094 1291 1634 1406 
Q 1016 1563 777 1677 
Q 538 1791 414 1992 
Q 291 2194 291 2438 
Q 291 2659 392 2848 
Q 494 3038 669 3163 
Q 800 3259 1026 3326 
Q 1253 3394 1513 3394 
Q 1903 3394 2198 3281 
Q 2494 3169 2634 2976 
Q 2775 2784 2828 2463 
L 2278 2388 
Q 2241 2644 2061 2787 
Q 1881 2931 1553 2931 
Q 1166 2931 1000 2803 
Q 834 2675 834 2503 
Q 834 2394 903 2306 
Q 972 2216 1119 2156 
Q 1203 2125 1616 2013 
Q 2213 1853 2448 1751 
Q 2684 1650 2818 1456 
Q 2953 1263 2953 975 
Q 2953 694 2789 445 
Q 2625 197 2315 61 
Q 2006 -75 1616 -75 
Q 969 -75 630 194 
Q 291 463 197 991 
z
" transform="scale(0.015625)"/>
      <path id="ArialMT-68" d="M 422 0 
L 422 4581 
L 984 4581 
L 984 2938 
Q 1378 3394 1978 3394 
Q 2347 3394 2619 3248 
Q 2891 3103 3008 2847 
Q 3125 2591 3125 2103 
L 3125 0 
L 2563 0 
L 2563 2103 
Q 2563 2525 2380 2717 
Q 2197 2909 1863 2909 
Q 1613 2909 1392 2779 
Q 1172 2650 1078 2428 
Q 984 2206 984 1816 
L 984 0 
L 422 0 
z
" transform="scale(0.015625)"/>
      <path id="ArialMT-6f" d="M 213 1659 
Q 213 2581 725 3025 
Q 1153 3394 1769 3394 
Q 2453 3394 2887 2945 
Q 3322 2497 3322 1706 
Q 3322 1066 3130 698 
Q 2938 331 2570 128 
Q 2203 -75 1769 -75 
Q 1072 -75 642 372 
Q 213 819 213 1659 
z
M 791 1659 
Q 791 1022 1069 705 
Q 1347 388 1769 388 
Q 2188 388 2466 706 
Q 2744 1025 2744 1678 
Q 2744 2294 2464 2611 
Q 2184 2928 1769 2928 
Q 1347 2928 1069 2612 
Q 791 2297 791 1659 
z
" transform="scale(0.015625)"/>
      <path id="ArialMT-2e" d="M 581 0 
L 581 641 
L 1222 641 
L 1222 0 
L 581 0 
z
" transform="scale(0.015625)"/>
      <path id="ArialMT-36" d="M 3184 3459 
L 2625 3416 
Q 2550 3747 2413 3897 
Q 2184 4138 1850 4138 
Q 1581 4138 1378 3988 
Q 1113 3794 959 3422 
Q 806 3050 800 2363 
Q 1003 2672 1297 2822 
Q 1591 2972 1913 2972 
Q 2475 2972 2870 2558 
Q 3266 2144 3266 1488 
Q 3266 1056 3080 686 
Q 2894 316 2569 119 
Q 2244 -78 1831 -78 
Q 1128 -78 684 439 
Q 241 956 241 2144 
Q 241 3472 731 4075 
Q 1159 4600 1884 4600 
Q 2425 4600 2770 4297 
Q 3116 3994 3184 3459 
z
M 888 1484 
Q 888 1194 1011 928 
Q 1134 663 1356 523 
Q 1578 384 1822 384 
Q 2178 384 2434 671 
Q 2691 959 2691 1453 
Q 2691 1928 2437 2201 
Q 2184 2475 1800 2475 
Q 1419 2475 1153 2201 
Q 888 1928 888 1484 
z
" transform="scale(0.015625)"/>
      <path id="ArialMT-37" d="M 303 3981 
L 303 4522 
L 3269 4522 
L 3269 4084 
Q 2831 3619 2401 2847 
Q 1972 2075 1738 1259 
Q 1569 684 1522 0 
L 944 0 
Q 953 541 1156 1306 
Q 1359 2072 1739 2783 
Q 2119 3494 2547 3981 
L 303 3981 
z
" transform="scale(0.015625)"/>
      <path id="ArialMT-28" d="M 1497 -1347 
Q 1031 -759 709 28 
Q 388 816 388 1659 
Q 388 2403 628 3084 
Q 909 3875 1497 4659 
L 1900 4659 
Q 1522 4009 1400 3731 
Q 1209 3300 1100 2831 
Q 966 2247 966 1656 
Q 966 153 1900 -1347 
L 1497 -1347 
z
" transform="scale(0.015625)"/>
      <path id="ArialMT-3c" d="M 350 2003 
L 350 2528 
L 3384 3809 
L 3384 3250 
L 978 2263 
L 3384 1266 
L 3384 706 
L 350 2003 
z
" transform="scale(0.015625)"/>
      <path id="ArialMT-29" d="M 791 -1347 
L 388 -1347 
Q 1322 153 1322 1656 
Q 1322 2244 1188 2822 
Q 1081 3291 891 3722 
Q 769 4003 388 4659 
L 791 4659 
Q 1378 3875 1659 3084 
Q 1900 2403 1900 1659 
Q 1900 816 1576 28 
Q 1253 -759 791 -1347 
z
" transform="scale(0.015625)"/>
     </defs>
     <use xlink:href="#ArialMT-6e"/>
     <use xlink:href="#ArialMT-20" x="55.615234"/>
     <use xlink:href="#ArialMT-3d" x="83.398438"/>
     <use xlink:href="#ArialMT-20" x="141.796875"/>
     <use xlink:href="#ArialMT-39" x="169.580078"/>
     <use xlink:href="#ArialMT-30" x="225.195312"/>
     <use xlink:href="#ArialMT-2c" x="280.810547"/>
     <use xlink:href="#ArialMT-20" x="308.59375"/>
     <use xlink:href="#ArialMT-53" x="336.376953"/>
     <use xlink:href="#ArialMT-70" x="403.076172"/>
     <use xlink:href="#ArialMT-65" x="458.691406"/>
     <use xlink:href="#ArialMT-61" x="514.306641"/>
     <use xlink:href="#ArialMT-72" x="569.921875"/>
     <use xlink:href="#ArialMT-6d" x="603.222656"/>
     <use xlink:href="#ArialMT-61" x="686.523438"/>
     <use xlink:href="#ArialMT-6e" x="742.138672"/>
     <use xlink:href="#ArialMT-27" x="797.753906"/>
     <use xlink:href="#ArialMT-73" x="816.845703"/>
     <use xlink:href="#ArialMT-20" x="866.845703"/>
     <use xlink:href="#ArialMT-72" x="894.628906"/>
     <use xlink:href="#ArialMT-68" x="927.929688"/>
     <use xlink:href="#ArialMT-6f" x="983.544922"/>
     <use xlink:href="#ArialMT-20" x="1039.160156"/>
     <use xlink:href="#ArialMT-3d" x="1066.943359"/>
     <use xlink:href="#ArialMT-20" x="1125.341797"/>
     <use xlink:href="#ArialMT-30" x="1153.125"/>
     <use xlink:href="#ArialMT-2e" x="1208.740234"/>
     <use xlink:href="#ArialMT-36" x="1236.523438"/>
     <use xlink:href="#ArialMT-37" x="1292.138672"/>
     <use xlink:href="#ArialMT-20" x="1347.753906"/>
     <use xlink:href="#ArialMT-28" x="1375.537109"/>
     <use xlink:href="#ArialMT-70" x="1408.837891"/>
     <use xlink:href="#ArialMT-3c" x="1464.453125"/>
     <use xlink:href="#ArialMT-30" x="1522.851562"/>
     <use xlink:href="#ArialMT-2e" x="1578.466797"/>
     <use xlink:href="#ArialMT-30" x="1606.25"/>
     <use xlink:href="#ArialMT-30" x="1661.865234"/>
     <use xlink:href="#ArialMT-31" x="1717.480469"/>
     <use xlink:href="#ArialMT-29" x="1773.095703"/>
    </g>
   </g>
   <g id="text_15">
    <!-- Correlation of liquid biopsies and PET/CT -->
    <g style="fill: #262626" transform="translate(129.264098 21.65625)scale(0.12 -0.12)">
     <defs>
      <path id="ArialMT-66" d="M 556 0 
L 556 2881 
L 59 2881 
L 59 3319 
L 556 3319 
L 556 3672 
Q 556 4006 616 4169 
Q 697 4388 901 4523 
Q 1106 4659 1475 4659 
Q 1713 4659 2000 4603 
L 1916 4113 
Q 1741 4144 1584 4144 
Q 1328 4144 1222 4034 
Q 1116 3925 1116 3625 
L 1116 3319 
L 1763 3319 
L 1763 2881 
L 1116 2881 
L 1116 0 
L 556 0 
z
" transform="scale(0.015625)"/>
      <path id="ArialMT-71" d="M 2538 -1272 
L 2538 353 
Q 2406 169 2170 47 
Q 1934 -75 1669 -75 
Q 1078 -75 651 397 
Q 225 869 225 1691 
Q 225 2191 398 2587 
Q 572 2984 901 3189 
Q 1231 3394 1625 3394 
Q 2241 3394 2594 2875 
L 2594 3319 
L 3100 3319 
L 3100 -1272 
L 2538 -1272 
z
M 803 1669 
Q 803 1028 1072 708 
Q 1341 388 1716 388 
Q 2075 388 2334 692 
Q 2594 997 2594 1619 
Q 2594 2281 2320 2615 
Q 2047 2950 1678 2950 
Q 1313 2950 1058 2639 
Q 803 2328 803 1669 
z
" transform="scale(0.015625)"/>
      <path id="ArialMT-64" d="M 2575 0 
L 2575 419 
Q 2259 -75 1647 -75 
Q 1250 -75 917 144 
Q 584 363 401 755 
Q 219 1147 219 1656 
Q 219 2153 384 2558 
Q 550 2963 881 3178 
Q 1213 3394 1622 3394 
Q 1922 3394 2156 3267 
Q 2391 3141 2538 2938 
L 2538 4581 
L 3097 4581 
L 3097 0 
L 2575 0 
z
M 797 1656 
Q 797 1019 1065 703 
Q 1334 388 1700 388 
Q 2069 388 2326 689 
Q 2584 991 2584 1609 
Q 2584 2291 2321 2609 
Q 2059 2928 1675 2928 
Q 1300 2928 1048 2622 
Q 797 2316 797 1656 
z
" transform="scale(0.015625)"/>
      <path id="ArialMT-62" d="M 941 0 
L 419 0 
L 419 4581 
L 981 4581 
L 981 2947 
Q 1338 3394 1891 3394 
Q 2197 3394 2470 3270 
Q 2744 3147 2920 2923 
Q 3097 2700 3197 2384 
Q 3297 2069 3297 1709 
Q 3297 856 2875 390 
Q 2453 -75 1863 -75 
Q 1275 -75 941 416 
L 941 0 
z
M 934 1684 
Q 934 1088 1097 822 
Q 1363 388 1816 388 
Q 2184 388 2453 708 
Q 2722 1028 2722 1663 
Q 2722 2313 2464 2622 
Q 2206 2931 1841 2931 
Q 1472 2931 1203 2611 
Q 934 2291 934 1684 
z
" transform="scale(0.015625)"/>
     </defs>
     <use xlink:href="#ArialMT-43"/>
     <use xlink:href="#ArialMT-6f" x="72.216797"/>
     <use xlink:href="#ArialMT-72" x="127.832031"/>
     <use xlink:href="#ArialMT-72" x="161.132812"/>
     <use xlink:href="#ArialMT-65" x="194.433594"/>
     <use xlink:href="#ArialMT-6c" x="250.048828"/>
     <use xlink:href="#ArialMT-61" x="272.265625"/>
     <use xlink:href="#ArialMT-74" x="327.880859"/>
     <use xlink:href="#ArialMT-69" x="355.664062"/>
     <use xlink:href="#ArialMT-6f" x="377.880859"/>
     <use xlink:href="#ArialMT-6e" x="433.496094"/>
     <use xlink:href="#ArialMT-20" x="489.111328"/>
     <use xlink:href="#ArialMT-6f" x="516.894531"/>
     <use xlink:href="#ArialMT-66" x="572.509766"/>
     <use xlink:href="#ArialMT-20" x="600.292969"/>
     <use xlink:href="#ArialMT-6c" x="628.076172"/>
     <use xlink:href="#ArialMT-69" x="650.292969"/>
     <use xlink:href="#ArialMT-71" x="672.509766"/>
     <use xlink:href="#ArialMT-75" x="728.125"/>
     <use xlink:href="#ArialMT-69" x="783.740234"/>
     <use xlink:href="#ArialMT-64" x="805.957031"/>
     <use xlink:href="#ArialMT-20" x="861.572266"/>
     <use xlink:href="#ArialMT-62" x="889.355469"/>
     <use xlink:href="#ArialMT-69" x="944.970703"/>
     <use xlink:href="#ArialMT-6f" x="967.1875"/>
     <use xlink:href="#ArialMT-70" x="1022.802734"/>
     <use xlink:href="#ArialMT-73" x="1078.417969"/>
     <use xlink:href="#ArialMT-69" x="1128.417969"/>
     <use xlink:href="#ArialMT-65" x="1150.634766"/>
     <use xlink:href="#ArialMT-73" x="1206.25"/>
     <use xlink:href="#ArialMT-20" x="1256.25"/>
     <use xlink:href="#ArialMT-61" x="1284.033203"/>
     <use xlink:href="#ArialMT-6e" x="1339.648438"/>
     <use xlink:href="#ArialMT-64" x="1395.263672"/>
     <use xlink:href="#ArialMT-20" x="1450.878906"/>
     <use xlink:href="#ArialMT-50" x="1478.662109"/>
     <use xlink:href="#ArialMT-45" x="1545.361328"/>
     <use xlink:href="#ArialMT-54" x="1612.060547"/>
     <use xlink:href="#ArialMT-2f" x="1673.144531"/>
     <use xlink:href="#ArialMT-43" x="1700.927734"/>
     <use xlink:href="#ArialMT-54" x="1773.144531"/>
    </g>
   </g>
  </g>
 </g>
 <defs>
  <clipPath id="p37b31774f8">
   <rect x="59.583196" y="27.65625" width="359.456804" height="350.561438"/>
  </clipPath>
 </defs>
</svg>
